ISO-10303-21;
HEADER;
/* Generated by software containing ST-Developer
 * from STEP Tools, Inc. (www.steptools.com) 
 */
/* OPTION: using custom renumber hook */

FILE_DESCRIPTION(
/* description */ ('STEP AP242 Edition 2',
'CAx-IF Rec.Pracs.---Representation and Presentation of Product Manufa
cturing Information (PMI)---4.0---2014-10-13',
'CAx-IF Rec.Pracs.---3D Tessellated Geometry---0.4---2014-09-14','2;1',
'CAx-IF Rec.Pracs.---User Defined Attributes---1.5---2016-08-15'),
/* implementation_level */ '2;1');

FILE_NAME(
/* name */ 'Part Studio 3',
/* time_stamp */ '2026-05-09T12:46:53Z',
/* author */ (''),
/* organization */ (''),
/* preprocessor_version */ 'ST-DEVELOPER v20',
/* originating_system */ 'ONSHAPE BY PTC INC, 1.214',
/* authorisation */ '  ');

FILE_SCHEMA (('AP242_MANAGED_MODEL_BASED_3D_ENGINEERING_MIM_LF { 1 0 10303 442 3 1 4 }'));
ENDSEC;

DATA;
#10=SHAPE_REPRESENTATION_RELATIONSHIP('','',#651,#11);
#11=ADVANCED_BREP_SHAPE_REPRESENTATION('',(#649),#1023);
#12=CYLINDRICAL_SURFACE('',#671,0.0007);
#13=CIRCLE('',#664,0.0007);
#14=CIRCLE('',#672,0.0007);
#15=ORIENTED_EDGE('',*,*,#187,.F.);
#16=ORIENTED_EDGE('',*,*,#188,.F.);
#17=ORIENTED_EDGE('',*,*,#189,.F.);
#18=ORIENTED_EDGE('',*,*,#190,.F.);
#19=ORIENTED_EDGE('',*,*,#191,.T.);
#20=ORIENTED_EDGE('',*,*,#192,.F.);
#21=ORIENTED_EDGE('',*,*,#193,.F.);
#22=ORIENTED_EDGE('',*,*,#194,.T.);
#23=ORIENTED_EDGE('',*,*,#195,.T.);
#24=ORIENTED_EDGE('',*,*,#196,.T.);
#25=ORIENTED_EDGE('',*,*,#197,.T.);
#26=ORIENTED_EDGE('',*,*,#198,.T.);
#27=ORIENTED_EDGE('',*,*,#199,.F.);
#28=ORIENTED_EDGE('',*,*,#200,.F.);
#29=ORIENTED_EDGE('',*,*,#201,.F.);
#30=ORIENTED_EDGE('',*,*,#202,.F.);
#31=ORIENTED_EDGE('',*,*,#203,.T.);
#32=ORIENTED_EDGE('',*,*,#191,.F.);
#33=ORIENTED_EDGE('',*,*,#204,.F.);
#34=ORIENTED_EDGE('',*,*,#205,.T.);
#35=ORIENTED_EDGE('',*,*,#206,.T.);
#36=ORIENTED_EDGE('',*,*,#197,.F.);
#37=ORIENTED_EDGE('',*,*,#207,.F.);
#38=ORIENTED_EDGE('',*,*,#208,.F.);
#39=ORIENTED_EDGE('',*,*,#209,.T.);
#40=ORIENTED_EDGE('',*,*,#210,.T.);
#41=ORIENTED_EDGE('',*,*,#211,.F.);
#42=ORIENTED_EDGE('',*,*,#212,.T.);
#43=ORIENTED_EDGE('',*,*,#213,.F.);
#44=ORIENTED_EDGE('',*,*,#214,.T.);
#45=ORIENTED_EDGE('',*,*,#215,.T.);
#46=ORIENTED_EDGE('',*,*,#193,.T.);
#47=ORIENTED_EDGE('',*,*,#216,.T.);
#48=ORIENTED_EDGE('',*,*,#217,.T.);
#49=ORIENTED_EDGE('',*,*,#218,.T.);
#50=ORIENTED_EDGE('',*,*,#198,.F.);
#51=ORIENTED_EDGE('',*,*,#206,.F.);
#52=ORIENTED_EDGE('',*,*,#219,.T.);
#53=ORIENTED_EDGE('',*,*,#220,.F.);
#54=ORIENTED_EDGE('',*,*,#221,.F.);
#55=ORIENTED_EDGE('',*,*,#222,.F.);
#56=ORIENTED_EDGE('',*,*,#223,.T.);
#57=ORIENTED_EDGE('',*,*,#224,.F.);
#58=ORIENTED_EDGE('',*,*,#225,.T.);
#59=ORIENTED_EDGE('',*,*,#207,.T.);
#60=ORIENTED_EDGE('',*,*,#226,.F.);
#61=ORIENTED_EDGE('',*,*,#227,.F.);
#62=ORIENTED_EDGE('',*,*,#228,.T.);
#63=ORIENTED_EDGE('',*,*,#229,.T.);
#64=ORIENTED_EDGE('',*,*,#230,.F.);
#65=ORIENTED_EDGE('',*,*,#225,.F.);
#66=ORIENTED_EDGE('',*,*,#231,.F.);
#67=ORIENTED_EDGE('',*,*,#232,.T.);
#68=ORIENTED_EDGE('',*,*,#208,.T.);
#69=ORIENTED_EDGE('',*,*,#224,.T.);
#70=ORIENTED_EDGE('',*,*,#233,.T.);
#71=ORIENTED_EDGE('',*,*,#234,.T.);
#72=ORIENTED_EDGE('',*,*,#235,.F.);
#73=ORIENTED_EDGE('',*,*,#220,.T.);
#74=ORIENTED_EDGE('',*,*,#236,.F.);
#75=ORIENTED_EDGE('',*,*,#237,.T.);
#76=ORIENTED_EDGE('',*,*,#238,.F.);
#77=ORIENTED_EDGE('',*,*,#239,.F.);
#78=ORIENTED_EDGE('',*,*,#231,.T.);
#79=ORIENTED_EDGE('',*,*,#238,.T.);
#80=ORIENTED_EDGE('',*,*,#240,.T.);
#81=ORIENTED_EDGE('',*,*,#210,.F.);
#82=ORIENTED_EDGE('',*,*,#241,.F.);
#83=ORIENTED_EDGE('',*,*,#232,.F.);
#84=ORIENTED_EDGE('',*,*,#239,.T.);
#85=ORIENTED_EDGE('',*,*,#241,.T.);
#86=ORIENTED_EDGE('',*,*,#209,.F.);
#87=ORIENTED_EDGE('',*,*,#219,.F.);
#88=ORIENTED_EDGE('',*,*,#205,.F.);
#89=ORIENTED_EDGE('',*,*,#242,.T.);
#90=ORIENTED_EDGE('',*,*,#243,.T.);
#91=ORIENTED_EDGE('',*,*,#244,.F.);
#92=ORIENTED_EDGE('',*,*,#216,.F.);
#93=ORIENTED_EDGE('',*,*,#243,.F.);
#94=ORIENTED_EDGE('',*,*,#245,.T.);
#95=ORIENTED_EDGE('',*,*,#189,.T.);
#96=ORIENTED_EDGE('',*,*,#246,.F.);
#97=ORIENTED_EDGE('',*,*,#247,.F.);
#98=ORIENTED_EDGE('',*,*,#242,.F.);
#99=ORIENTED_EDGE('',*,*,#204,.T.);
#100=ORIENTED_EDGE('',*,*,#190,.T.);
#101=ORIENTED_EDGE('',*,*,#245,.F.);
#102=ORIENTED_EDGE('',*,*,#202,.T.);
#103=ORIENTED_EDGE('',*,*,#248,.T.);
#104=ORIENTED_EDGE('',*,*,#214,.F.);
#105=ORIENTED_EDGE('',*,*,#249,.F.);
#106=ORIENTED_EDGE('',*,*,#213,.T.);
#107=ORIENTED_EDGE('',*,*,#192,.T.);
#108=ORIENTED_EDGE('',*,*,#203,.F.);
#109=ORIENTED_EDGE('',*,*,#249,.T.);
#110=ORIENTED_EDGE('',*,*,#194,.F.);
#111=ORIENTED_EDGE('',*,*,#215,.F.);
#112=ORIENTED_EDGE('',*,*,#248,.F.);
#113=ORIENTED_EDGE('',*,*,#201,.T.);
#114=ORIENTED_EDGE('',*,*,#250,.F.);
#115=ORIENTED_EDGE('',*,*,#251,.T.);
#116=ORIENTED_EDGE('',*,*,#195,.F.);
#117=ORIENTED_EDGE('',*,*,#251,.F.);
#118=ORIENTED_EDGE('',*,*,#252,.T.);
#119=ORIENTED_EDGE('',*,*,#253,.T.);
#120=ORIENTED_EDGE('',*,*,#196,.F.);
#121=ORIENTED_EDGE('',*,*,#253,.F.);
#122=ORIENTED_EDGE('',*,*,#254,.T.);
#123=ORIENTED_EDGE('',*,*,#199,.T.);
#124=ORIENTED_EDGE('',*,*,#252,.F.);
#125=ORIENTED_EDGE('',*,*,#250,.T.);
#126=ORIENTED_EDGE('',*,*,#200,.T.);
#127=ORIENTED_EDGE('',*,*,#254,.F.);
#128=ORIENTED_EDGE('',*,*,#247,.T.);
#129=ORIENTED_EDGE('',*,*,#255,.T.);
#130=ORIENTED_EDGE('',*,*,#255,.F.);
#131=ORIENTED_EDGE('',*,*,#240,.F.);
#132=ORIENTED_EDGE('',*,*,#237,.F.);
#133=ORIENTED_EDGE('',*,*,#256,.T.);
#134=ORIENTED_EDGE('',*,*,#211,.T.);
#135=ORIENTED_EDGE('',*,*,#256,.F.);
#136=ORIENTED_EDGE('',*,*,#236,.T.);
#137=ORIENTED_EDGE('',*,*,#226,.T.);
#138=ORIENTED_EDGE('',*,*,#212,.F.);
#139=ORIENTED_EDGE('',*,*,#228,.F.);
#140=ORIENTED_EDGE('',*,*,#257,.F.);
#141=ORIENTED_EDGE('',*,*,#258,.T.);
#142=ORIENTED_EDGE('',*,*,#259,.T.);
#143=ORIENTED_EDGE('',*,*,#227,.T.);
#144=ORIENTED_EDGE('',*,*,#260,.F.);
#145=ORIENTED_EDGE('',*,*,#261,.F.);
#146=ORIENTED_EDGE('',*,*,#257,.T.);
#147=ORIENTED_EDGE('',*,*,#230,.T.);
#148=ORIENTED_EDGE('',*,*,#262,.F.);
#149=ORIENTED_EDGE('',*,*,#263,.F.);
#150=ORIENTED_EDGE('',*,*,#260,.T.);
#151=ORIENTED_EDGE('',*,*,#229,.F.);
#152=ORIENTED_EDGE('',*,*,#259,.F.);
#153=ORIENTED_EDGE('',*,*,#264,.T.);
#154=ORIENTED_EDGE('',*,*,#262,.T.);
#155=ORIENTED_EDGE('',*,*,#258,.F.);
#156=ORIENTED_EDGE('',*,*,#261,.T.);
#157=ORIENTED_EDGE('',*,*,#263,.T.);
#158=ORIENTED_EDGE('',*,*,#264,.F.);
#159=ORIENTED_EDGE('',*,*,#265,.F.);
#160=ORIENTED_EDGE('',*,*,#246,.T.);
#161=ORIENTED_EDGE('',*,*,#188,.T.);
#162=ORIENTED_EDGE('',*,*,#266,.F.);
#163=ORIENTED_EDGE('',*,*,#217,.F.);
#164=ORIENTED_EDGE('',*,*,#244,.T.);
#165=ORIENTED_EDGE('',*,*,#265,.T.);
#166=ORIENTED_EDGE('',*,*,#267,.T.);
#167=ORIENTED_EDGE('',*,*,#218,.F.);
#168=ORIENTED_EDGE('',*,*,#267,.F.);
#169=ORIENTED_EDGE('',*,*,#266,.T.);
#170=ORIENTED_EDGE('',*,*,#187,.T.);
#171=ORIENTED_EDGE('',*,*,#221,.T.);
#172=ORIENTED_EDGE('',*,*,#235,.T.);
#173=ORIENTED_EDGE('',*,*,#268,.F.);
#174=ORIENTED_EDGE('',*,*,#269,.T.);
#175=ORIENTED_EDGE('',*,*,#233,.F.);
#176=ORIENTED_EDGE('',*,*,#223,.F.);
#177=ORIENTED_EDGE('',*,*,#270,.F.);
#178=ORIENTED_EDGE('',*,*,#271,.T.);
#179=ORIENTED_EDGE('',*,*,#234,.F.);
#180=ORIENTED_EDGE('',*,*,#271,.F.);
#181=ORIENTED_EDGE('',*,*,#272,.T.);
#182=ORIENTED_EDGE('',*,*,#268,.T.);
#183=ORIENTED_EDGE('',*,*,#222,.T.);
#184=ORIENTED_EDGE('',*,*,#269,.F.);
#185=ORIENTED_EDGE('',*,*,#272,.F.);
#186=ORIENTED_EDGE('',*,*,#270,.T.);
#187=EDGE_CURVE('',#273,#274,#331,.T.);
#188=EDGE_CURVE('',#275,#273,#332,.T.);
#189=EDGE_CURVE('',#276,#275,#333,.T.);
#190=EDGE_CURVE('',#277,#276,#334,.T.);
#191=EDGE_CURVE('',#277,#278,#335,.T.);
#192=EDGE_CURVE('',#279,#278,#336,.T.);
#193=EDGE_CURVE('',#280,#279,#337,.T.);
#194=EDGE_CURVE('',#280,#281,#338,.T.);
#195=EDGE_CURVE('',#281,#282,#339,.T.);
#196=EDGE_CURVE('',#282,#283,#340,.T.);
#197=EDGE_CURVE('',#283,#284,#341,.T.);
#198=EDGE_CURVE('',#284,#274,#342,.T.);
#199=EDGE_CURVE('',#285,#283,#343,.T.);
#200=EDGE_CURVE('',#286,#285,#344,.T.);
#201=EDGE_CURVE('',#287,#286,#345,.T.);
#202=EDGE_CURVE('',#288,#287,#346,.T.);
#203=EDGE_CURVE('',#288,#278,#347,.T.);
#204=EDGE_CURVE('',#289,#277,#348,.T.);
#205=EDGE_CURVE('',#289,#290,#349,.T.);
#206=EDGE_CURVE('',#290,#284,#350,.T.);
#207=EDGE_CURVE('',#291,#292,#351,.T.);
#208=EDGE_CURVE('',#293,#291,#352,.T.);
#209=EDGE_CURVE('',#293,#294,#353,.T.);
#210=EDGE_CURVE('',#294,#295,#354,.T.);
#211=EDGE_CURVE('',#296,#295,#355,.T.);
#212=EDGE_CURVE('',#296,#292,#356,.T.);
#213=EDGE_CURVE('',#297,#279,#357,.T.);
#214=EDGE_CURVE('',#297,#298,#358,.T.);
#215=EDGE_CURVE('',#298,#280,#359,.T.);
#216=EDGE_CURVE('',#299,#300,#360,.T.);
#217=EDGE_CURVE('',#300,#301,#361,.T.);
#218=EDGE_CURVE('',#301,#274,#362,.T.);
#219=EDGE_CURVE('',#290,#299,#363,.T.);
#220=EDGE_CURVE('',#302,#303,#364,.T.);
#221=EDGE_CURVE('',#304,#302,#365,.T.);
#222=EDGE_CURVE('',#305,#304,#366,.T.);
#223=EDGE_CURVE('',#305,#306,#367,.T.);
#224=EDGE_CURVE('',#307,#306,#368,.T.);
#225=EDGE_CURVE('',#307,#291,#369,.T.);
#226=EDGE_CURVE('',#303,#292,#370,.T.);
#227=EDGE_CURVE('',#308,#309,#371,.T.);
#228=EDGE_CURVE('',#308,#310,#372,.T.);
#229=EDGE_CURVE('',#310,#311,#373,.T.);
#230=EDGE_CURVE('',#309,#311,#374,.T.);
#231=EDGE_CURVE('',#312,#307,#375,.T.);
#232=EDGE_CURVE('',#312,#293,#376,.T.);
#233=EDGE_CURVE('',#306,#313,#377,.T.);
#234=EDGE_CURVE('',#313,#314,#378,.T.);
#235=EDGE_CURVE('',#302,#314,#379,.T.);
#236=EDGE_CURVE('',#315,#303,#380,.T.);
#237=EDGE_CURVE('',#315,#316,#381,.T.);
#238=EDGE_CURVE('',#317,#316,#382,.T.);
#239=EDGE_CURVE('',#312,#317,#383,.T.);
#240=EDGE_CURVE('',#316,#295,#384,.T.);
#241=EDGE_CURVE('',#317,#294,#385,.T.);
#242=EDGE_CURVE('',#289,#318,#386,.T.);
#243=EDGE_CURVE('',#318,#299,#387,.T.);
#244=EDGE_CURVE('',#300,#319,#388,.T.);
#245=EDGE_CURVE('',#318,#276,#389,.T.);
#246=EDGE_CURVE('',#319,#275,#390,.T.);
#247=EDGE_CURVE('',#320,#320,#13,.T.);
#248=EDGE_CURVE('',#287,#298,#391,.T.);
#249=EDGE_CURVE('',#288,#297,#392,.T.);
#250=EDGE_CURVE('',#321,#286,#393,.T.);
#251=EDGE_CURVE('',#321,#281,#394,.T.);
#252=EDGE_CURVE('',#321,#322,#395,.T.);
#253=EDGE_CURVE('',#322,#282,#396,.T.);
#254=EDGE_CURVE('',#322,#285,#397,.T.);
#255=EDGE_CURVE('',#323,#323,#14,.T.);
#256=EDGE_CURVE('',#315,#296,#398,.T.);
#257=EDGE_CURVE('',#324,#308,#399,.T.);
#258=EDGE_CURVE('',#324,#325,#400,.T.);
#259=EDGE_CURVE('',#325,#310,#401,.T.);
#260=EDGE_CURVE('',#326,#309,#402,.T.);
#261=EDGE_CURVE('',#324,#326,#403,.T.);
#262=EDGE_CURVE('',#327,#311,#404,.T.);
#263=EDGE_CURVE('',#326,#327,#405,.T.);
#264=EDGE_CURVE('',#325,#327,#406,.T.);
#265=EDGE_CURVE('',#319,#328,#407,.T.);
#266=EDGE_CURVE('',#328,#273,#408,.T.);
#267=EDGE_CURVE('',#328,#301,#409,.T.);
#268=EDGE_CURVE('',#329,#314,#410,.T.);
#269=EDGE_CURVE('',#329,#304,#411,.T.);
#270=EDGE_CURVE('',#330,#305,#412,.T.);
#271=EDGE_CURVE('',#330,#313,#413,.T.);
#272=EDGE_CURVE('',#330,#329,#414,.T.);
#273=VERTEX_POINT('',#847);
#274=VERTEX_POINT('',#848);
#275=VERTEX_POINT('',#850);
#276=VERTEX_POINT('',#852);
#277=VERTEX_POINT('',#854);
#278=VERTEX_POINT('',#856);
#279=VERTEX_POINT('',#858);
#280=VERTEX_POINT('',#860);
#281=VERTEX_POINT('',#862);
#282=VERTEX_POINT('',#864);
#283=VERTEX_POINT('',#866);
#284=VERTEX_POINT('',#868);
#285=VERTEX_POINT('',#872);
#286=VERTEX_POINT('',#874);
#287=VERTEX_POINT('',#876);
#288=VERTEX_POINT('',#878);
#289=VERTEX_POINT('',#881);
#290=VERTEX_POINT('',#883);
#291=VERTEX_POINT('',#887);
#292=VERTEX_POINT('',#888);
#293=VERTEX_POINT('',#890);
#294=VERTEX_POINT('',#892);
#295=VERTEX_POINT('',#894);
#296=VERTEX_POINT('',#896);
#297=VERTEX_POINT('',#899);
#298=VERTEX_POINT('',#901);
#299=VERTEX_POINT('',#905);
#300=VERTEX_POINT('',#906);
#301=VERTEX_POINT('',#908);
#302=VERTEX_POINT('',#912);
#303=VERTEX_POINT('',#913);
#304=VERTEX_POINT('',#915);
#305=VERTEX_POINT('',#917);
#306=VERTEX_POINT('',#919);
#307=VERTEX_POINT('',#921);
#308=VERTEX_POINT('',#925);
#309=VERTEX_POINT('',#926);
#310=VERTEX_POINT('',#928);
#311=VERTEX_POINT('',#930);
#312=VERTEX_POINT('',#934);
#313=VERTEX_POINT('',#938);
#314=VERTEX_POINT('',#940);
#315=VERTEX_POINT('',#943);
#316=VERTEX_POINT('',#945);
#317=VERTEX_POINT('',#947);
#318=VERTEX_POINT('',#955);
#319=VERTEX_POINT('',#959);
#320=VERTEX_POINT('',#964);
#321=VERTEX_POINT('',#971);
#322=VERTEX_POINT('',#975);
#323=VERTEX_POINT('',#982);
#324=VERTEX_POINT('',#989);
#325=VERTEX_POINT('',#991);
#326=VERTEX_POINT('',#995);
#327=VERTEX_POINT('',#999);
#328=VERTEX_POINT('',#1006);
#329=VERTEX_POINT('',#1013);
#330=VERTEX_POINT('',#1017);
#331=LINE('',#846,#415);
#332=LINE('',#849,#416);
#333=LINE('',#851,#417);
#334=LINE('',#853,#418);
#335=LINE('',#855,#419);
#336=LINE('',#857,#420);
#337=LINE('',#859,#421);
#338=LINE('',#861,#422);
#339=LINE('',#863,#423);
#340=LINE('',#865,#424);
#341=LINE('',#867,#425);
#342=LINE('',#869,#426);
#343=LINE('',#871,#427);
#344=LINE('',#873,#428);
#345=LINE('',#875,#429);
#346=LINE('',#877,#430);
#347=LINE('',#879,#431);
#348=LINE('',#880,#432);
#349=LINE('',#882,#433);
#350=LINE('',#884,#434);
#351=LINE('',#886,#435);
#352=LINE('',#889,#436);
#353=LINE('',#891,#437);
#354=LINE('',#893,#438);
#355=LINE('',#895,#439);
#356=LINE('',#897,#440);
#357=LINE('',#898,#441);
#358=LINE('',#900,#442);
#359=LINE('',#902,#443);
#360=LINE('',#904,#444);
#361=LINE('',#907,#445);
#362=LINE('',#909,#446);
#363=LINE('',#910,#447);
#364=LINE('',#911,#448);
#365=LINE('',#914,#449);
#366=LINE('',#916,#450);
#367=LINE('',#918,#451);
#368=LINE('',#920,#452);
#369=LINE('',#922,#453);
#370=LINE('',#923,#454);
#371=LINE('',#924,#455);
#372=LINE('',#927,#456);
#373=LINE('',#929,#457);
#374=LINE('',#931,#458);
#375=LINE('',#933,#459);
#376=LINE('',#935,#460);
#377=LINE('',#937,#461);
#378=LINE('',#939,#462);
#379=LINE('',#941,#463);
#380=LINE('',#942,#464);
#381=LINE('',#944,#465);
#382=LINE('',#946,#466);
#383=LINE('',#948,#467);
#384=LINE('',#950,#468);
#385=LINE('',#951,#469);
#386=LINE('',#954,#470);
#387=LINE('',#956,#471);
#388=LINE('',#958,#472);
#389=LINE('',#960,#473);
#390=LINE('',#961,#474);
#391=LINE('',#966,#475);
#392=LINE('',#967,#476);
#393=LINE('',#970,#477);
#394=LINE('',#972,#478);
#395=LINE('',#974,#479);
#396=LINE('',#976,#480);
#397=LINE('',#978,#481);
#398=LINE('',#985,#482);
#399=LINE('',#988,#483);
#400=LINE('',#990,#484);
#401=LINE('',#992,#485);
#402=LINE('',#994,#486);
#403=LINE('',#996,#487);
#404=LINE('',#998,#488);
#405=LINE('',#1000,#489);
#406=LINE('',#1002,#490);
#407=LINE('',#1005,#491);
#408=LINE('',#1007,#492);
#409=LINE('',#1009,#493);
#410=LINE('',#1012,#494);
#411=LINE('',#1014,#495);
#412=LINE('',#1016,#496);
#413=LINE('',#1018,#497);
#414=LINE('',#1020,#498);
#415=VECTOR('',#692,1.);
#416=VECTOR('',#693,1.);
#417=VECTOR('',#694,1.);
#418=VECTOR('',#695,1.);
#419=VECTOR('',#696,1.);
#420=VECTOR('',#697,1.);
#421=VECTOR('',#698,1.);
#422=VECTOR('',#699,1.);
#423=VECTOR('',#700,1.);
#424=VECTOR('',#701,1.);
#425=VECTOR('',#702,1.);
#426=VECTOR('',#703,1.);
#427=VECTOR('',#706,1.);
#428=VECTOR('',#707,1.);
#429=VECTOR('',#708,1.);
#430=VECTOR('',#709,1.);
#431=VECTOR('',#710,1.);
#432=VECTOR('',#711,1.);
#433=VECTOR('',#712,1.);
#434=VECTOR('',#713,1.);
#435=VECTOR('',#716,1.);
#436=VECTOR('',#717,1.);
#437=VECTOR('',#718,1.);
#438=VECTOR('',#719,1.);
#439=VECTOR('',#720,1.);
#440=VECTOR('',#721,1.);
#441=VECTOR('',#722,1.);
#442=VECTOR('',#723,1.);
#443=VECTOR('',#724,1.);
#444=VECTOR('',#727,1.);
#445=VECTOR('',#728,1.);
#446=VECTOR('',#729,1.);
#447=VECTOR('',#730,1.);
#448=VECTOR('',#731,1.);
#449=VECTOR('',#732,1.);
#450=VECTOR('',#733,1.);
#451=VECTOR('',#734,1.);
#452=VECTOR('',#735,1.);
#453=VECTOR('',#736,1.);
#454=VECTOR('',#737,1.);
#455=VECTOR('',#738,1.);
#456=VECTOR('',#739,1.);
#457=VECTOR('',#740,1.);
#458=VECTOR('',#741,1.);
#459=VECTOR('',#744,1.);
#460=VECTOR('',#745,1.);
#461=VECTOR('',#748,1.);
#462=VECTOR('',#749,1.);
#463=VECTOR('',#750,1.);
#464=VECTOR('',#751,1.);
#465=VECTOR('',#752,1.);
#466=VECTOR('',#753,1.);
#467=VECTOR('',#754,1.);
#468=VECTOR('',#757,1.);
#469=VECTOR('',#758,1.);
#470=VECTOR('',#763,1.);
#471=VECTOR('',#764,1.);
#472=VECTOR('',#767,1.);
#473=VECTOR('',#768,1.);
#474=VECTOR('',#769,1.);
#475=VECTOR('',#776,1.);
#476=VECTOR('',#777,1.);
#477=VECTOR('',#782,1.);
#478=VECTOR('',#783,1.);
#479=VECTOR('',#786,1.);
#480=VECTOR('',#787,1.);
#481=VECTOR('',#790,1.);
#482=VECTOR('',#801,1.);
#483=VECTOR('',#806,1.);
#484=VECTOR('',#807,1.);
#485=VECTOR('',#808,1.);
#486=VECTOR('',#811,1.);
#487=VECTOR('',#812,1.);
#488=VECTOR('',#815,1.);
#489=VECTOR('',#816,1.);
#490=VECTOR('',#819,1.);
#491=VECTOR('',#824,1.);
#492=VECTOR('',#825,1.);
#493=VECTOR('',#828,1.);
#494=VECTOR('',#833,1.);
#495=VECTOR('',#834,1.);
#496=VECTOR('',#837,1.);
#497=VECTOR('',#838,1.);
#498=VECTOR('',#841,1.);
#499=EDGE_LOOP('',(#15,#16,#17,#18,#19,#20,#21,#22,#23,#24,#25,#26));
#500=EDGE_LOOP('',(#27,#28,#29,#30,#31,#32,#33,#34,#35,#36));
#501=EDGE_LOOP('',(#37,#38,#39,#40,#41,#42));
#502=EDGE_LOOP('',(#43,#44,#45,#46));
#503=EDGE_LOOP('',(#47,#48,#49,#50,#51,#52));
#504=EDGE_LOOP('',(#53,#54,#55,#56,#57,#58,#59,#60));
#505=EDGE_LOOP('',(#61,#62,#63,#64));
#506=EDGE_LOOP('',(#65,#66,#67,#68));
#507=EDGE_LOOP('',(#69,#70,#71,#72,#73,#74,#75,#76,#77,#78));
#508=EDGE_LOOP('',(#79,#80,#81,#82));
#509=EDGE_LOOP('',(#83,#84,#85,#86));
#510=EDGE_LOOP('',(#87,#88,#89,#90));
#511=EDGE_LOOP('',(#91,#92,#93,#94,#95,#96));
#512=EDGE_LOOP('',(#97));
#513=EDGE_LOOP('',(#98,#99,#100,#101));
#514=EDGE_LOOP('',(#102,#103,#104,#105));
#515=EDGE_LOOP('',(#106,#107,#108,#109));
#516=EDGE_LOOP('',(#110,#111,#112,#113,#114,#115));
#517=EDGE_LOOP('',(#116,#117,#118,#119));
#518=EDGE_LOOP('',(#120,#121,#122,#123));
#519=EDGE_LOOP('',(#124,#125,#126,#127));
#520=EDGE_LOOP('',(#128));
#521=EDGE_LOOP('',(#129));
#522=EDGE_LOOP('',(#130));
#523=EDGE_LOOP('',(#131,#132,#133,#134));
#524=EDGE_LOOP('',(#135,#136,#137,#138));
#525=EDGE_LOOP('',(#139,#140,#141,#142));
#526=EDGE_LOOP('',(#143,#144,#145,#146));
#527=EDGE_LOOP('',(#147,#148,#149,#150));
#528=EDGE_LOOP('',(#151,#152,#153,#154));
#529=EDGE_LOOP('',(#155,#156,#157,#158));
#530=EDGE_LOOP('',(#159,#160,#161,#162));
#531=EDGE_LOOP('',(#163,#164,#165,#166));
#532=EDGE_LOOP('',(#167,#168,#169,#170));
#533=EDGE_LOOP('',(#171,#172,#173,#174));
#534=EDGE_LOOP('',(#175,#176,#177,#178));
#535=EDGE_LOOP('',(#179,#180,#181,#182));
#536=EDGE_LOOP('',(#183,#184,#185,#186));
#537=FACE_BOUND('',#499,.T.);
#538=FACE_BOUND('',#500,.T.);
#539=FACE_BOUND('',#501,.T.);
#540=FACE_BOUND('',#502,.T.);
#541=FACE_BOUND('',#503,.T.);
#542=FACE_BOUND('',#504,.T.);
#543=FACE_BOUND('',#505,.T.);
#544=FACE_BOUND('',#506,.T.);
#545=FACE_BOUND('',#507,.T.);
#546=FACE_BOUND('',#508,.T.);
#547=FACE_BOUND('',#509,.T.);
#548=FACE_BOUND('',#510,.T.);
#549=FACE_BOUND('',#511,.T.);
#550=FACE_BOUND('',#512,.T.);
#551=FACE_BOUND('',#513,.T.);
#552=FACE_BOUND('',#514,.T.);
#553=FACE_BOUND('',#515,.T.);
#554=FACE_BOUND('',#516,.T.);
#555=FACE_BOUND('',#517,.T.);
#556=FACE_BOUND('',#518,.T.);
#557=FACE_BOUND('',#519,.T.);
#558=FACE_BOUND('',#520,.T.);
#559=FACE_BOUND('',#521,.T.);
#560=FACE_BOUND('',#522,.T.);
#561=FACE_BOUND('',#523,.T.);
#562=FACE_BOUND('',#524,.T.);
#563=FACE_BOUND('',#525,.T.);
#564=FACE_BOUND('',#526,.T.);
#565=FACE_BOUND('',#527,.T.);
#566=FACE_BOUND('',#528,.T.);
#567=FACE_BOUND('',#529,.T.);
#568=FACE_BOUND('',#530,.T.);
#569=FACE_BOUND('',#531,.T.);
#570=FACE_BOUND('',#532,.T.);
#571=FACE_BOUND('',#533,.T.);
#572=FACE_BOUND('',#534,.T.);
#573=FACE_BOUND('',#535,.T.);
#574=FACE_BOUND('',#536,.T.);
#575=PLANE('',#653);
#576=PLANE('',#654);
#577=PLANE('',#655);
#578=PLANE('',#656);
#579=PLANE('',#657);
#580=PLANE('',#658);
#581=PLANE('',#659);
#582=PLANE('',#660);
#583=PLANE('',#661);
#584=PLANE('',#662);
#585=PLANE('',#663);
#586=PLANE('',#665);
#587=PLANE('',#666);
#588=PLANE('',#667);
#589=PLANE('',#668);
#590=PLANE('',#669);
#591=PLANE('',#670);
#592=PLANE('',#673);
#593=PLANE('',#674);
#594=PLANE('',#675);
#595=PLANE('',#676);
#596=PLANE('',#677);
#597=PLANE('',#678);
#598=PLANE('',#679);
#599=PLANE('',#680);
#600=PLANE('',#681);
#601=PLANE('',#682);
#602=PLANE('',#683);
#603=PLANE('',#684);
#604=PLANE('',#685);
#605=PLANE('',#686);
#606=PLANE('',#687);
#607=ADVANCED_FACE('',(#537),#575,.F.);
#608=ADVANCED_FACE('',(#538),#576,.F.);
#609=ADVANCED_FACE('',(#539,#540),#577,.T.);
#610=ADVANCED_FACE('',(#541,#542,#543),#578,.F.);
#611=ADVANCED_FACE('',(#544),#579,.T.);
#612=ADVANCED_FACE('',(#545),#580,.F.);
#613=ADVANCED_FACE('',(#546),#581,.F.);
#614=ADVANCED_FACE('',(#547),#582,.T.);
#615=ADVANCED_FACE('',(#548),#583,.T.);
#616=ADVANCED_FACE('',(#549),#584,.T.);
#617=ADVANCED_FACE('',(#550,#551),#585,.T.);
#618=ADVANCED_FACE('',(#552),#586,.T.);
#619=ADVANCED_FACE('',(#553),#587,.F.);
#620=ADVANCED_FACE('',(#554),#588,.T.);
#621=ADVANCED_FACE('',(#555),#589,.T.);
#622=ADVANCED_FACE('',(#556),#590,.T.);
#623=ADVANCED_FACE('',(#557),#591,.T.);
#624=ADVANCED_FACE('',(#558,#559),#12,.T.);
#625=ADVANCED_FACE('',(#560),#592,.F.);
#626=ADVANCED_FACE('',(#561),#593,.T.);
#627=ADVANCED_FACE('',(#562),#594,.T.);
#628=ADVANCED_FACE('',(#563),#595,.T.);
#629=ADVANCED_FACE('',(#564),#596,.F.);
#630=ADVANCED_FACE('',(#565),#597,.F.);
#631=ADVANCED_FACE('',(#566),#598,.T.);
#632=ADVANCED_FACE('',(#567),#599,.T.);
#633=ADVANCED_FACE('',(#568),#600,.T.);
#634=ADVANCED_FACE('',(#569),#601,.T.);
#635=ADVANCED_FACE('',(#570),#602,.T.);
#636=ADVANCED_FACE('',(#571),#603,.F.);
#637=ADVANCED_FACE('',(#572),#604,.T.);
#638=ADVANCED_FACE('',(#573),#605,.T.);
#639=ADVANCED_FACE('',(#574),#606,.F.);
#640=CLOSED_SHELL('',(#607,#608,#609,#610,#611,#612,#613,#614,#615,#616,
#617,#618,#619,#620,#621,#622,#623,#624,#625,#626,#627,#628,#629,#630,#631,
#632,#633,#634,#635,#636,#637,#638,#639));
#641=STYLED_ITEM('',(#642),#649);
#642=PRESENTATION_STYLE_ASSIGNMENT((#643));
#643=SURFACE_STYLE_USAGE(.BOTH.,#644);
#644=SURFACE_SIDE_STYLE('',(#645));
#645=SURFACE_STYLE_FILL_AREA(#646);
#646=FILL_AREA_STYLE('',(#647));
#647=FILL_AREA_STYLE_COLOUR('',#648);
#648=COLOUR_RGB('',0.615686274509804,0.811764705882353,0.929411764705882);
#649=MANIFOLD_SOLID_BREP('Part 1',#640);
#650=SHAPE_DEFINITION_REPRESENTATION(#1028,#651);
#651=SHAPE_REPRESENTATION('Part 1',(#652),#1023);
#652=AXIS2_PLACEMENT_3D('',#844,#688,#689);
#653=AXIS2_PLACEMENT_3D('',#845,#690,#691);
#654=AXIS2_PLACEMENT_3D('',#870,#704,#705);
#655=AXIS2_PLACEMENT_3D('',#885,#714,#715);
#656=AXIS2_PLACEMENT_3D('',#903,#725,#726);
#657=AXIS2_PLACEMENT_3D('',#932,#742,#743);
#658=AXIS2_PLACEMENT_3D('',#936,#746,#747);
#659=AXIS2_PLACEMENT_3D('',#949,#755,#756);
#660=AXIS2_PLACEMENT_3D('',#952,#759,#760);
#661=AXIS2_PLACEMENT_3D('',#953,#761,#762);
#662=AXIS2_PLACEMENT_3D('',#957,#765,#766);
#663=AXIS2_PLACEMENT_3D('',#962,#770,#771);
#664=AXIS2_PLACEMENT_3D('',#963,#772,#773);
#665=AXIS2_PLACEMENT_3D('',#965,#774,#775);
#666=AXIS2_PLACEMENT_3D('',#968,#778,#779);
#667=AXIS2_PLACEMENT_3D('',#969,#780,#781);
#668=AXIS2_PLACEMENT_3D('',#973,#784,#785);
#669=AXIS2_PLACEMENT_3D('',#977,#788,#789);
#670=AXIS2_PLACEMENT_3D('',#979,#791,#792);
#671=AXIS2_PLACEMENT_3D('',#980,#793,#794);
#672=AXIS2_PLACEMENT_3D('',#981,#795,#796);
#673=AXIS2_PLACEMENT_3D('',#983,#797,#798);
#674=AXIS2_PLACEMENT_3D('',#984,#799,#800);
#675=AXIS2_PLACEMENT_3D('',#986,#802,#803);
#676=AXIS2_PLACEMENT_3D('',#987,#804,#805);
#677=AXIS2_PLACEMENT_3D('',#993,#809,#810);
#678=AXIS2_PLACEMENT_3D('',#997,#813,#814);
#679=AXIS2_PLACEMENT_3D('',#1001,#817,#818);
#680=AXIS2_PLACEMENT_3D('',#1003,#820,#821);
#681=AXIS2_PLACEMENT_3D('',#1004,#822,#823);
#682=AXIS2_PLACEMENT_3D('',#1008,#826,#827);
#683=AXIS2_PLACEMENT_3D('',#1010,#829,#830);
#684=AXIS2_PLACEMENT_3D('',#1011,#831,#832);
#685=AXIS2_PLACEMENT_3D('',#1015,#835,#836);
#686=AXIS2_PLACEMENT_3D('',#1019,#839,#840);
#687=AXIS2_PLACEMENT_3D('',#1021,#842,#843);
#688=DIRECTION('',(0.,0.,1.));
#689=DIRECTION('',(1.,0.,0.));
#690=DIRECTION('',(0.,0.,-1.));
#691=DIRECTION('',(-1.,0.,0.));
#692=DIRECTION('',(0.,1.,0.));
#693=DIRECTION('',(1.,0.,0.));
#694=DIRECTION('',(0.,1.,0.));
#695=DIRECTION('',(-1.,0.,0.));
#696=DIRECTION('',(0.,1.,0.));
#697=DIRECTION('',(-1.,0.,0.));
#698=DIRECTION('',(0.,-1.,0.));
#699=DIRECTION('',(-1.,0.,0.));
#700=DIRECTION('',(0.,1.,0.));
#701=DIRECTION('',(1.,0.,0.));
#702=DIRECTION('',(0.,1.,0.));
#703=DIRECTION('',(-1.,0.,0.));
#704=DIRECTION('',(1.,0.,0.));
#705=DIRECTION('',(0.,0.,-1.));
#706=DIRECTION('',(0.,0.,-1.));
#707=DIRECTION('',(0.,1.,0.));
#708=DIRECTION('',(0.,0.,-1.));
#709=DIRECTION('',(0.,1.,1.7347234759768E-16));
#710=DIRECTION('',(0.,0.,-1.));
#711=DIRECTION('',(0.,0.,-1.));
#712=DIRECTION('',(0.,1.,0.));
#713=DIRECTION('',(0.,0.,-1.));
#714=DIRECTION('',(1.,0.,0.));
#715=DIRECTION('',(0.,0.,-1.));
#716=DIRECTION('',(0.,0.,-1.));
#717=DIRECTION('',(0.,1.,0.));
#718=DIRECTION('',(0.,0.,-1.));
#719=DIRECTION('',(0.,1.,0.));
#720=DIRECTION('',(0.,0.,1.));
#721=DIRECTION('',(0.,1.,0.));
#722=DIRECTION('',(0.,0.,-1.));
#723=DIRECTION('',(0.,1.,1.7347234759768E-16));
#724=DIRECTION('',(0.,0.,-1.));
#725=DIRECTION('',(0.,-1.,0.));
#726=DIRECTION('',(1.,0.,0.));
#727=DIRECTION('',(-4.96037210716114E-17,0.,-1.));
#728=DIRECTION('',(1.,0.,0.));
#729=DIRECTION('',(0.,0.,-1.));
#730=DIRECTION('',(-1.,0.,0.));
#731=DIRECTION('',(0.,0.,-1.));
#732=DIRECTION('',(1.,0.,0.));
#733=DIRECTION('',(0.,0.,-1.));
#734=DIRECTION('',(1.,0.,0.));
#735=DIRECTION('',(0.,0.,-1.));
#736=DIRECTION('',(1.,0.,0.));
#737=DIRECTION('',(1.,0.,0.));
#738=DIRECTION('',(-1.,0.,0.));
#739=DIRECTION('',(0.,0.,1.));
#740=DIRECTION('',(-1.,0.,0.));
#741=DIRECTION('',(0.,0.,1.));
#742=DIRECTION('',(0.,0.,1.));
#743=DIRECTION('',(1.,0.,0.));
#744=DIRECTION('',(0.,1.,0.));
#745=DIRECTION('',(1.,0.,0.));
#746=DIRECTION('',(1.,0.,0.));
#747=DIRECTION('',(0.,0.,-1.));
#748=DIRECTION('',(0.,-1.,0.));
#749=DIRECTION('',(0.,0.,-1.));
#750=DIRECTION('',(0.,-1.,0.));
#751=DIRECTION('',(0.,1.,0.));
#752=DIRECTION('',(0.,0.,1.));
#753=DIRECTION('',(0.,1.,0.));
#754=DIRECTION('',(0.,0.,-1.));
#755=DIRECTION('',(0.,0.,1.));
#756=DIRECTION('',(1.,0.,0.));
#757=DIRECTION('',(1.,0.,0.));
#758=DIRECTION('',(1.,0.,0.));
#759=DIRECTION('',(0.,-1.,0.));
#760=DIRECTION('',(1.,0.,0.));
#761=DIRECTION('',(0.,0.,-1.));
#762=DIRECTION('',(-1.,0.,0.));
#763=DIRECTION('',(-1.,0.,0.));
#764=DIRECTION('',(0.,1.,0.));
#765=DIRECTION('',(1.,0.,-4.96037210716114E-17));
#766=DIRECTION('',(-4.96037210716114E-17,0.,-1.));
#767=DIRECTION('',(0.,-1.,0.));
#768=DIRECTION('',(-4.96037210716114E-17,0.,-1.));
#769=DIRECTION('',(-4.96037210716114E-17,0.,-1.));
#770=DIRECTION('',(0.,1.,0.));
#771=DIRECTION('',(-1.,0.,0.));
#772=DIRECTION('',(0.,1.,0.));
#773=DIRECTION('',(0.,0.,1.));
#774=DIRECTION('',(0.,1.7347234759768E-16,-1.));
#775=DIRECTION('',(0.,1.,1.7347234759768E-16));
#776=DIRECTION('',(1.,0.,0.));
#777=DIRECTION('',(1.,0.,0.));
#778=DIRECTION('',(0.,-1.,0.));
#779=DIRECTION('',(0.,0.,-1.));
#780=DIRECTION('',(0.,-1.,0.));
#781=DIRECTION('',(0.,0.,-1.));
#782=DIRECTION('',(1.,0.,0.));
#783=DIRECTION('',(0.,0.,-1.));
#784=DIRECTION('',(-1.,0.,0.));
#785=DIRECTION('',(0.,0.,1.));
#786=DIRECTION('',(0.,1.,0.));
#787=DIRECTION('',(0.,0.,-1.));
#788=DIRECTION('',(0.,1.,0.));
#789=DIRECTION('',(0.,0.,1.));
#790=DIRECTION('',(1.,0.,0.));
#791=DIRECTION('',(0.,0.,1.));
#792=DIRECTION('',(1.,0.,0.));
#793=DIRECTION('',(0.,-1.,0.));
#794=DIRECTION('',(0.,0.,-1.));
#795=DIRECTION('',(0.,-1.,0.));
#796=DIRECTION('',(0.,0.,-1.));
#797=DIRECTION('',(0.,-1.,0.));
#798=DIRECTION('',(1.,0.,0.));
#799=DIRECTION('',(0.,-1.,0.));
#800=DIRECTION('',(0.,0.,-1.));
#801=DIRECTION('',(1.,0.,0.));
#802=DIRECTION('',(0.,0.,-1.));
#803=DIRECTION('',(1.,0.,0.));
#804=DIRECTION('',(1.,0.,0.));
#805=DIRECTION('',(0.,0.,-1.));
#806=DIRECTION('',(0.,-1.,0.));
#807=DIRECTION('',(0.,0.,1.));
#808=DIRECTION('',(0.,-1.,0.));
#809=DIRECTION('',(0.,0.,1.));
#810=DIRECTION('',(1.,0.,0.));
#811=DIRECTION('',(0.,-1.,0.));
#812=DIRECTION('',(-1.,0.,0.));
#813=DIRECTION('',(1.,0.,0.));
#814=DIRECTION('',(0.,0.,-1.));
#815=DIRECTION('',(0.,-1.,0.));
#816=DIRECTION('',(0.,0.,1.));
#817=DIRECTION('',(0.,0.,1.));
#818=DIRECTION('',(1.,0.,0.));
#819=DIRECTION('',(-1.,0.,0.));
#820=DIRECTION('',(0.,1.,0.));
#821=DIRECTION('',(-1.,0.,0.));
#822=DIRECTION('',(0.,-1.,0.));
#823=DIRECTION('',(1.,0.,0.));
#824=DIRECTION('',(1.,0.,0.));
#825=DIRECTION('',(0.,0.,-1.));
#826=DIRECTION('',(0.,0.,1.));
#827=DIRECTION('',(1.,0.,0.));
#828=DIRECTION('',(0.,1.,0.));
#829=DIRECTION('',(1.,0.,0.));
#830=DIRECTION('',(0.,0.,-1.));
#831=DIRECTION('',(0.,0.,1.));
#832=DIRECTION('',(1.,0.,0.));
#833=DIRECTION('',(1.,0.,0.));
#834=DIRECTION('',(0.,1.,0.));
#835=DIRECTION('',(0.,0.,1.));
#836=DIRECTION('',(1.,0.,0.));
#837=DIRECTION('',(0.,1.,0.));
#838=DIRECTION('',(1.,0.,0.));
#839=DIRECTION('',(0.,-1.,0.));
#840=DIRECTION('',(1.,0.,0.));
#841=DIRECTION('',(0.,0.,-1.));
#842=DIRECTION('',(1.,0.,0.));
#843=DIRECTION('',(0.,0.,-1.));
#844=CARTESIAN_POINT('',(0.,0.,0.));
#845=CARTESIAN_POINT('',(0.0441627774935304,-0.0149,-0.00375564367553949));
#846=CARTESIAN_POINT('',(0.0268350075930357,-0.005,-0.00375564367553949));
#847=CARTESIAN_POINT('',(0.0268350075930357,-0.005,-0.00375564367553949));
#848=CARTESIAN_POINT('',(0.0268350075930357,0.,-0.00375564367553949));
#849=CARTESIAN_POINT('',(-0.00523973140137717,-0.005,-0.00375564367553949));
#850=CARTESIAN_POINT('',(-0.00276938250646953,-0.005,-0.00375564367553949));
#851=CARTESIAN_POINT('',(-0.00276938250646953,-0.0149,-0.00375564367553949));
#852=CARTESIAN_POINT('',(-0.00276938250646953,-0.0149,-0.00375564367553949));
#853=CARTESIAN_POINT('',(0.0441627774935304,-0.0149,-0.00375564367553949));
#854=CARTESIAN_POINT('',(0.0910949374935305,-0.0149,-0.00375564367553949));
#855=CARTESIAN_POINT('',(0.0910949374935305,-0.0149,-0.00375564367553949));
#856=CARTESIAN_POINT('',(0.0910949374935305,-0.01351081,-0.00375564367553949));
#857=CARTESIAN_POINT('',(0.0941647774935305,-0.01351081,-0.00375564367553949));
#858=CARTESIAN_POINT('',(0.0941627774935305,-0.01351081,-0.00375564367553949));
#859=CARTESIAN_POINT('',(0.0941627774935305,-0.0149,-0.00375564367553949));
#860=CARTESIAN_POINT('',(0.0941627774935305,-0.00851081,-0.00375564367553949));
#861=CARTESIAN_POINT('',(0.0941647774935305,-0.00851081,-0.00375564367553949));
#862=CARTESIAN_POINT('',(0.074510238095325,-0.00851081,-0.00375564367553949));
#863=CARTESIAN_POINT('',(0.074510238095325,-0.0081644680859122,-0.00375564367553949));
#864=CARTESIAN_POINT('',(0.074510238095325,-0.0078181261718244,-0.00375564367553949));
#865=CARTESIAN_POINT('',(0.0828025877944277,-0.0078181261718244,-0.00375564367553949));
#866=CARTESIAN_POINT('',(0.0910949374935305,-0.0078181261718244,-0.00375564367553949));
#867=CARTESIAN_POINT('',(0.0910949374935305,-0.0149,-0.00375564367553949));
#868=CARTESIAN_POINT('',(0.0910949374935305,0.,-0.00375564367553949));
#869=CARTESIAN_POINT('',(0.0441627774935304,0.,-0.00375564367553949));
#870=CARTESIAN_POINT('',(0.0910949374935305,-0.0149,0.00498726632446051));
#871=CARTESIAN_POINT('',(0.0910949374935305,-0.0078181261718244,-0.00325564367553949));
#872=CARTESIAN_POINT('',(0.0910949374935305,-0.0078181261718244,-0.00325564367553949));
#873=CARTESIAN_POINT('',(0.0910949374935305,-0.0149,-0.00325564367553949));
#874=CARTESIAN_POINT('',(0.0910949374935305,-0.00851081,-0.00325564367553949));
#875=CARTESIAN_POINT('',(0.0910949374935305,-0.00851081,0.00498726632446051));
#876=CARTESIAN_POINT('',(0.0910949374935305,-0.00851081,0.0044872663244605));
#877=CARTESIAN_POINT('',(0.0910949374935305,-0.0149,0.0044872663244605));
#878=CARTESIAN_POINT('',(0.0910949374935305,-0.01351081,0.0044872663244605));
#879=CARTESIAN_POINT('',(0.0910949374935305,-0.01351081,0.00498726632446051));
#880=CARTESIAN_POINT('',(0.0910949374935305,-0.0149,0.00498726632446051));
#881=CARTESIAN_POINT('',(0.0910949374935305,-0.0149,0.0137301763244605));
#882=CARTESIAN_POINT('',(0.0910949374935305,-0.0149,0.0137301763244605));
#883=CARTESIAN_POINT('',(0.0910949374935305,0.,0.0137301763244605));
#884=CARTESIAN_POINT('',(0.0910949374935305,0.,0.00498726632446051));
#885=CARTESIAN_POINT('',(0.0941627774935305,-0.015,0.00498726632446051));
#886=CARTESIAN_POINT('',(0.0941627774935305,0.,0.00498726632446051));
#887=CARTESIAN_POINT('',(0.0941627774935305,0.,0.0149872663244605));
#888=CARTESIAN_POINT('',(0.0941627774935305,0.,-0.0300127336755395));
#889=CARTESIAN_POINT('',(0.0941627774935305,-0.015,0.0149872663244605));
#890=CARTESIAN_POINT('',(0.0941627774935305,-0.015,0.0149872663244605));
#891=CARTESIAN_POINT('',(0.0941627774935305,-0.015,0.00498726632446051));
#892=CARTESIAN_POINT('',(0.0941627774935305,-0.015,-0.0050127336755395));
#893=CARTESIAN_POINT('',(0.0941627774935305,-0.015,-0.0050127336755395));
#894=CARTESIAN_POINT('',(0.0941627774935305,-0.000262961490079761,-0.0050127336755395));
#895=CARTESIAN_POINT('',(0.0941627774935305,-0.000262961490079761,-0.0300127336755395));
#896=CARTESIAN_POINT('',(0.0941627774935305,-0.000262961490079761,-0.0300127336755395));
#897=CARTESIAN_POINT('',(0.0941627774935305,-0.015,-0.0300127336755395));
#898=CARTESIAN_POINT('',(0.0941627774935305,-0.01351081,-1.27336755394967E-5));
#899=CARTESIAN_POINT('',(0.0941627774935305,-0.01351081,0.0044872663244605));
#900=CARTESIAN_POINT('',(0.0941627774935305,-0.01101081,0.0044872663244605));
#901=CARTESIAN_POINT('',(0.0941627774935305,-0.00851081,0.0044872663244605));
#902=CARTESIAN_POINT('',(0.0941627774935305,-0.00851081,-1.2733675539495E-5));
#903=CARTESIAN_POINT('',(0.0441627774935304,0.,0.00498726632446051));
#904=CARTESIAN_POINT('',(-0.00276938250646953,0.,0.00498726632446051));
#905=CARTESIAN_POINT('',(-0.00276938250646953,0.,0.0137301763244605));
#906=CARTESIAN_POINT('',(-0.00276938250646953,0.,0.0022443563244605));
#907=CARTESIAN_POINT('',(-0.00523973140137717,0.,0.0022443563244605));
#908=CARTESIAN_POINT('',(0.0268350075930357,0.,0.0022443563244605));
#909=CARTESIAN_POINT('',(0.0268350075930357,0.,-0.000755643675539494));
#910=CARTESIAN_POINT('',(0.0441627774935304,0.,0.0137301763244605));
#911=CARTESIAN_POINT('',(-0.00583722250646953,0.,0.00498726632446051));
#912=CARTESIAN_POINT('',(-0.00583722250646953,0.,-0.00375564367553949));
#913=CARTESIAN_POINT('',(-0.00583722250646953,0.,-0.0300127336755395));
#914=CARTESIAN_POINT('',(-0.00523973140137717,0.,-0.00375564367553949));
#915=CARTESIAN_POINT('',(-0.03731447039579,0.,-0.00375564367553949));
#916=CARTESIAN_POINT('',(-0.03731447039579,0.,-0.000755643675539494));
#917=CARTESIAN_POINT('',(-0.03731447039579,0.,0.0022443563244605));
#918=CARTESIAN_POINT('',(-0.00523973140137717,0.,0.0022443563244605));
#919=CARTESIAN_POINT('',(-0.00583722250646953,0.,0.0022443563244605));
#920=CARTESIAN_POINT('',(-0.00583722250646953,0.,0.00498726632446051));
#921=CARTESIAN_POINT('',(-0.00583722250646953,0.,0.0149872663244605));
#922=CARTESIAN_POINT('',(0.0441627774935304,0.,0.0149872663244605));
#923=CARTESIAN_POINT('',(0.0441627774935304,0.,-0.0300127336755395));
#924=CARTESIAN_POINT('',(0.0504709179513156,0.,-0.0258481758362698));
#925=CARTESIAN_POINT('',(0.0824709179513156,0.,-0.0258481758362698));
#926=CARTESIAN_POINT('',(0.0184709179513156,0.,-0.0258481758362698));
#927=CARTESIAN_POINT('',(0.0824709179513156,0.,-0.0255011050030589));
#928=CARTESIAN_POINT('',(0.0824709179513156,0.,-0.0251540341698481));
#929=CARTESIAN_POINT('',(0.0504709179513156,0.,-0.0251540341698481));
#930=CARTESIAN_POINT('',(0.0184709179513156,0.,-0.0251540341698481));
#931=CARTESIAN_POINT('',(0.0184709179513156,0.,-0.0255011050030589));
#932=CARTESIAN_POINT('',(0.0441627774935304,-0.015,0.0149872663244605));
#933=CARTESIAN_POINT('',(-0.00583722250646953,-0.015,0.0149872663244605));
#934=CARTESIAN_POINT('',(-0.00583722250646953,-0.015,0.0149872663244605));
#935=CARTESIAN_POINT('',(0.0441627774935304,-0.015,0.0149872663244605));
#936=CARTESIAN_POINT('',(-0.00583722250646953,-0.015,0.00498726632446051));
#937=CARTESIAN_POINT('',(-0.00583722250646953,-0.015,0.0022443563244605));
#938=CARTESIAN_POINT('',(-0.00583722250646953,-0.005,0.0022443563244605));
#939=CARTESIAN_POINT('',(-0.00583722250646953,-0.005,0.00498726632446051));
#940=CARTESIAN_POINT('',(-0.00583722250646953,-0.005,-0.00375564367553949));
#941=CARTESIAN_POINT('',(-0.00583722250646953,-0.015,-0.00375564367553949));
#942=CARTESIAN_POINT('',(-0.00583722250646953,-0.015,-0.0300127336755395));
#943=CARTESIAN_POINT('',(-0.00583722250646953,-0.000262961490079761,-0.0300127336755395));
#944=CARTESIAN_POINT('',(-0.00583722250646953,-0.000262961490079761,-0.0300127336755395));
#945=CARTESIAN_POINT('',(-0.00583722250646953,-0.000262961490079761,-0.00501273367553949));
#946=CARTESIAN_POINT('',(-0.00583722250646953,-0.015,-0.00501273367553949));
#947=CARTESIAN_POINT('',(-0.00583722250646953,-0.015,-0.00501273367553949));
#948=CARTESIAN_POINT('',(-0.00583722250646953,-0.015,0.00498726632446051));
#949=CARTESIAN_POINT('',(0.0441627774935304,-0.015,-0.00501273367553949));
#950=CARTESIAN_POINT('',(0.0441627774935304,-0.000262961490079761,-0.00501273367553949));
#951=CARTESIAN_POINT('',(0.0441627774935304,-0.015,-0.00501273367553949));
#952=CARTESIAN_POINT('',(0.0441627774935304,-0.015,0.00498726632446051));
#953=CARTESIAN_POINT('',(0.0441627774935304,-0.0149,0.0137301763244605));
#954=CARTESIAN_POINT('',(0.0441627774935304,-0.0149,0.0137301763244605));
#955=CARTESIAN_POINT('',(-0.00276938250646953,-0.0149,0.0137301763244605));
#956=CARTESIAN_POINT('',(-0.00276938250646953,-0.0149,0.0137301763244605));
#957=CARTESIAN_POINT('',(-0.00276938250646953,-0.0149,0.00498726632446051));
#958=CARTESIAN_POINT('',(-0.00276938250646953,-0.0149,0.0022443563244605));
#959=CARTESIAN_POINT('',(-0.00276938250646953,-0.005,0.0022443563244605));
#960=CARTESIAN_POINT('',(-0.00276938250646953,-0.0149,0.00498726632446051));
#961=CARTESIAN_POINT('',(-0.00276938250646953,-0.005,0.00498726632446051));
#962=CARTESIAN_POINT('',(0.0441627774935304,-0.0149,0.00498726632446051));
#963=CARTESIAN_POINT('',(0.0191619374935304,-0.0149,0.00748817632446051));
#964=CARTESIAN_POINT('',(0.0191619374935304,-0.0149,0.00818817632446051));
#965=CARTESIAN_POINT('',(0.0691627774935305,-0.01101081,0.0044872663244605));
#966=CARTESIAN_POINT('',(0.0691627774935305,-0.00851081,0.0044872663244605));
#967=CARTESIAN_POINT('',(0.0691627774935305,-0.01351081,0.0044872663244605));
#968=CARTESIAN_POINT('',(0.0691627774935305,-0.01351081,-1.27336755394967E-5));
#969=CARTESIAN_POINT('',(0.0691627774935305,-0.00851081,-1.2733675539495E-5));
#970=CARTESIAN_POINT('',(0.0828025877944277,-0.00851081,-0.00325564367553949));
#971=CARTESIAN_POINT('',(0.074510238095325,-0.00851081,-0.00325564367553949));
#972=CARTESIAN_POINT('',(0.074510238095325,-0.00851081,-0.00325564367553949));
#973=CARTESIAN_POINT('',(0.074510238095325,-0.0081644680859122,-0.00325564367553949));
#974=CARTESIAN_POINT('',(0.074510238095325,-0.0081644680859122,-0.00325564367553949));
#975=CARTESIAN_POINT('',(0.074510238095325,-0.0078181261718244,-0.00325564367553949));
#976=CARTESIAN_POINT('',(0.074510238095325,-0.0078181261718244,-0.00325564367553949));
#977=CARTESIAN_POINT('',(0.0828025877944277,-0.0078181261718244,-0.00325564367553949));
#978=CARTESIAN_POINT('',(0.0828025877944277,-0.0078181261718244,-0.00325564367553949));
#979=CARTESIAN_POINT('',(0.0456966974935305,-0.00745,-0.00325564367553949));
#980=CARTESIAN_POINT('',(0.0191619374935304,-0.005,0.00748817632446051));
#981=CARTESIAN_POINT('',(0.0191619374935304,-0.005,0.00748817632446051));
#982=CARTESIAN_POINT('',(0.0191619374935304,-0.005,0.00678817632446051));
#983=CARTESIAN_POINT('',(0.0441627774935304,-0.005,0.00498726632446051));
#984=CARTESIAN_POINT('',(0.0441627774935304,-0.000262961490079761,-0.0300127336755395));
#985=CARTESIAN_POINT('',(0.0441627774935304,-0.000262961490079761,-0.0300127336755395));
#986=CARTESIAN_POINT('',(0.0441627774935304,-0.0075,-0.0300127336755395));
#987=CARTESIAN_POINT('',(0.0824709179513156,0.022,-0.0255011050030589));
#988=CARTESIAN_POINT('',(0.0824709179513156,0.022,-0.0258481758362698));
#989=CARTESIAN_POINT('',(0.0824709179513156,0.022,-0.0258481758362698));
#990=CARTESIAN_POINT('',(0.0824709179513156,0.022,-0.0255011050030589));
#991=CARTESIAN_POINT('',(0.0824709179513156,0.022,-0.0251540341698481));
#992=CARTESIAN_POINT('',(0.0824709179513156,0.022,-0.0251540341698481));
#993=CARTESIAN_POINT('',(0.0504709179513156,0.022,-0.0258481758362698));
#994=CARTESIAN_POINT('',(0.0184709179513156,0.022,-0.0258481758362698));
#995=CARTESIAN_POINT('',(0.0184709179513156,0.022,-0.0258481758362698));
#996=CARTESIAN_POINT('',(0.0504709179513156,0.022,-0.0258481758362698));
#997=CARTESIAN_POINT('',(0.0184709179513156,0.022,-0.0255011050030589));
#998=CARTESIAN_POINT('',(0.0184709179513156,0.022,-0.0251540341698481));
#999=CARTESIAN_POINT('',(0.0184709179513156,0.022,-0.0251540341698481));
#1000=CARTESIAN_POINT('',(0.0184709179513156,0.022,-0.0255011050030589));
#1001=CARTESIAN_POINT('',(0.0504709179513156,0.022,-0.0251540341698481));
#1002=CARTESIAN_POINT('',(0.0504709179513156,0.022,-0.0251540341698481));
#1003=CARTESIAN_POINT('',(0.0441627774935304,0.022,-0.00751273367553949));
#1004=CARTESIAN_POINT('',(0.0284241535488702,-0.005,0.00498726632446051));
#1005=CARTESIAN_POINT('',(-0.00523973140137717,-0.005,0.0022443563244605));
#1006=CARTESIAN_POINT('',(0.0268350075930357,-0.005,0.0022443563244605));
#1007=CARTESIAN_POINT('',(0.0268350075930357,-0.005,-0.000755643675539494));
#1008=CARTESIAN_POINT('',(-0.00523973140137717,-0.005,0.0022443563244605));
#1009=CARTESIAN_POINT('',(0.0268350075930357,-0.005,0.0022443563244605));
#1010=CARTESIAN_POINT('',(0.0268350075930357,-0.005,-0.000755643675539494));
#1011=CARTESIAN_POINT('',(-0.00523973140137717,-0.005,-0.00375564367553949));
#1012=CARTESIAN_POINT('',(-0.00523973140137717,-0.005,-0.00375564367553949));
#1013=CARTESIAN_POINT('',(-0.03731447039579,-0.005,-0.00375564367553949));
#1014=CARTESIAN_POINT('',(-0.03731447039579,-0.005,-0.00375564367553949));
#1015=CARTESIAN_POINT('',(-0.00523973140137717,-0.005,0.0022443563244605));
#1016=CARTESIAN_POINT('',(-0.03731447039579,-0.005,0.0022443563244605));
#1017=CARTESIAN_POINT('',(-0.03731447039579,-0.005,0.0022443563244605));
#1018=CARTESIAN_POINT('',(-0.00523973140137717,-0.005,0.0022443563244605));
#1019=CARTESIAN_POINT('',(0.0284241535488702,-0.005,0.00498726632446051));
#1020=CARTESIAN_POINT('',(-0.03731447039579,-0.005,-0.000755643675539494));
#1021=CARTESIAN_POINT('',(-0.03731447039579,-0.005,-0.000755643675539494));
#1022=MECHANICAL_DESIGN_GEOMETRIC_PRESENTATION_REPRESENTATION('',(#641),
#1023);
#1023=(
GEOMETRIC_REPRESENTATION_CONTEXT(3)
GLOBAL_UNCERTAINTY_ASSIGNED_CONTEXT((#1024))
GLOBAL_UNIT_ASSIGNED_CONTEXT((#1027,#1026,#1025))
REPRESENTATION_CONTEXT('Part 1','TOP_LEVEL_ASSEMBLY_PART')
);
#1024=UNCERTAINTY_MEASURE_WITH_UNIT(LENGTH_MEASURE(1.E-8),#1027,
'DISTANCE_ACCURACY_VALUE','Maximum Tolerance applied to model');
#1025=(
NAMED_UNIT(*)
SI_UNIT($,.STERADIAN.)
SOLID_ANGLE_UNIT()
);
#1026=(
NAMED_UNIT(*)
PLANE_ANGLE_UNIT()
SI_UNIT($,.RADIAN.)
);
#1027=(
LENGTH_UNIT()
NAMED_UNIT(*)
SI_UNIT($,.METRE.)
);
#1028=PRODUCT_DEFINITION_SHAPE('','',#1029);
#1029=PRODUCT_DEFINITION('','',#1031,#1030);
#1030=PRODUCT_DEFINITION_CONTEXT('',#1037,'design');
#1031=PRODUCT_DEFINITION_FORMATION_WITH_SPECIFIED_SOURCE('','',#1033,
 .NOT_KNOWN.);
#1032=PRODUCT_RELATED_PRODUCT_CATEGORY('','',(#1033));
#1033=PRODUCT('Part 1','Part 1','Part 1',(#1035));
#1034=PRODUCT_CATEGORY('','');
#1035=PRODUCT_CONTEXT('',#1037,'mechanical');
#1036=APPLICATION_PROTOCOL_DEFINITION('international standard',
'ap242_managed_model_based_3d_engineering',2020,#1037);
#1037=APPLICATION_CONTEXT('managed model based 3d engineering');
ENDSEC;
END-ISO-10303-21;
