M48
; DRILL file KiCad 10.0.1 date 2026-05-30T16:20:28
; FORMAT={-:-/ absolute / metric / decimal}
; #@! TF.CreationDate,2026-05-30T16:20:28+01:00
; #@! TF.GenerationSoftware,Kicad,Pcbnew,10.0.1
; #@! TF.FileFunction,Plated,1,2,PTH
FMAT,2
METRIC
; #@! TA.AperFunction,Plated,PTH,ViaDrill
T1C0.300
; #@! TA.AperFunction,Plated,PTH,ComponentDrill
T2C0.900
; #@! TA.AperFunction,Plated,PTH,ComponentDrill
T3C1.000
; #@! TA.AperFunction,Plated,PTH,ComponentDrill
T4C1.020
; #@! TA.AperFunction,Plated,PTH,ComponentDrill
T5C1.500
%
G90
G05
T1
X137.964Y-73.464
X150.674Y-55.674
X161.5Y-59.081
X161.5Y-60.5
X161.5Y-65.0
T2
X112.925Y-45.875
X112.925Y-48.415
X112.925Y-50.955
X112.925Y-53.495
X112.925Y-56.035
X112.925Y-58.575
X112.925Y-61.115
X112.925Y-63.655
X112.925Y-66.195
X112.925Y-68.735
X112.925Y-71.275
X112.925Y-73.815
X112.925Y-76.355
X112.925Y-78.895
X112.925Y-81.435
X135.785Y-45.875
X135.785Y-48.415
X135.785Y-50.955
X135.785Y-53.495
X135.785Y-56.035
X135.785Y-58.575
X135.785Y-61.115
X135.785Y-63.655
X135.785Y-66.195
X135.785Y-68.735
X135.785Y-71.275
X135.785Y-73.815
X135.785Y-76.355
X135.785Y-78.895
X135.785Y-81.435
X143.96Y-74.5
X146.5Y-74.5
X149.96Y-74.5
X152.5Y-74.5
X153.4Y-58.5
X155.4Y-58.5
X157.4Y-58.5
T3
X140.005Y-40.295
X140.005Y-42.835
X140.005Y-45.375
X140.005Y-47.915
X140.005Y-50.455
X140.005Y-52.995
X140.005Y-68.035
X140.005Y-70.575
X140.005Y-73.115
X140.005Y-75.655
X144.595Y-48.195
X144.595Y-50.735
T4
X161.42Y-47.5
X163.96Y-47.5
X166.5Y-47.5
T5
X151.3Y-58.5
X159.5Y-58.5
M30
