%TF.GenerationSoftware,KiCad,Pcbnew,10.0.1*%
%TF.CreationDate,2026-05-30T16:20:22+01:00*%
%TF.ProjectId,rfid drawer lock,72666964-2064-4726-9177-6572206c6f63,rev?*%
%TF.SameCoordinates,Original*%
%TF.FileFunction,Copper,L1,Top*%
%TF.FilePolarity,Positive*%
%FSLAX46Y46*%
G04 Gerber Fmt 4.6, Leading zero omitted, Abs format (unit mm)*
G04 Created by KiCad (PCBNEW 10.0.1) date 2026-05-30 16:20:22*
%MOMM*%
%LPD*%
G01*
G04 APERTURE LIST*
G04 Aperture macros list*
%AMRoundRect*
0 Rectangle with rounded corners*
0 $1 Rounding radius*
0 $2 $3 $4 $5 $6 $7 $8 $9 X,Y pos of 4 corners*
0 Add a 4 corners polygon primitive as box body*
4,1,4,$2,$3,$4,$5,$6,$7,$8,$9,$2,$3,0*
0 Add four circle primitives for the rounded corners*
1,1,$1+$1,$2,$3*
1,1,$1+$1,$4,$5*
1,1,$1+$1,$6,$7*
1,1,$1+$1,$8,$9*
0 Add four rect primitives between the rounded corners*
20,1,$1+$1,$2,$3,$4,$5,0*
20,1,$1+$1,$4,$5,$6,$7,0*
20,1,$1+$1,$6,$7,$8,$9,0*
20,1,$1+$1,$8,$9,$2,$3,0*%
G04 Aperture macros list end*
%TA.AperFunction,NonConductor*%
%ADD10C,0.200000*%
%TD*%
%TA.AperFunction,ComponentPad*%
%ADD11R,1.500000X1.500000*%
%TD*%
%TA.AperFunction,ComponentPad*%
%ADD12C,1.500000*%
%TD*%
%TA.AperFunction,ComponentPad*%
%ADD13O,2.200000X3.500000*%
%TD*%
%TA.AperFunction,ComponentPad*%
%ADD14R,1.500000X2.500000*%
%TD*%
%TA.AperFunction,ComponentPad*%
%ADD15O,1.500000X2.500000*%
%TD*%
%TA.AperFunction,SMDPad,CuDef*%
%ADD16RoundRect,0.250000X-0.262500X-0.450000X0.262500X-0.450000X0.262500X0.450000X-0.262500X0.450000X0*%
%TD*%
%TA.AperFunction,ComponentPad*%
%ADD17R,1.700000X1.700000*%
%TD*%
%TA.AperFunction,ComponentPad*%
%ADD18C,1.700000*%
%TD*%
%TA.AperFunction,ComponentPad*%
%ADD19R,1.730000X2.030000*%
%TD*%
%TA.AperFunction,ComponentPad*%
%ADD20O,1.730000X2.030000*%
%TD*%
%TA.AperFunction,ComponentPad*%
%ADD21R,1.800000X1.800000*%
%TD*%
%TA.AperFunction,ComponentPad*%
%ADD22C,1.800000*%
%TD*%
%TA.AperFunction,ViaPad*%
%ADD23C,0.600000*%
%TD*%
%TA.AperFunction,Conductor*%
%ADD24C,0.200000*%
%TD*%
G04 APERTURE END LIST*
D10*
X110000000Y-35500000D02*
X170000000Y-35500000D01*
X170000000Y-87000000D01*
X110000000Y-87000000D01*
X110000000Y-35500000D01*
D11*
%TO.P,U1,1,GND_1*%
%TO.N,GND*%
X112925000Y-45875000D03*
D12*
%TO.P,U1,2,3V3_2*%
%TO.N,3V3*%
X112925000Y-48415000D03*
%TO.P,U1,3,3V3_3*%
X112925000Y-50955000D03*
%TO.P,U1,4,GPIO2_4*%
%TO.N,unconnected-(U1-GPIO2-Pad4)*%
X112925000Y-53495000D03*
%TO.P,U1,5,GPIO3_5*%
%TO.N,unconnected-(U1-GPIO3-Pad5)*%
X112925000Y-56035000D03*
%TO.P,U1,6,GND_6*%
%TO.N,GND*%
X112925000Y-58575000D03*
%TO.P,U1,7,RST_7*%
%TO.N,unconnected-(U1-RST-Pad7)*%
X112925000Y-61115000D03*
%TO.P,U1,8,GND_8*%
%TO.N,GND*%
X112925000Y-63655000D03*
%TO.P,U1,9,GPIO0_9*%
%TO.N,unconnected-(U1-GPIO0-Pad9)*%
X112925000Y-66195000D03*
%TO.P,U1,10,GPIO1_10*%
%TO.N,unconnected-(U1-GPIO1-Pad10)*%
X112925000Y-68735000D03*
%TO.P,U1,11,GPIO10_11*%
%TO.N,unconnected-(U1-GPIO10-Pad11)*%
X112925000Y-71275000D03*
%TO.P,U1,12,GND_12*%
%TO.N,GND*%
X112925000Y-73815000D03*
%TO.P,U1,13,5V_13*%
%TO.N,+3V3*%
X112925000Y-76355000D03*
%TO.P,U1,14,5V_14*%
X112925000Y-78895000D03*
%TO.P,U1,15,GND_15*%
%TO.N,GND*%
X112925000Y-81435000D03*
%TO.P,U1,16,GND_16*%
X135785000Y-81435000D03*
%TO.P,U1,17,GPIO19/USB_D-_17*%
%TO.N,unconnected-(U1-GPIO19{slash}USB_D--Pad17)*%
X135785000Y-78895000D03*
%TO.P,U1,18,GPIO18/USB_D+_18*%
%TO.N,unconnected-(U1-GPIO18{slash}USB_D+-Pad18)*%
X135785000Y-76355000D03*
%TO.P,U1,19,GND_19*%
%TO.N,GND*%
X135785000Y-73815000D03*
%TO.P,U1,20,GPIO4_20*%
%TO.N,/esp 13\u002Csh 3*%
X135785000Y-71275000D03*
%TO.P,U1,21,GPIO5_21*%
%TO.N,unconnected-(U1-GPIO5-Pad21)*%
X135785000Y-68735000D03*
%TO.P,U1,22,GPIO6_22*%
%TO.N,/esp 21\u002Crfid 3*%
X135785000Y-66195000D03*
%TO.P,U1,23,GPIO7_23*%
%TO.N,/esp 22\u002Crfid 4*%
X135785000Y-63655000D03*
%TO.P,U1,24,GND_24*%
%TO.N,GND*%
X135785000Y-61115000D03*
%TO.P,U1,25,GPIO8_25*%
%TO.N,unconnected-(U1-GPIO8-Pad25)*%
X135785000Y-58575000D03*
%TO.P,U1,26,GPIO9_26*%
%TO.N,unconnected-(U1-GPIO9-Pad26)*%
X135785000Y-56035000D03*
%TO.P,U1,27,GND_27*%
%TO.N,GND*%
X135785000Y-53495000D03*
%TO.P,U1,28,GPIO20/U0RXD_28*%
%TO.N,unconnected-(U1-GPIO20{slash}U0RXD-Pad28)*%
X135785000Y-50955000D03*
%TO.P,U1,29,GPIO21/U0TXD_29*%
%TO.N,unconnected-(U1-GPIO21{slash}U0TXD-Pad29)*%
X135785000Y-48415000D03*
%TO.P,U1,30,GND_30*%
%TO.N,GND*%
X135785000Y-45875000D03*
%TD*%
D13*
%TO.P,SW3,*%
%TO.N,*%
X151300000Y-58500000D03*
X159500000Y-58500000D03*
D14*
%TO.P,SW3,1,A_1*%
%TO.N,/tp 2 \u002Cpwr\u002C1*%
X153400000Y-58500000D03*
D15*
%TO.P,SW3,2,B_2*%
%TO.N,3V3*%
X155400000Y-58500000D03*
%TO.P,SW3,3,C_3*%
%TO.N,unconnected-(SW3-C-Pad3)*%
X157400000Y-58500000D03*
%TD*%
D16*
%TO.P,R4,1*%
%TO.N,+3V3*%
X151675000Y-52000000D03*
%TO.P,R4,2*%
%TO.N,Net-(D2-A)*%
X153500000Y-52000000D03*
%TD*%
%TO.P,R3,1*%
%TO.N,+3V3*%
X151675000Y-46500000D03*
%TO.P,R3,2*%
%TO.N,Net-(D1-A)*%
X153500000Y-46500000D03*
%TD*%
D17*
%TO.P,J7,1,Pin_1_1*%
%TO.N,GND*%
X140005000Y-40295000D03*
D18*
%TO.P,J7,2,Pin_2_2*%
%TO.N,/tp 2 \u002Cpwr\u002C1*%
X140005000Y-42835000D03*
%TO.P,J7,3,Pin_3_3*%
%TO.N,GND*%
X140005000Y-45375000D03*
%TO.P,J7,4,Pin_4_4*%
%TO.N,/jst 1\u002C tp 4*%
X140005000Y-47915000D03*
%TO.P,J7,5,Pin_5_5*%
%TO.N,GND*%
X140005000Y-50455000D03*
%TO.P,J7,6,Pin_6_6*%
X140005000Y-52995000D03*
%TD*%
D17*
%TO.P,J5,1,Pin_1_1*%
%TO.N,/jst 1\u002C tp 4*%
X144595000Y-48195000D03*
D18*
%TO.P,J5,2,Pin_2_2*%
%TO.N,GND*%
X144595000Y-50735000D03*
%TD*%
D19*
%TO.P,J2,1,Pin_1_1*%
%TO.N,GND*%
X161420000Y-47500000D03*
D20*
%TO.P,J2,2,Pin_2_2*%
%TO.N,3V3*%
X163960000Y-47500000D03*
%TO.P,J2,3,Pin_3_3*%
%TO.N,/esp 13\u002Csh 3*%
X166500000Y-47500000D03*
%TD*%
D17*
%TO.P,J1,1,Pin_1_1*%
%TO.N,+3V3*%
X140005000Y-68035000D03*
D18*
%TO.P,J1,2,Pin_2_2*%
%TO.N,GND*%
X140005000Y-70575000D03*
%TO.P,J1,3,Pin_3_3*%
%TO.N,/esp 21\u002Crfid 3*%
X140005000Y-73115000D03*
%TO.P,J1,4,Pin_4_4*%
%TO.N,/esp 22\u002Crfid 4*%
X140005000Y-75655000D03*
%TD*%
D21*
%TO.P,D2,1,K_1*%
%TO.N,GND*%
X149960000Y-74500000D03*
D22*
%TO.P,D2,2,A_2*%
%TO.N,Net-(D2-A)*%
X152500000Y-74500000D03*
%TD*%
D21*
%TO.P,D1,1,K_1*%
%TO.N,GND*%
X143960000Y-74500000D03*
D22*
%TO.P,D1,2,A_2*%
%TO.N,Net-(D1-A)*%
X146500000Y-74500000D03*
%TD*%
D23*
%TO.N,/esp 21\u002Crfid 3*%
X137964264Y-73464265D03*
%TO.N,3V3*%
X150674265Y-55674265D03*
%TO.N,/esp 13\u002Csh 3*%
X161500000Y-65000000D03*
%TO.N,3V3*%
X161500000Y-59081378D03*
%TO.N,/tp 2 \u002Cpwr\u002C1*%
X161500000Y-60500000D03*
%TD*%
%TO.N,/esp 21\u002Crfid 3*%
D24*
X137964264Y-73181421D02*
X137964264Y-73464265D01*
X138030685Y-73115000D02*
X137964264Y-73181421D01*
X140005000Y-73115000D02*
X138030685Y-73115000D01*
%TO.N,/esp 22\u002Crfid 4*%
X134735000Y-74249925D02*
X134735000Y-64705000D01*
X135350075Y-74865000D02*
X134735000Y-74249925D01*
X139215000Y-74865000D02*
X135350075Y-74865000D01*
X134735000Y-64705000D02*
X135785000Y-63655000D01*
X140005000Y-75655000D02*
X139215000Y-74865000D01*
%TO.N,/jst 1\u002C tp 4*%
X144595000Y-48195000D02*
X140285000Y-48195000D01*
X140285000Y-48195000D02*
X140005000Y-47915000D01*
%TO.N,GND*%
X112925000Y-81435000D02*
X135785000Y-81435000D01*
X111875000Y-80385000D02*
X112925000Y-81435000D01*
X111875000Y-74865000D02*
X111875000Y-80385000D01*
X112925000Y-73815000D02*
X111875000Y-74865000D01*
X114000000Y-72740000D02*
X112925000Y-73815000D01*
X112925000Y-63655000D02*
X114000000Y-64730000D01*
X114000000Y-64730000D02*
X114000000Y-72740000D01*
X113975000Y-59625000D02*
X113975000Y-62605000D01*
X113975000Y-62605000D02*
X112925000Y-63655000D01*
X112925000Y-58575000D02*
X113975000Y-59625000D01*
%TO.N,+3V3*%
X145745000Y-62295000D02*
X140005000Y-68035000D01*
X145745000Y-50258654D02*
X145745000Y-62295000D01*
X145071346Y-49585000D02*
X145745000Y-50258654D01*
X140761346Y-49585000D02*
X145071346Y-49585000D01*
X140481346Y-49305000D02*
X140761346Y-49585000D01*
X139528654Y-49305000D02*
X140481346Y-49305000D01*
X136388654Y-52445000D02*
X139528654Y-49305000D01*
X135350075Y-52445000D02*
X136388654Y-52445000D01*
X119495000Y-68300075D02*
X135350075Y-52445000D01*
X119495000Y-69785000D02*
X119495000Y-68300075D01*
X112925000Y-76355000D02*
X119495000Y-69785000D01*
X140005000Y-63670000D02*
X140005000Y-68035000D01*
X151675000Y-52000000D02*
X140005000Y-63670000D01*
%TO.N,3V3*%
X154174265Y-55674265D02*
X150674265Y-55674265D01*
X155400000Y-56900000D02*
X154174265Y-55674265D01*
X155400000Y-58500000D02*
X155400000Y-56900000D01*
%TO.N,/esp 13\u002Csh 3*%
X164262743Y-65000000D02*
X161500000Y-65000000D01*
X166500000Y-62762743D02*
X164262743Y-65000000D01*
X166500000Y-47500000D02*
X166500000Y-62762743D01*
%TO.N,3V3*%
X163960000Y-56621378D02*
X161500000Y-59081378D01*
X163960000Y-47500000D02*
X163960000Y-56621378D01*
%TO.N,/tp 2 \u002Cpwr\u002C1*%
X165335000Y-56665000D02*
X161500000Y-60500000D01*
X165335000Y-46867441D02*
X165335000Y-56665000D01*
X161302559Y-42835000D02*
X165335000Y-46867441D01*
X140005000Y-42835000D02*
X161302559Y-42835000D01*
%TO.N,GND*%
X134500000Y-59830000D02*
X135785000Y-61115000D01*
X134500000Y-54780000D02*
X134500000Y-59830000D01*
X135785000Y-53495000D02*
X134500000Y-54780000D01*
X136835000Y-67405000D02*
X140005000Y-70575000D01*
X136835000Y-62165000D02*
X136835000Y-67405000D01*
X135785000Y-61115000D02*
X136835000Y-62165000D01*
X136765000Y-73815000D02*
X135785000Y-73815000D01*
X140005000Y-70575000D02*
X136765000Y-73815000D01*
X143930000Y-74500000D02*
X140005000Y-70575000D01*
X143960000Y-74500000D02*
X143930000Y-74500000D01*
X145160000Y-73300000D02*
X143960000Y-74500000D01*
X148760000Y-73300000D02*
X145160000Y-73300000D01*
X149960000Y-74500000D02*
X148760000Y-73300000D01*
%TO.N,Net-(D1-A)*%
X147700000Y-75700000D02*
X146500000Y-74500000D01*
X160900000Y-53900000D02*
X160900000Y-67797057D01*
X153500000Y-46500000D02*
X160900000Y-53900000D01*
X160900000Y-67797057D02*
X152997057Y-75700000D01*
X152997057Y-75700000D02*
X147700000Y-75700000D01*
%TO.N,+3V3*%
X151675000Y-52000000D02*
X151675000Y-46500000D01*
%TO.N,Net-(D2-A)*%
X149900000Y-71900000D02*
X152500000Y-74500000D01*
X149900000Y-55600000D02*
X149900000Y-71900000D01*
X153500000Y-52000000D02*
X149900000Y-55600000D01*
%TO.N,GND*%
X140005000Y-45375000D02*
X159295000Y-45375000D01*
X159295000Y-45375000D02*
X161420000Y-47500000D01*
X144315000Y-50455000D02*
X144595000Y-50735000D01*
X140005000Y-50455000D02*
X144315000Y-50455000D01*
X140005000Y-40295000D02*
X135785000Y-44515000D01*
X135785000Y-44515000D02*
X135785000Y-45875000D01*
X140005000Y-45375000D02*
X136285000Y-45375000D01*
X136285000Y-45375000D02*
X135785000Y-45875000D01*
X140005000Y-50455000D02*
X140005000Y-52995000D01*
X139505000Y-53495000D02*
X140005000Y-52995000D01*
X135785000Y-53495000D02*
X139505000Y-53495000D01*
%TO.N,3V3*%
X112925000Y-50955000D02*
X112925000Y-48415000D01*
%TO.N,GND*%
X113975000Y-57525000D02*
X112925000Y-58575000D01*
X113975000Y-46925000D02*
X113975000Y-57525000D01*
X112925000Y-45875000D02*
X113975000Y-46925000D01*
X112925000Y-45875000D02*
X135785000Y-45875000D01*
%TD*%
M02*
