ISO-10303-21;
HEADER;
/* Generated by software containing ST-Developer
 * from STEP Tools, Inc. (www.steptools.com) 
 */
/* OPTION: using custom renumber hook */

FILE_DESCRIPTION(
/* description */ ('STEP AP242 Edition 2',
'CAx-IF Rec.Pracs.---Representation and Presentation of Product Manufa
cturing Information (PMI)---4.0---2014-10-13',
'CAx-IF Rec.Pracs.---3D Tessellated Geometry---0.4---2014-09-14','2;1',
'CAx-IF Rec.Pracs.---User Defined Attributes---1.5---2016-08-15'),
/* implementation_level */ '2;1');

FILE_NAME(
/* name */ 'Part Studio 3',
/* time_stamp */ '2026-05-22T21:03:45Z',
/* author */ (''),
/* organization */ (''),
/* preprocessor_version */ 'ST-DEVELOPER v20',
/* originating_system */ 'ONSHAPE BY PTC INC, 1.215',
/* authorisation */ '  ');

FILE_SCHEMA (('AP242_MANAGED_MODEL_BASED_3D_ENGINEERING_MIM_LF { 1 0 10303 442 3 1 4 }'));
ENDSEC;

DATA;
#10=SHAPE_REPRESENTATION_RELATIONSHIP('','',#1218,#11);
#11=ADVANCED_BREP_SHAPE_REPRESENTATION('',(#1216),#1983);
#12=SPHERICAL_SURFACE('',#1291,0.001);
#13=SPHERICAL_SURFACE('',#1299,0.001);
#14=SPHERICAL_SURFACE('',#1305,0.001);
#15=ELLIPSE('',#1280,0.00141421356237309,0.001);
#16=ELLIPSE('',#1282,0.00141421356237309,0.001);
#17=ELLIPSE('',#1285,0.00141421356237309,0.001);
#18=ELLIPSE('',#1294,0.00141421356237309,0.001);
#19=ELLIPSE('',#1304,0.00141421356237309,0.001);
#20=ELLIPSE('',#1308,0.00141421356237309,0.001);
#21=ELLIPSE('',#1310,0.00141421356237309,0.001);
#22=CYLINDRICAL_SURFACE('',#1247,0.0007);
#23=CYLINDRICAL_SURFACE('',#1279,0.001);
#24=CYLINDRICAL_SURFACE('',#1281,0.001);
#25=CYLINDRICAL_SURFACE('',#1283,0.001);
#26=CYLINDRICAL_SURFACE('',#1284,0.001);
#27=CYLINDRICAL_SURFACE('',#1286,0.001);
#28=CYLINDRICAL_SURFACE('',#1288,0.001);
#29=CYLINDRICAL_SURFACE('',#1293,0.001);
#30=CYLINDRICAL_SURFACE('',#1295,0.001);
#31=CYLINDRICAL_SURFACE('',#1297,0.001);
#32=CYLINDRICAL_SURFACE('',#1301,0.001);
#33=CYLINDRICAL_SURFACE('',#1303,0.001);
#34=CYLINDRICAL_SURFACE('',#1307,0.001);
#35=CYLINDRICAL_SURFACE('',#1309,0.001);
#36=CYLINDRICAL_SURFACE('',#1311,0.001);
#37=CIRCLE('',#1223,0.001);
#38=CIRCLE('',#1224,0.001);
#39=CIRCLE('',#1227,0.001);
#40=CIRCLE('',#1235,0.001);
#41=CIRCLE('',#1240,0.0007);
#42=CIRCLE('',#1248,0.0007);
#43=CIRCLE('',#1251,0.001);
#44=CIRCLE('',#1263,0.001);
#45=CIRCLE('',#1272,0.001);
#46=CIRCLE('',#1274,0.001);
#47=CIRCLE('',#1287,0.001);
#48=CIRCLE('',#1289,0.001);
#49=CIRCLE('',#1290,0.001);
#50=CIRCLE('',#1292,0.001);
#51=CIRCLE('',#1296,0.001);
#52=CIRCLE('',#1298,0.001);
#53=CIRCLE('',#1300,0.001);
#54=CIRCLE('',#1302,0.001);
#55=CIRCLE('',#1306,0.001);
#56=ORIENTED_EDGE('',*,*,#392,.F.);
#57=ORIENTED_EDGE('',*,*,#393,.T.);
#58=ORIENTED_EDGE('',*,*,#394,.T.);
#59=ORIENTED_EDGE('',*,*,#395,.F.);
#60=ORIENTED_EDGE('',*,*,#396,.F.);
#61=ORIENTED_EDGE('',*,*,#397,.T.);
#62=ORIENTED_EDGE('',*,*,#398,.T.);
#63=ORIENTED_EDGE('',*,*,#399,.T.);
#64=ORIENTED_EDGE('',*,*,#400,.T.);
#65=ORIENTED_EDGE('',*,*,#401,.T.);
#66=ORIENTED_EDGE('',*,*,#402,.F.);
#67=ORIENTED_EDGE('',*,*,#403,.T.);
#68=ORIENTED_EDGE('',*,*,#404,.T.);
#69=ORIENTED_EDGE('',*,*,#405,.F.);
#70=ORIENTED_EDGE('',*,*,#406,.T.);
#71=ORIENTED_EDGE('',*,*,#407,.F.);
#72=ORIENTED_EDGE('',*,*,#400,.F.);
#73=ORIENTED_EDGE('',*,*,#408,.T.);
#74=ORIENTED_EDGE('',*,*,#409,.F.);
#75=ORIENTED_EDGE('',*,*,#410,.T.);
#76=ORIENTED_EDGE('',*,*,#411,.T.);
#77=ORIENTED_EDGE('',*,*,#405,.T.);
#78=ORIENTED_EDGE('',*,*,#412,.F.);
#79=ORIENTED_EDGE('',*,*,#413,.T.);
#80=ORIENTED_EDGE('',*,*,#414,.T.);
#81=ORIENTED_EDGE('',*,*,#415,.F.);
#82=ORIENTED_EDGE('',*,*,#416,.T.);
#83=ORIENTED_EDGE('',*,*,#417,.T.);
#84=ORIENTED_EDGE('',*,*,#418,.T.);
#85=ORIENTED_EDGE('',*,*,#419,.F.);
#86=ORIENTED_EDGE('',*,*,#420,.F.);
#87=ORIENTED_EDGE('',*,*,#421,.T.);
#88=ORIENTED_EDGE('',*,*,#422,.T.);
#89=ORIENTED_EDGE('',*,*,#423,.T.);
#90=ORIENTED_EDGE('',*,*,#392,.T.);
#91=ORIENTED_EDGE('',*,*,#424,.T.);
#92=ORIENTED_EDGE('',*,*,#425,.T.);
#93=ORIENTED_EDGE('',*,*,#426,.F.);
#94=ORIENTED_EDGE('',*,*,#427,.T.);
#95=ORIENTED_EDGE('',*,*,#428,.T.);
#96=ORIENTED_EDGE('',*,*,#429,.F.);
#97=ORIENTED_EDGE('',*,*,#430,.F.);
#98=ORIENTED_EDGE('',*,*,#431,.F.);
#99=ORIENTED_EDGE('',*,*,#432,.T.);
#100=ORIENTED_EDGE('',*,*,#433,.T.);
#101=ORIENTED_EDGE('',*,*,#425,.F.);
#102=ORIENTED_EDGE('',*,*,#434,.T.);
#103=ORIENTED_EDGE('',*,*,#435,.F.);
#104=ORIENTED_EDGE('',*,*,#436,.F.);
#105=ORIENTED_EDGE('',*,*,#437,.F.);
#106=ORIENTED_EDGE('',*,*,#438,.F.);
#107=ORIENTED_EDGE('',*,*,#439,.F.);
#108=ORIENTED_EDGE('',*,*,#440,.F.);
#109=ORIENTED_EDGE('',*,*,#441,.T.);
#110=ORIENTED_EDGE('',*,*,#442,.F.);
#111=ORIENTED_EDGE('',*,*,#443,.F.);
#112=ORIENTED_EDGE('',*,*,#444,.T.);
#113=ORIENTED_EDGE('',*,*,#445,.T.);
#114=ORIENTED_EDGE('',*,*,#446,.T.);
#115=ORIENTED_EDGE('',*,*,#447,.T.);
#116=ORIENTED_EDGE('',*,*,#419,.T.);
#117=ORIENTED_EDGE('',*,*,#448,.F.);
#118=ORIENTED_EDGE('',*,*,#449,.F.);
#119=ORIENTED_EDGE('',*,*,#450,.F.);
#120=ORIENTED_EDGE('',*,*,#451,.F.);
#121=ORIENTED_EDGE('',*,*,#452,.T.);
#122=ORIENTED_EDGE('',*,*,#441,.F.);
#123=ORIENTED_EDGE('',*,*,#453,.F.);
#124=ORIENTED_EDGE('',*,*,#454,.T.);
#125=ORIENTED_EDGE('',*,*,#420,.T.);
#126=ORIENTED_EDGE('',*,*,#447,.F.);
#127=ORIENTED_EDGE('',*,*,#455,.T.);
#128=ORIENTED_EDGE('',*,*,#456,.T.);
#129=ORIENTED_EDGE('',*,*,#457,.F.);
#130=ORIENTED_EDGE('',*,*,#458,.T.);
#131=ORIENTED_EDGE('',*,*,#459,.T.);
#132=ORIENTED_EDGE('',*,*,#460,.T.);
#133=ORIENTED_EDGE('',*,*,#461,.T.);
#134=ORIENTED_EDGE('',*,*,#462,.T.);
#135=ORIENTED_EDGE('',*,*,#463,.F.);
#136=ORIENTED_EDGE('',*,*,#464,.T.);
#137=ORIENTED_EDGE('',*,*,#465,.T.);
#138=ORIENTED_EDGE('',*,*,#443,.T.);
#139=ORIENTED_EDGE('',*,*,#457,.T.);
#140=ORIENTED_EDGE('',*,*,#466,.T.);
#141=ORIENTED_EDGE('',*,*,#467,.F.);
#142=ORIENTED_EDGE('',*,*,#468,.T.);
#143=ORIENTED_EDGE('',*,*,#467,.T.);
#144=ORIENTED_EDGE('',*,*,#469,.T.);
#145=ORIENTED_EDGE('',*,*,#470,.T.);
#146=ORIENTED_EDGE('',*,*,#471,.T.);
#147=ORIENTED_EDGE('',*,*,#472,.F.);
#148=ORIENTED_EDGE('',*,*,#429,.T.);
#149=ORIENTED_EDGE('',*,*,#473,.T.);
#150=ORIENTED_EDGE('',*,*,#474,.T.);
#151=ORIENTED_EDGE('',*,*,#475,.F.);
#152=ORIENTED_EDGE('',*,*,#476,.F.);
#153=ORIENTED_EDGE('',*,*,#475,.T.);
#154=ORIENTED_EDGE('',*,*,#477,.T.);
#155=ORIENTED_EDGE('',*,*,#478,.T.);
#156=ORIENTED_EDGE('',*,*,#459,.F.);
#157=ORIENTED_EDGE('',*,*,#479,.F.);
#158=ORIENTED_EDGE('',*,*,#468,.F.);
#159=ORIENTED_EDGE('',*,*,#476,.T.);
#160=ORIENTED_EDGE('',*,*,#479,.T.);
#161=ORIENTED_EDGE('',*,*,#458,.F.);
#162=ORIENTED_EDGE('',*,*,#421,.F.);
#163=ORIENTED_EDGE('',*,*,#454,.F.);
#164=ORIENTED_EDGE('',*,*,#480,.T.);
#165=ORIENTED_EDGE('',*,*,#481,.T.);
#166=ORIENTED_EDGE('',*,*,#482,.F.);
#167=ORIENTED_EDGE('',*,*,#416,.F.);
#168=ORIENTED_EDGE('',*,*,#481,.F.);
#169=ORIENTED_EDGE('',*,*,#483,.T.);
#170=ORIENTED_EDGE('',*,*,#439,.T.);
#171=ORIENTED_EDGE('',*,*,#484,.F.);
#172=ORIENTED_EDGE('',*,*,#485,.F.);
#173=ORIENTED_EDGE('',*,*,#480,.F.);
#174=ORIENTED_EDGE('',*,*,#453,.T.);
#175=ORIENTED_EDGE('',*,*,#440,.T.);
#176=ORIENTED_EDGE('',*,*,#483,.F.);
#177=ORIENTED_EDGE('',*,*,#451,.T.);
#178=ORIENTED_EDGE('',*,*,#486,.T.);
#179=ORIENTED_EDGE('',*,*,#464,.F.);
#180=ORIENTED_EDGE('',*,*,#487,.F.);
#181=ORIENTED_EDGE('',*,*,#463,.T.);
#182=ORIENTED_EDGE('',*,*,#442,.T.);
#183=ORIENTED_EDGE('',*,*,#452,.F.);
#184=ORIENTED_EDGE('',*,*,#487,.T.);
#185=ORIENTED_EDGE('',*,*,#444,.F.);
#186=ORIENTED_EDGE('',*,*,#465,.F.);
#187=ORIENTED_EDGE('',*,*,#486,.F.);
#188=ORIENTED_EDGE('',*,*,#450,.T.);
#189=ORIENTED_EDGE('',*,*,#488,.F.);
#190=ORIENTED_EDGE('',*,*,#489,.T.);
#191=ORIENTED_EDGE('',*,*,#445,.F.);
#192=ORIENTED_EDGE('',*,*,#489,.F.);
#193=ORIENTED_EDGE('',*,*,#490,.T.);
#194=ORIENTED_EDGE('',*,*,#491,.T.);
#195=ORIENTED_EDGE('',*,*,#446,.F.);
#196=ORIENTED_EDGE('',*,*,#491,.F.);
#197=ORIENTED_EDGE('',*,*,#492,.T.);
#198=ORIENTED_EDGE('',*,*,#448,.T.);
#199=ORIENTED_EDGE('',*,*,#490,.F.);
#200=ORIENTED_EDGE('',*,*,#488,.T.);
#201=ORIENTED_EDGE('',*,*,#449,.T.);
#202=ORIENTED_EDGE('',*,*,#492,.F.);
#203=ORIENTED_EDGE('',*,*,#485,.T.);
#204=ORIENTED_EDGE('',*,*,#493,.T.);
#205=ORIENTED_EDGE('',*,*,#493,.F.);
#206=ORIENTED_EDGE('',*,*,#474,.F.);
#207=ORIENTED_EDGE('',*,*,#494,.T.);
#208=ORIENTED_EDGE('',*,*,#409,.T.);
#209=ORIENTED_EDGE('',*,*,#404,.F.);
#210=ORIENTED_EDGE('',*,*,#495,.F.);
#211=ORIENTED_EDGE('',*,*,#496,.F.);
#212=ORIENTED_EDGE('',*,*,#497,.T.);
#213=ORIENTED_EDGE('',*,*,#498,.T.);
#214=ORIENTED_EDGE('',*,*,#499,.F.);
#215=ORIENTED_EDGE('',*,*,#500,.T.);
#216=ORIENTED_EDGE('',*,*,#501,.T.);
#217=ORIENTED_EDGE('',*,*,#477,.F.);
#218=ORIENTED_EDGE('',*,*,#502,.T.);
#219=ORIENTED_EDGE('',*,*,#503,.T.);
#220=ORIENTED_EDGE('',*,*,#504,.T.);
#221=ORIENTED_EDGE('',*,*,#500,.F.);
#222=ORIENTED_EDGE('',*,*,#413,.F.);
#223=ORIENTED_EDGE('',*,*,#505,.F.);
#224=ORIENTED_EDGE('',*,*,#506,.T.);
#225=ORIENTED_EDGE('',*,*,#507,.T.);
#226=ORIENTED_EDGE('',*,*,#412,.T.);
#227=ORIENTED_EDGE('',*,*,#508,.F.);
#228=ORIENTED_EDGE('',*,*,#509,.F.);
#229=ORIENTED_EDGE('',*,*,#505,.T.);
#230=ORIENTED_EDGE('',*,*,#415,.T.);
#231=ORIENTED_EDGE('',*,*,#510,.F.);
#232=ORIENTED_EDGE('',*,*,#511,.F.);
#233=ORIENTED_EDGE('',*,*,#508,.T.);
#234=ORIENTED_EDGE('',*,*,#414,.F.);
#235=ORIENTED_EDGE('',*,*,#507,.F.);
#236=ORIENTED_EDGE('',*,*,#512,.T.);
#237=ORIENTED_EDGE('',*,*,#510,.T.);
#238=ORIENTED_EDGE('',*,*,#506,.F.);
#239=ORIENTED_EDGE('',*,*,#509,.T.);
#240=ORIENTED_EDGE('',*,*,#511,.T.);
#241=ORIENTED_EDGE('',*,*,#512,.F.);
#242=ORIENTED_EDGE('',*,*,#513,.F.);
#243=ORIENTED_EDGE('',*,*,#484,.T.);
#244=ORIENTED_EDGE('',*,*,#438,.T.);
#245=ORIENTED_EDGE('',*,*,#514,.F.);
#246=ORIENTED_EDGE('',*,*,#417,.F.);
#247=ORIENTED_EDGE('',*,*,#482,.T.);
#248=ORIENTED_EDGE('',*,*,#513,.T.);
#249=ORIENTED_EDGE('',*,*,#515,.T.);
#250=ORIENTED_EDGE('',*,*,#418,.F.);
#251=ORIENTED_EDGE('',*,*,#515,.F.);
#252=ORIENTED_EDGE('',*,*,#514,.T.);
#253=ORIENTED_EDGE('',*,*,#437,.T.);
#254=ORIENTED_EDGE('',*,*,#430,.T.);
#255=ORIENTED_EDGE('',*,*,#472,.T.);
#256=ORIENTED_EDGE('',*,*,#516,.F.);
#257=ORIENTED_EDGE('',*,*,#517,.T.);
#258=ORIENTED_EDGE('',*,*,#470,.F.);
#259=ORIENTED_EDGE('',*,*,#518,.T.);
#260=ORIENTED_EDGE('',*,*,#432,.F.);
#261=ORIENTED_EDGE('',*,*,#519,.F.);
#262=ORIENTED_EDGE('',*,*,#520,.T.);
#263=ORIENTED_EDGE('',*,*,#471,.F.);
#264=ORIENTED_EDGE('',*,*,#520,.F.);
#265=ORIENTED_EDGE('',*,*,#521,.T.);
#266=ORIENTED_EDGE('',*,*,#516,.T.);
#267=ORIENTED_EDGE('',*,*,#431,.T.);
#268=ORIENTED_EDGE('',*,*,#517,.F.);
#269=ORIENTED_EDGE('',*,*,#521,.F.);
#270=ORIENTED_EDGE('',*,*,#519,.T.);
#271=ORIENTED_EDGE('',*,*,#522,.T.);
#272=ORIENTED_EDGE('',*,*,#523,.T.);
#273=ORIENTED_EDGE('',*,*,#524,.T.);
#274=ORIENTED_EDGE('',*,*,#525,.T.);
#275=ORIENTED_EDGE('',*,*,#436,.T.);
#276=ORIENTED_EDGE('',*,*,#526,.F.);
#277=ORIENTED_EDGE('',*,*,#527,.F.);
#278=ORIENTED_EDGE('',*,*,#426,.T.);
#279=ORIENTED_EDGE('',*,*,#435,.T.);
#280=ORIENTED_EDGE('',*,*,#528,.F.);
#281=ORIENTED_EDGE('',*,*,#529,.F.);
#282=ORIENTED_EDGE('',*,*,#526,.T.);
#283=ORIENTED_EDGE('',*,*,#434,.F.);
#284=ORIENTED_EDGE('',*,*,#424,.F.);
#285=ORIENTED_EDGE('',*,*,#395,.T.);
#286=ORIENTED_EDGE('',*,*,#528,.T.);
#287=ORIENTED_EDGE('',*,*,#527,.T.);
#288=ORIENTED_EDGE('',*,*,#530,.T.);
#289=ORIENTED_EDGE('',*,*,#531,.T.);
#290=ORIENTED_EDGE('',*,*,#427,.F.);
#291=ORIENTED_EDGE('',*,*,#532,.F.);
#292=ORIENTED_EDGE('',*,*,#533,.T.);
#293=ORIENTED_EDGE('',*,*,#396,.T.);
#294=ORIENTED_EDGE('',*,*,#534,.T.);
#295=ORIENTED_EDGE('',*,*,#498,.F.);
#296=ORIENTED_EDGE('',*,*,#401,.F.);
#297=ORIENTED_EDGE('',*,*,#407,.T.);
#298=ORIENTED_EDGE('',*,*,#535,.T.);
#299=ORIENTED_EDGE('',*,*,#536,.T.);
#300=ORIENTED_EDGE('',*,*,#502,.F.);
#301=ORIENTED_EDGE('',*,*,#499,.T.);
#302=ORIENTED_EDGE('',*,*,#534,.F.);
#303=ORIENTED_EDGE('',*,*,#537,.F.);
#304=ORIENTED_EDGE('',*,*,#538,.T.);
#305=ORIENTED_EDGE('',*,*,#532,.T.);
#306=ORIENTED_EDGE('',*,*,#497,.F.);
#307=ORIENTED_EDGE('',*,*,#539,.F.);
#308=ORIENTED_EDGE('',*,*,#540,.T.);
#309=ORIENTED_EDGE('',*,*,#402,.T.);
#310=ORIENTED_EDGE('',*,*,#541,.F.);
#311=ORIENTED_EDGE('',*,*,#542,.F.);
#312=ORIENTED_EDGE('',*,*,#543,.T.);
#313=ORIENTED_EDGE('',*,*,#537,.T.);
#314=ORIENTED_EDGE('',*,*,#496,.T.);
#315=ORIENTED_EDGE('',*,*,#403,.F.);
#316=ORIENTED_EDGE('',*,*,#540,.F.);
#317=ORIENTED_EDGE('',*,*,#542,.T.);
#318=ORIENTED_EDGE('',*,*,#495,.T.);
#319=ORIENTED_EDGE('',*,*,#533,.F.);
#320=ORIENTED_EDGE('',*,*,#538,.F.);
#321=ORIENTED_EDGE('',*,*,#544,.F.);
#322=ORIENTED_EDGE('',*,*,#397,.F.);
#323=ORIENTED_EDGE('',*,*,#408,.F.);
#324=ORIENTED_EDGE('',*,*,#399,.F.);
#325=ORIENTED_EDGE('',*,*,#545,.F.);
#326=ORIENTED_EDGE('',*,*,#541,.T.);
#327=ORIENTED_EDGE('',*,*,#543,.F.);
#328=ORIENTED_EDGE('',*,*,#539,.T.);
#329=ORIENTED_EDGE('',*,*,#545,.T.);
#330=ORIENTED_EDGE('',*,*,#398,.F.);
#331=ORIENTED_EDGE('',*,*,#544,.T.);
#332=ORIENTED_EDGE('',*,*,#478,.F.);
#333=ORIENTED_EDGE('',*,*,#501,.F.);
#334=ORIENTED_EDGE('',*,*,#546,.F.);
#335=ORIENTED_EDGE('',*,*,#460,.F.);
#336=ORIENTED_EDGE('',*,*,#546,.T.);
#337=ORIENTED_EDGE('',*,*,#504,.F.);
#338=ORIENTED_EDGE('',*,*,#547,.F.);
#339=ORIENTED_EDGE('',*,*,#461,.F.);
#340=ORIENTED_EDGE('',*,*,#524,.F.);
#341=ORIENTED_EDGE('',*,*,#548,.T.);
#342=ORIENTED_EDGE('',*,*,#462,.F.);
#343=ORIENTED_EDGE('',*,*,#549,.F.);
#344=ORIENTED_EDGE('',*,*,#549,.T.);
#345=ORIENTED_EDGE('',*,*,#547,.T.);
#346=ORIENTED_EDGE('',*,*,#550,.F.);
#347=ORIENTED_EDGE('',*,*,#503,.F.);
#348=ORIENTED_EDGE('',*,*,#536,.F.);
#349=ORIENTED_EDGE('',*,*,#551,.F.);
#350=ORIENTED_EDGE('',*,*,#525,.F.);
#351=ORIENTED_EDGE('',*,*,#550,.T.);
#352=ORIENTED_EDGE('',*,*,#411,.F.);
#353=ORIENTED_EDGE('',*,*,#552,.T.);
#354=ORIENTED_EDGE('',*,*,#522,.F.);
#355=ORIENTED_EDGE('',*,*,#551,.T.);
#356=ORIENTED_EDGE('',*,*,#535,.F.);
#357=ORIENTED_EDGE('',*,*,#406,.F.);
#358=ORIENTED_EDGE('',*,*,#553,.F.);
#359=ORIENTED_EDGE('',*,*,#410,.F.);
#360=ORIENTED_EDGE('',*,*,#494,.F.);
#361=ORIENTED_EDGE('',*,*,#473,.F.);
#362=ORIENTED_EDGE('',*,*,#428,.F.);
#363=ORIENTED_EDGE('',*,*,#531,.F.);
#364=ORIENTED_EDGE('',*,*,#552,.F.);
#365=ORIENTED_EDGE('',*,*,#553,.T.);
#366=ORIENTED_EDGE('',*,*,#554,.F.);
#367=ORIENTED_EDGE('',*,*,#529,.T.);
#368=ORIENTED_EDGE('',*,*,#394,.F.);
#369=ORIENTED_EDGE('',*,*,#555,.F.);
#370=ORIENTED_EDGE('',*,*,#523,.F.);
#371=ORIENTED_EDGE('',*,*,#554,.T.);
#372=ORIENTED_EDGE('',*,*,#530,.F.);
#373=ORIENTED_EDGE('',*,*,#518,.F.);
#374=ORIENTED_EDGE('',*,*,#469,.F.);
#375=ORIENTED_EDGE('',*,*,#556,.F.);
#376=ORIENTED_EDGE('',*,*,#433,.F.);
#377=ORIENTED_EDGE('',*,*,#548,.F.);
#378=ORIENTED_EDGE('',*,*,#555,.T.);
#379=ORIENTED_EDGE('',*,*,#557,.F.);
#380=ORIENTED_EDGE('',*,*,#556,.T.);
#381=ORIENTED_EDGE('',*,*,#466,.F.);
#382=ORIENTED_EDGE('',*,*,#558,.F.);
#383=ORIENTED_EDGE('',*,*,#422,.F.);
#384=ORIENTED_EDGE('',*,*,#557,.T.);
#385=ORIENTED_EDGE('',*,*,#393,.F.);
#386=ORIENTED_EDGE('',*,*,#559,.F.);
#387=ORIENTED_EDGE('',*,*,#455,.F.);
#388=ORIENTED_EDGE('',*,*,#558,.T.);
#389=ORIENTED_EDGE('',*,*,#456,.F.);
#390=ORIENTED_EDGE('',*,*,#559,.T.);
#391=ORIENTED_EDGE('',*,*,#423,.F.);
#392=EDGE_CURVE('',#560,#561,#667,.T.);
#393=EDGE_CURVE('',#560,#562,#668,.F.);
#394=EDGE_CURVE('',#562,#563,#669,.T.);
#395=EDGE_CURVE('',#561,#563,#670,.T.);
#396=EDGE_CURVE('',#564,#565,#671,.T.);
#397=EDGE_CURVE('',#564,#566,#672,.F.);
#398=EDGE_CURVE('',#566,#567,#673,.T.);
#399=EDGE_CURVE('',#567,#568,#674,.T.);
#400=EDGE_CURVE('',#568,#569,#675,.T.);
#401=EDGE_CURVE('',#569,#565,#676,.T.);
#402=EDGE_CURVE('',#570,#571,#677,.T.);
#403=EDGE_CURVE('',#570,#572,#678,.T.);
#404=EDGE_CURVE('',#572,#573,#679,.T.);
#405=EDGE_CURVE('',#574,#573,#680,.T.);
#406=EDGE_CURVE('',#574,#575,#37,.F.);
#407=EDGE_CURVE('',#569,#575,#681,.T.);
#408=EDGE_CURVE('',#568,#571,#38,.F.);
#409=EDGE_CURVE('',#576,#573,#682,.T.);
#410=EDGE_CURVE('',#576,#577,#683,.F.);
#411=EDGE_CURVE('',#577,#574,#684,.T.);
#412=EDGE_CURVE('',#578,#579,#685,.T.);
#413=EDGE_CURVE('',#578,#580,#686,.T.);
#414=EDGE_CURVE('',#580,#581,#687,.T.);
#415=EDGE_CURVE('',#579,#581,#688,.T.);
#416=EDGE_CURVE('',#582,#583,#689,.T.);
#417=EDGE_CURVE('',#583,#584,#690,.T.);
#418=EDGE_CURVE('',#584,#585,#691,.T.);
#419=EDGE_CURVE('',#586,#585,#692,.T.);
#420=EDGE_CURVE('',#587,#586,#693,.T.);
#421=EDGE_CURVE('',#587,#582,#694,.T.);
#422=EDGE_CURVE('',#588,#589,#695,.T.);
#423=EDGE_CURVE('',#589,#560,#696,.T.);
#424=EDGE_CURVE('',#561,#590,#697,.T.);
#425=EDGE_CURVE('',#590,#591,#698,.T.);
#426=EDGE_CURVE('',#592,#591,#699,.T.);
#427=EDGE_CURVE('',#592,#593,#700,.T.);
#428=EDGE_CURVE('',#593,#594,#39,.T.);
#429=EDGE_CURVE('',#595,#594,#701,.T.);
#430=EDGE_CURVE('',#596,#595,#702,.T.);
#431=EDGE_CURVE('',#597,#596,#703,.T.);
#432=EDGE_CURVE('',#597,#598,#704,.T.);
#433=EDGE_CURVE('',#598,#588,#705,.F.);
#434=EDGE_CURVE('',#590,#599,#706,.T.);
#435=EDGE_CURVE('',#600,#599,#707,.T.);
#436=EDGE_CURVE('',#591,#600,#708,.T.);
#437=EDGE_CURVE('',#601,#585,#709,.T.);
#438=EDGE_CURVE('',#602,#601,#710,.T.);
#439=EDGE_CURVE('',#603,#602,#711,.T.);
#440=EDGE_CURVE('',#604,#603,#712,.T.);
#441=EDGE_CURVE('',#604,#605,#713,.T.);
#442=EDGE_CURVE('',#606,#605,#714,.T.);
#443=EDGE_CURVE('',#607,#606,#715,.T.);
#444=EDGE_CURVE('',#607,#608,#716,.T.);
#445=EDGE_CURVE('',#608,#609,#717,.T.);
#446=EDGE_CURVE('',#609,#610,#718,.T.);
#447=EDGE_CURVE('',#610,#586,#719,.T.);
#448=EDGE_CURVE('',#611,#610,#720,.T.);
#449=EDGE_CURVE('',#612,#611,#721,.T.);
#450=EDGE_CURVE('',#613,#612,#722,.T.);
#451=EDGE_CURVE('',#614,#613,#723,.T.);
#452=EDGE_CURVE('',#614,#605,#724,.T.);
#453=EDGE_CURVE('',#615,#604,#725,.T.);
#454=EDGE_CURVE('',#615,#587,#726,.T.);
#455=EDGE_CURVE('',#616,#617,#727,.T.);
#456=EDGE_CURVE('',#617,#618,#728,.F.);
#457=EDGE_CURVE('',#619,#618,#729,.T.);
#458=EDGE_CURVE('',#619,#620,#730,.T.);
#459=EDGE_CURVE('',#620,#621,#731,.T.);
#460=EDGE_CURVE('',#621,#622,#732,.F.);
#461=EDGE_CURVE('',#622,#623,#733,.T.);
#462=EDGE_CURVE('',#623,#616,#734,.F.);
#463=EDGE_CURVE('',#624,#606,#735,.T.);
#464=EDGE_CURVE('',#624,#625,#736,.T.);
#465=EDGE_CURVE('',#625,#607,#737,.T.);
#466=EDGE_CURVE('',#618,#626,#738,.F.);
#467=EDGE_CURVE('',#627,#626,#739,.T.);
#468=EDGE_CURVE('',#627,#619,#740,.T.);
#469=EDGE_CURVE('',#626,#628,#741,.T.);
#470=EDGE_CURVE('',#628,#629,#742,.T.);
#471=EDGE_CURVE('',#629,#630,#743,.T.);
#472=EDGE_CURVE('',#595,#630,#744,.T.);
#473=EDGE_CURVE('',#594,#631,#745,.T.);
#474=EDGE_CURVE('',#631,#632,#746,.T.);
#475=EDGE_CURVE('',#633,#632,#747,.T.);
#476=EDGE_CURVE('',#627,#633,#748,.T.);
#477=EDGE_CURVE('',#632,#634,#749,.T.);
#478=EDGE_CURVE('',#634,#621,#40,.T.);
#479=EDGE_CURVE('',#633,#620,#750,.T.);
#480=EDGE_CURVE('',#615,#635,#751,.T.);
#481=EDGE_CURVE('',#635,#582,#752,.T.);
#482=EDGE_CURVE('',#583,#636,#753,.T.);
#483=EDGE_CURVE('',#635,#603,#754,.T.);
#484=EDGE_CURVE('',#636,#602,#755,.T.);
#485=EDGE_CURVE('',#637,#637,#41,.T.);
#486=EDGE_CURVE('',#613,#625,#756,.T.);
#487=EDGE_CURVE('',#614,#624,#757,.T.);
#488=EDGE_CURVE('',#638,#612,#758,.T.);
#489=EDGE_CURVE('',#638,#608,#759,.T.);
#490=EDGE_CURVE('',#638,#639,#760,.T.);
#491=EDGE_CURVE('',#639,#609,#761,.T.);
#492=EDGE_CURVE('',#639,#611,#762,.T.);
#493=EDGE_CURVE('',#640,#640,#42,.T.);
#494=EDGE_CURVE('',#631,#576,#43,.T.);
#495=EDGE_CURVE('',#641,#572,#763,.T.);
#496=EDGE_CURVE('',#642,#641,#764,.T.);
#497=EDGE_CURVE('',#642,#643,#765,.T.);
#498=EDGE_CURVE('',#643,#644,#766,.T.);
#499=EDGE_CURVE('',#645,#644,#767,.T.);
#500=EDGE_CURVE('',#645,#646,#768,.T.);
#501=EDGE_CURVE('',#646,#634,#769,.T.);
#502=EDGE_CURVE('',#645,#647,#770,.T.);
#503=EDGE_CURVE('',#647,#648,#771,.T.);
#504=EDGE_CURVE('',#648,#646,#772,.F.);
#505=EDGE_CURVE('',#649,#578,#773,.T.);
#506=EDGE_CURVE('',#649,#650,#774,.T.);
#507=EDGE_CURVE('',#650,#580,#775,.T.);
#508=EDGE_CURVE('',#651,#579,#776,.T.);
#509=EDGE_CURVE('',#649,#651,#777,.T.);
#510=EDGE_CURVE('',#652,#581,#778,.T.);
#511=EDGE_CURVE('',#651,#652,#779,.T.);
#512=EDGE_CURVE('',#650,#652,#780,.T.);
#513=EDGE_CURVE('',#636,#653,#781,.T.);
#514=EDGE_CURVE('',#653,#601,#782,.T.);
#515=EDGE_CURVE('',#653,#584,#783,.T.);
#516=EDGE_CURVE('',#654,#630,#784,.T.);
#517=EDGE_CURVE('',#654,#596,#785,.T.);
#518=EDGE_CURVE('',#628,#598,#44,.F.);
#519=EDGE_CURVE('',#655,#597,#786,.T.);
#520=EDGE_CURVE('',#655,#629,#787,.T.);
#521=EDGE_CURVE('',#655,#654,#788,.T.);
#522=EDGE_CURVE('',#656,#657,#789,.F.);
#523=EDGE_CURVE('',#657,#658,#790,.F.);
#524=EDGE_CURVE('',#658,#659,#791,.T.);
#525=EDGE_CURVE('',#659,#656,#792,.F.);
#526=EDGE_CURVE('',#660,#600,#793,.T.);
#527=EDGE_CURVE('',#592,#660,#794,.T.);
#528=EDGE_CURVE('',#563,#599,#795,.T.);
#529=EDGE_CURVE('',#660,#563,#796,.T.);
#530=EDGE_CURVE('',#660,#661,#797,.T.);
#531=EDGE_CURVE('',#661,#593,#798,.T.);
#532=EDGE_CURVE('',#662,#643,#799,.T.);
#533=EDGE_CURVE('',#662,#564,#45,.F.);
#534=EDGE_CURVE('',#565,#644,#800,.T.);
#535=EDGE_CURVE('',#575,#663,#801,.F.);
#536=EDGE_CURVE('',#663,#647,#46,.T.);
#537=EDGE_CURVE('',#664,#642,#802,.T.);
#538=EDGE_CURVE('',#664,#662,#803,.T.);
#539=EDGE_CURVE('',#665,#666,#804,.T.);
#540=EDGE_CURVE('',#665,#570,#805,.T.);
#541=EDGE_CURVE('',#666,#571,#806,.T.);
#542=EDGE_CURVE('',#665,#641,#807,.T.);
#543=EDGE_CURVE('',#665,#664,#808,.F.);
#544=EDGE_CURVE('',#566,#664,#15,.F.);
#545=EDGE_CURVE('',#666,#567,#16,.F.);
#546=EDGE_CURVE('',#622,#646,#17,.F.);
#547=EDGE_CURVE('',#623,#648,#47,.T.);
#548=EDGE_CURVE('',#658,#616,#48,.T.);
#549=EDGE_CURVE('',#659,#623,#49,.T.);
#550=EDGE_CURVE('',#659,#648,#50,.F.);
#551=EDGE_CURVE('',#656,#663,#18,.F.);
#552=EDGE_CURVE('',#577,#657,#51,.T.);
#553=EDGE_CURVE('',#577,#661,#52,.T.);
#554=EDGE_CURVE('',#657,#661,#53,.T.);
#555=EDGE_CURVE('',#658,#562,#54,.T.);
#556=EDGE_CURVE('',#588,#626,#19,.F.);
#557=EDGE_CURVE('',#616,#562,#55,.T.);
#558=EDGE_CURVE('',#589,#618,#20,.F.);
#559=EDGE_CURVE('',#617,#560,#21,.T.);
#560=VERTEX_POINT('',#1643);
#561=VERTEX_POINT('',#1644);
#562=VERTEX_POINT('',#1646);
#563=VERTEX_POINT('',#1648);
#564=VERTEX_POINT('',#1652);
#565=VERTEX_POINT('',#1653);
#566=VERTEX_POINT('',#1655);
#567=VERTEX_POINT('',#1657);
#568=VERTEX_POINT('',#1659);
#569=VERTEX_POINT('',#1661);
#570=VERTEX_POINT('',#1665);
#571=VERTEX_POINT('',#1666);
#572=VERTEX_POINT('',#1668);
#573=VERTEX_POINT('',#1670);
#574=VERTEX_POINT('',#1672);
#575=VERTEX_POINT('',#1674);
#576=VERTEX_POINT('',#1679);
#577=VERTEX_POINT('',#1681);
#578=VERTEX_POINT('',#1685);
#579=VERTEX_POINT('',#1686);
#580=VERTEX_POINT('',#1688);
#581=VERTEX_POINT('',#1690);
#582=VERTEX_POINT('',#1693);
#583=VERTEX_POINT('',#1694);
#584=VERTEX_POINT('',#1696);
#585=VERTEX_POINT('',#1698);
#586=VERTEX_POINT('',#1700);
#587=VERTEX_POINT('',#1702);
#588=VERTEX_POINT('',#1705);
#589=VERTEX_POINT('',#1706);
#590=VERTEX_POINT('',#1709);
#591=VERTEX_POINT('',#1711);
#592=VERTEX_POINT('',#1713);
#593=VERTEX_POINT('',#1715);
#594=VERTEX_POINT('',#1717);
#595=VERTEX_POINT('',#1719);
#596=VERTEX_POINT('',#1721);
#597=VERTEX_POINT('',#1723);
#598=VERTEX_POINT('',#1725);
#599=VERTEX_POINT('',#1729);
#600=VERTEX_POINT('',#1731);
#601=VERTEX_POINT('',#1735);
#602=VERTEX_POINT('',#1737);
#603=VERTEX_POINT('',#1739);
#604=VERTEX_POINT('',#1741);
#605=VERTEX_POINT('',#1743);
#606=VERTEX_POINT('',#1745);
#607=VERTEX_POINT('',#1747);
#608=VERTEX_POINT('',#1749);
#609=VERTEX_POINT('',#1751);
#610=VERTEX_POINT('',#1753);
#611=VERTEX_POINT('',#1757);
#612=VERTEX_POINT('',#1759);
#613=VERTEX_POINT('',#1761);
#614=VERTEX_POINT('',#1763);
#615=VERTEX_POINT('',#1766);
#616=VERTEX_POINT('',#1770);
#617=VERTEX_POINT('',#1771);
#618=VERTEX_POINT('',#1773);
#619=VERTEX_POINT('',#1775);
#620=VERTEX_POINT('',#1777);
#621=VERTEX_POINT('',#1779);
#622=VERTEX_POINT('',#1781);
#623=VERTEX_POINT('',#1783);
#624=VERTEX_POINT('',#1786);
#625=VERTEX_POINT('',#1788);
#626=VERTEX_POINT('',#1792);
#627=VERTEX_POINT('',#1794);
#628=VERTEX_POINT('',#1798);
#629=VERTEX_POINT('',#1800);
#630=VERTEX_POINT('',#1802);
#631=VERTEX_POINT('',#1805);
#632=VERTEX_POINT('',#1807);
#633=VERTEX_POINT('',#1809);
#634=VERTEX_POINT('',#1813);
#635=VERTEX_POINT('',#1819);
#636=VERTEX_POINT('',#1823);
#637=VERTEX_POINT('',#1828);
#638=VERTEX_POINT('',#1835);
#639=VERTEX_POINT('',#1839);
#640=VERTEX_POINT('',#1846);
#641=VERTEX_POINT('',#1851);
#642=VERTEX_POINT('',#1853);
#643=VERTEX_POINT('',#1855);
#644=VERTEX_POINT('',#1857);
#645=VERTEX_POINT('',#1859);
#646=VERTEX_POINT('',#1861);
#647=VERTEX_POINT('',#1865);
#648=VERTEX_POINT('',#1867);
#649=VERTEX_POINT('',#1871);
#650=VERTEX_POINT('',#1873);
#651=VERTEX_POINT('',#1877);
#652=VERTEX_POINT('',#1881);
#653=VERTEX_POINT('',#1888);
#654=VERTEX_POINT('',#1895);
#655=VERTEX_POINT('',#1900);
#656=VERTEX_POINT('',#1907);
#657=VERTEX_POINT('',#1908);
#658=VERTEX_POINT('',#1910);
#659=VERTEX_POINT('',#1912);
#660=VERTEX_POINT('',#1916);
#661=VERTEX_POINT('',#1924);
#662=VERTEX_POINT('',#1928);
#663=VERTEX_POINT('',#1933);
#664=VERTEX_POINT('',#1937);
#665=VERTEX_POINT('',#1941);
#666=VERTEX_POINT('',#1942);
#667=LINE('',#1642,#809);
#668=LINE('',#1645,#810);
#669=LINE('',#1647,#811);
#670=LINE('',#1649,#812);
#671=LINE('',#1651,#813);
#672=LINE('',#1654,#814);
#673=LINE('',#1656,#815);
#674=LINE('',#1658,#816);
#675=LINE('',#1660,#817);
#676=LINE('',#1662,#818);
#677=LINE('',#1664,#819);
#678=LINE('',#1667,#820);
#679=LINE('',#1669,#821);
#680=LINE('',#1671,#822);
#681=LINE('',#1675,#823);
#682=LINE('',#1678,#824);
#683=LINE('',#1680,#825);
#684=LINE('',#1682,#826);
#685=LINE('',#1684,#827);
#686=LINE('',#1687,#828);
#687=LINE('',#1689,#829);
#688=LINE('',#1691,#830);
#689=LINE('',#1692,#831);
#690=LINE('',#1695,#832);
#691=LINE('',#1697,#833);
#692=LINE('',#1699,#834);
#693=LINE('',#1701,#835);
#694=LINE('',#1703,#836);
#695=LINE('',#1704,#837);
#696=LINE('',#1707,#838);
#697=LINE('',#1708,#839);
#698=LINE('',#1710,#840);
#699=LINE('',#1712,#841);
#700=LINE('',#1714,#842);
#701=LINE('',#1718,#843);
#702=LINE('',#1720,#844);
#703=LINE('',#1722,#845);
#704=LINE('',#1724,#846);
#705=LINE('',#1726,#847);
#706=LINE('',#1728,#848);
#707=LINE('',#1730,#849);
#708=LINE('',#1732,#850);
#709=LINE('',#1734,#851);
#710=LINE('',#1736,#852);
#711=LINE('',#1738,#853);
#712=LINE('',#1740,#854);
#713=LINE('',#1742,#855);
#714=LINE('',#1744,#856);
#715=LINE('',#1746,#857);
#716=LINE('',#1748,#858);
#717=LINE('',#1750,#859);
#718=LINE('',#1752,#860);
#719=LINE('',#1754,#861);
#720=LINE('',#1756,#862);
#721=LINE('',#1758,#863);
#722=LINE('',#1760,#864);
#723=LINE('',#1762,#865);
#724=LINE('',#1764,#866);
#725=LINE('',#1765,#867);
#726=LINE('',#1767,#868);
#727=LINE('',#1769,#869);
#728=LINE('',#1772,#870);
#729=LINE('',#1774,#871);
#730=LINE('',#1776,#872);
#731=LINE('',#1778,#873);
#732=LINE('',#1780,#874);
#733=LINE('',#1782,#875);
#734=LINE('',#1784,#876);
#735=LINE('',#1785,#877);
#736=LINE('',#1787,#878);
#737=LINE('',#1789,#879);
#738=LINE('',#1791,#880);
#739=LINE('',#1793,#881);
#740=LINE('',#1795,#882);
#741=LINE('',#1797,#883);
#742=LINE('',#1799,#884);
#743=LINE('',#1801,#885);
#744=LINE('',#1803,#886);
#745=LINE('',#1804,#887);
#746=LINE('',#1806,#888);
#747=LINE('',#1808,#889);
#748=LINE('',#1810,#890);
#749=LINE('',#1812,#891);
#750=LINE('',#1815,#892);
#751=LINE('',#1818,#893);
#752=LINE('',#1820,#894);
#753=LINE('',#1822,#895);
#754=LINE('',#1824,#896);
#755=LINE('',#1825,#897);
#756=LINE('',#1830,#898);
#757=LINE('',#1831,#899);
#758=LINE('',#1834,#900);
#759=LINE('',#1836,#901);
#760=LINE('',#1838,#902);
#761=LINE('',#1840,#903);
#762=LINE('',#1842,#904);
#763=LINE('',#1850,#905);
#764=LINE('',#1852,#906);
#765=LINE('',#1854,#907);
#766=LINE('',#1856,#908);
#767=LINE('',#1858,#909);
#768=LINE('',#1860,#910);
#769=LINE('',#1862,#911);
#770=LINE('',#1864,#912);
#771=LINE('',#1866,#913);
#772=LINE('',#1868,#914);
#773=LINE('',#1870,#915);
#774=LINE('',#1872,#916);
#775=LINE('',#1874,#917);
#776=LINE('',#1876,#918);
#777=LINE('',#1878,#919);
#778=LINE('',#1880,#920);
#779=LINE('',#1882,#921);
#780=LINE('',#1884,#922);
#781=LINE('',#1887,#923);
#782=LINE('',#1889,#924);
#783=LINE('',#1891,#925);
#784=LINE('',#1894,#926);
#785=LINE('',#1896,#927);
#786=LINE('',#1899,#928);
#787=LINE('',#1901,#929);
#788=LINE('',#1903,#930);
#789=LINE('',#1906,#931);
#790=LINE('',#1909,#932);
#791=LINE('',#1911,#933);
#792=LINE('',#1913,#934);
#793=LINE('',#1915,#935);
#794=LINE('',#1917,#936);
#795=LINE('',#1919,#937);
#796=LINE('',#1920,#938);
#797=LINE('',#1923,#939);
#798=LINE('',#1925,#940);
#799=LINE('',#1927,#941);
#800=LINE('',#1930,#942);
#801=LINE('',#1932,#943);
#802=LINE('',#1936,#944);
#803=LINE('',#1938,#945);
#804=LINE('',#1940,#946);
#805=LINE('',#1943,#947);
#806=LINE('',#1944,#948);
#807=LINE('',#1946,#949);
#808=LINE('',#1947,#950);
#809=VECTOR('',#1316,1.);
#810=VECTOR('',#1317,1.);
#811=VECTOR('',#1318,1.);
#812=VECTOR('',#1319,1.);
#813=VECTOR('',#1322,1.);
#814=VECTOR('',#1323,1.);
#815=VECTOR('',#1324,1.);
#816=VECTOR('',#1325,1.);
#817=VECTOR('',#1326,1.);
#818=VECTOR('',#1327,1.);
#819=VECTOR('',#1330,1.);
#820=VECTOR('',#1331,1.);
#821=VECTOR('',#1332,1.);
#822=VECTOR('',#1333,1.);
#823=VECTOR('',#1336,1.);
#824=VECTOR('',#1341,1.);
#825=VECTOR('',#1342,1.);
#826=VECTOR('',#1343,1.);
#827=VECTOR('',#1346,1.);
#828=VECTOR('',#1347,1.);
#829=VECTOR('',#1348,1.);
#830=VECTOR('',#1349,1.);
#831=VECTOR('',#1350,1.);
#832=VECTOR('',#1351,1.);
#833=VECTOR('',#1352,1.);
#834=VECTOR('',#1353,1.);
#835=VECTOR('',#1354,1.);
#836=VECTOR('',#1355,1.);
#837=VECTOR('',#1356,1.);
#838=VECTOR('',#1357,1.);
#839=VECTOR('',#1358,1.);
#840=VECTOR('',#1359,1.);
#841=VECTOR('',#1360,1.);
#842=VECTOR('',#1361,1.);
#843=VECTOR('',#1364,1.);
#844=VECTOR('',#1365,1.);
#845=VECTOR('',#1366,1.);
#846=VECTOR('',#1367,1.);
#847=VECTOR('',#1368,1.);
#848=VECTOR('',#1371,1.);
#849=VECTOR('',#1372,1.);
#850=VECTOR('',#1373,1.);
#851=VECTOR('',#1376,1.);
#852=VECTOR('',#1377,1.);
#853=VECTOR('',#1378,1.);
#854=VECTOR('',#1379,1.);
#855=VECTOR('',#1380,1.);
#856=VECTOR('',#1381,1.);
#857=VECTOR('',#1382,1.);
#858=VECTOR('',#1383,1.);
#859=VECTOR('',#1384,1.);
#860=VECTOR('',#1385,1.);
#861=VECTOR('',#1386,1.);
#862=VECTOR('',#1389,1.);
#863=VECTOR('',#1390,1.);
#864=VECTOR('',#1391,1.);
#865=VECTOR('',#1392,1.);
#866=VECTOR('',#1393,1.);
#867=VECTOR('',#1394,1.);
#868=VECTOR('',#1395,1.);
#869=VECTOR('',#1398,1.);
#870=VECTOR('',#1399,1.);
#871=VECTOR('',#1400,1.);
#872=VECTOR('',#1401,1.);
#873=VECTOR('',#1402,1.);
#874=VECTOR('',#1403,1.);
#875=VECTOR('',#1404,1.);
#876=VECTOR('',#1405,1.);
#877=VECTOR('',#1406,1.);
#878=VECTOR('',#1407,1.);
#879=VECTOR('',#1408,1.);
#880=VECTOR('',#1411,1.);
#881=VECTOR('',#1412,1.);
#882=VECTOR('',#1413,1.);
#883=VECTOR('',#1416,1.);
#884=VECTOR('',#1417,1.);
#885=VECTOR('',#1418,1.);
#886=VECTOR('',#1419,1.);
#887=VECTOR('',#1420,1.);
#888=VECTOR('',#1421,1.);
#889=VECTOR('',#1422,1.);
#890=VECTOR('',#1423,1.);
#891=VECTOR('',#1426,1.);
#892=VECTOR('',#1429,1.);
#893=VECTOR('',#1434,1.);
#894=VECTOR('',#1435,1.);
#895=VECTOR('',#1438,1.);
#896=VECTOR('',#1439,1.);
#897=VECTOR('',#1440,1.);
#898=VECTOR('',#1447,1.);
#899=VECTOR('',#1448,1.);
#900=VECTOR('',#1453,1.);
#901=VECTOR('',#1454,1.);
#902=VECTOR('',#1457,1.);
#903=VECTOR('',#1458,1.);
#904=VECTOR('',#1461,1.);
#905=VECTOR('',#1474,1.);
#906=VECTOR('',#1475,1.);
#907=VECTOR('',#1476,1.);
#908=VECTOR('',#1477,1.);
#909=VECTOR('',#1478,1.);
#910=VECTOR('',#1479,1.);
#911=VECTOR('',#1480,1.);
#912=VECTOR('',#1483,1.);
#913=VECTOR('',#1484,1.);
#914=VECTOR('',#1485,1.);
#915=VECTOR('',#1488,1.);
#916=VECTOR('',#1489,1.);
#917=VECTOR('',#1490,1.);
#918=VECTOR('',#1493,1.);
#919=VECTOR('',#1494,1.);
#920=VECTOR('',#1497,1.);
#921=VECTOR('',#1498,1.);
#922=VECTOR('',#1501,1.);
#923=VECTOR('',#1506,1.);
#924=VECTOR('',#1507,1.);
#925=VECTOR('',#1510,1.);
#926=VECTOR('',#1515,1.);
#927=VECTOR('',#1516,1.);
#928=VECTOR('',#1521,1.);
#929=VECTOR('',#1522,1.);
#930=VECTOR('',#1525,1.);
#931=VECTOR('',#1530,1.);
#932=VECTOR('',#1531,1.);
#933=VECTOR('',#1532,1.);
#934=VECTOR('',#1533,1.);
#935=VECTOR('',#1536,1.);
#936=VECTOR('',#1537,1.);
#937=VECTOR('',#1540,1.);
#938=VECTOR('',#1541,1.);
#939=VECTOR('',#1546,1.);
#940=VECTOR('',#1547,1.);
#941=VECTOR('',#1550,1.);
#942=VECTOR('',#1553,1.);
#943=VECTOR('',#1556,1.);
#944=VECTOR('',#1561,1.);
#945=VECTOR('',#1562,1.);
#946=VECTOR('',#1565,1.);
#947=VECTOR('',#1566,1.);
#948=VECTOR('',#1567,1.);
#949=VECTOR('',#1570,1.);
#950=VECTOR('',#1571,1.);
#951=EDGE_LOOP('',(#56,#57,#58,#59));
#952=EDGE_LOOP('',(#60,#61,#62,#63,#64,#65));
#953=EDGE_LOOP('',(#66,#67,#68,#69,#70,#71,#72,#73));
#954=EDGE_LOOP('',(#74,#75,#76,#77));
#955=EDGE_LOOP('',(#78,#79,#80,#81));
#956=EDGE_LOOP('',(#82,#83,#84,#85,#86,#87));
#957=EDGE_LOOP('',(#88,#89,#90,#91,#92,#93,#94,#95,#96,#97,#98,#99,#100));
#958=EDGE_LOOP('',(#101,#102,#103,#104));
#959=EDGE_LOOP('',(#105,#106,#107,#108,#109,#110,#111,#112,#113,#114,#115,
#116));
#960=EDGE_LOOP('',(#117,#118,#119,#120,#121,#122,#123,#124,#125,#126));
#961=EDGE_LOOP('',(#127,#128,#129,#130,#131,#132,#133,#134));
#962=EDGE_LOOP('',(#135,#136,#137,#138));
#963=EDGE_LOOP('',(#139,#140,#141,#142));
#964=EDGE_LOOP('',(#143,#144,#145,#146,#147,#148,#149,#150,#151,#152));
#965=EDGE_LOOP('',(#153,#154,#155,#156,#157));
#966=EDGE_LOOP('',(#158,#159,#160,#161));
#967=EDGE_LOOP('',(#162,#163,#164,#165));
#968=EDGE_LOOP('',(#166,#167,#168,#169,#170,#171));
#969=EDGE_LOOP('',(#172));
#970=EDGE_LOOP('',(#173,#174,#175,#176));
#971=EDGE_LOOP('',(#177,#178,#179,#180));
#972=EDGE_LOOP('',(#181,#182,#183,#184));
#973=EDGE_LOOP('',(#185,#186,#187,#188,#189,#190));
#974=EDGE_LOOP('',(#191,#192,#193,#194));
#975=EDGE_LOOP('',(#195,#196,#197,#198));
#976=EDGE_LOOP('',(#199,#200,#201,#202));
#977=EDGE_LOOP('',(#203));
#978=EDGE_LOOP('',(#204));
#979=EDGE_LOOP('',(#205));
#980=EDGE_LOOP('',(#206,#207,#208,#209,#210,#211,#212,#213,#214,#215,#216,
#217));
#981=EDGE_LOOP('',(#218,#219,#220,#221));
#982=EDGE_LOOP('',(#222,#223,#224,#225));
#983=EDGE_LOOP('',(#226,#227,#228,#229));
#984=EDGE_LOOP('',(#230,#231,#232,#233));
#985=EDGE_LOOP('',(#234,#235,#236,#237));
#986=EDGE_LOOP('',(#238,#239,#240,#241));
#987=EDGE_LOOP('',(#242,#243,#244,#245));
#988=EDGE_LOOP('',(#246,#247,#248,#249));
#989=EDGE_LOOP('',(#250,#251,#252,#253));
#990=EDGE_LOOP('',(#254,#255,#256,#257));
#991=EDGE_LOOP('',(#258,#259,#260,#261,#262));
#992=EDGE_LOOP('',(#263,#264,#265,#266));
#993=EDGE_LOOP('',(#267,#268,#269,#270));
#994=EDGE_LOOP('',(#271,#272,#273,#274));
#995=EDGE_LOOP('',(#275,#276,#277,#278));
#996=EDGE_LOOP('',(#279,#280,#281,#282));
#997=EDGE_LOOP('',(#283,#284,#285,#286));
#998=EDGE_LOOP('',(#287,#288,#289,#290));
#999=EDGE_LOOP('',(#291,#292,#293,#294,#295));
#1000=EDGE_LOOP('',(#296,#297,#298,#299,#300,#301,#302));
#1001=EDGE_LOOP('',(#303,#304,#305,#306));
#1002=EDGE_LOOP('',(#307,#308,#309,#310));
#1003=EDGE_LOOP('',(#311,#312,#313,#314));
#1004=EDGE_LOOP('',(#315,#316,#317,#318));
#1005=EDGE_LOOP('',(#319,#320,#321,#322));
#1006=EDGE_LOOP('',(#323,#324,#325,#326));
#1007=EDGE_LOOP('',(#327,#328,#329,#330,#331));
#1008=EDGE_LOOP('',(#332,#333,#334,#335));
#1009=EDGE_LOOP('',(#336,#337,#338,#339));
#1010=EDGE_LOOP('',(#340,#341,#342,#343));
#1011=EDGE_LOOP('',(#344,#345,#346));
#1012=EDGE_LOOP('',(#347,#348,#349,#350,#351));
#1013=EDGE_LOOP('',(#352,#353,#354,#355,#356,#357));
#1014=EDGE_LOOP('',(#358,#359,#360,#361,#362,#363));
#1015=EDGE_LOOP('',(#364,#365,#366));
#1016=EDGE_LOOP('',(#367,#368,#369,#370,#371,#372));
#1017=EDGE_LOOP('',(#373,#374,#375,#376));
#1018=EDGE_LOOP('',(#377,#378,#379));
#1019=EDGE_LOOP('',(#380,#381,#382,#383));
#1020=EDGE_LOOP('',(#384,#385,#386,#387));
#1021=EDGE_LOOP('',(#388,#389,#390,#391));
#1022=FACE_BOUND('',#951,.T.);
#1023=FACE_BOUND('',#952,.T.);
#1024=FACE_BOUND('',#953,.T.);
#1025=FACE_BOUND('',#954,.T.);
#1026=FACE_BOUND('',#955,.T.);
#1027=FACE_BOUND('',#956,.T.);
#1028=FACE_BOUND('',#957,.T.);
#1029=FACE_BOUND('',#958,.T.);
#1030=FACE_BOUND('',#959,.T.);
#1031=FACE_BOUND('',#960,.T.);
#1032=FACE_BOUND('',#961,.T.);
#1033=FACE_BOUND('',#962,.T.);
#1034=FACE_BOUND('',#963,.T.);
#1035=FACE_BOUND('',#964,.T.);
#1036=FACE_BOUND('',#965,.T.);
#1037=FACE_BOUND('',#966,.T.);
#1038=FACE_BOUND('',#967,.T.);
#1039=FACE_BOUND('',#968,.T.);
#1040=FACE_BOUND('',#969,.T.);
#1041=FACE_BOUND('',#970,.T.);
#1042=FACE_BOUND('',#971,.T.);
#1043=FACE_BOUND('',#972,.T.);
#1044=FACE_BOUND('',#973,.T.);
#1045=FACE_BOUND('',#974,.T.);
#1046=FACE_BOUND('',#975,.T.);
#1047=FACE_BOUND('',#976,.T.);
#1048=FACE_BOUND('',#977,.T.);
#1049=FACE_BOUND('',#978,.T.);
#1050=FACE_BOUND('',#979,.T.);
#1051=FACE_BOUND('',#980,.T.);
#1052=FACE_BOUND('',#981,.T.);
#1053=FACE_BOUND('',#982,.T.);
#1054=FACE_BOUND('',#983,.T.);
#1055=FACE_BOUND('',#984,.T.);
#1056=FACE_BOUND('',#985,.T.);
#1057=FACE_BOUND('',#986,.T.);
#1058=FACE_BOUND('',#987,.T.);
#1059=FACE_BOUND('',#988,.T.);
#1060=FACE_BOUND('',#989,.T.);
#1061=FACE_BOUND('',#990,.T.);
#1062=FACE_BOUND('',#991,.T.);
#1063=FACE_BOUND('',#992,.T.);
#1064=FACE_BOUND('',#993,.T.);
#1065=FACE_BOUND('',#994,.T.);
#1066=FACE_BOUND('',#995,.T.);
#1067=FACE_BOUND('',#996,.T.);
#1068=FACE_BOUND('',#997,.T.);
#1069=FACE_BOUND('',#998,.T.);
#1070=FACE_BOUND('',#999,.T.);
#1071=FACE_BOUND('',#1000,.T.);
#1072=FACE_BOUND('',#1001,.T.);
#1073=FACE_BOUND('',#1002,.T.);
#1074=FACE_BOUND('',#1003,.T.);
#1075=FACE_BOUND('',#1004,.T.);
#1076=FACE_BOUND('',#1005,.T.);
#1077=FACE_BOUND('',#1006,.T.);
#1078=FACE_BOUND('',#1007,.T.);
#1079=FACE_BOUND('',#1008,.T.);
#1080=FACE_BOUND('',#1009,.T.);
#1081=FACE_BOUND('',#1010,.T.);
#1082=FACE_BOUND('',#1011,.T.);
#1083=FACE_BOUND('',#1012,.T.);
#1084=FACE_BOUND('',#1013,.T.);
#1085=FACE_BOUND('',#1014,.T.);
#1086=FACE_BOUND('',#1015,.T.);
#1087=FACE_BOUND('',#1016,.T.);
#1088=FACE_BOUND('',#1017,.T.);
#1089=FACE_BOUND('',#1018,.T.);
#1090=FACE_BOUND('',#1019,.T.);
#1091=FACE_BOUND('',#1020,.T.);
#1092=FACE_BOUND('',#1021,.T.);
#1093=PLANE('',#1220);
#1094=PLANE('',#1221);
#1095=PLANE('',#1222);
#1096=PLANE('',#1225);
#1097=PLANE('',#1226);
#1098=PLANE('',#1228);
#1099=PLANE('',#1229);
#1100=PLANE('',#1230);
#1101=PLANE('',#1231);
#1102=PLANE('',#1232);
#1103=PLANE('',#1233);
#1104=PLANE('',#1234);
#1105=PLANE('',#1236);
#1106=PLANE('',#1237);
#1107=PLANE('',#1238);
#1108=PLANE('',#1239);
#1109=PLANE('',#1241);
#1110=PLANE('',#1242);
#1111=PLANE('',#1243);
#1112=PLANE('',#1244);
#1113=PLANE('',#1245);
#1114=PLANE('',#1246);
#1115=PLANE('',#1249);
#1116=PLANE('',#1250);
#1117=PLANE('',#1252);
#1118=PLANE('',#1253);
#1119=PLANE('',#1254);
#1120=PLANE('',#1255);
#1121=PLANE('',#1256);
#1122=PLANE('',#1257);
#1123=PLANE('',#1258);
#1124=PLANE('',#1259);
#1125=PLANE('',#1260);
#1126=PLANE('',#1261);
#1127=PLANE('',#1262);
#1128=PLANE('',#1264);
#1129=PLANE('',#1265);
#1130=PLANE('',#1266);
#1131=PLANE('',#1267);
#1132=PLANE('',#1268);
#1133=PLANE('',#1269);
#1134=PLANE('',#1270);
#1135=PLANE('',#1271);
#1136=PLANE('',#1273);
#1137=PLANE('',#1275);
#1138=PLANE('',#1276);
#1139=PLANE('',#1277);
#1140=PLANE('',#1278);
#1141=ADVANCED_FACE('',(#1022),#1093,.T.);
#1142=ADVANCED_FACE('',(#1023),#1094,.T.);
#1143=ADVANCED_FACE('',(#1024),#1095,.T.);
#1144=ADVANCED_FACE('',(#1025),#1096,.T.);
#1145=ADVANCED_FACE('',(#1026,#1027,#1028),#1097,.F.);
#1146=ADVANCED_FACE('',(#1029),#1098,.T.);
#1147=ADVANCED_FACE('',(#1030),#1099,.F.);
#1148=ADVANCED_FACE('',(#1031),#1100,.F.);
#1149=ADVANCED_FACE('',(#1032,#1033),#1101,.T.);
#1150=ADVANCED_FACE('',(#1034),#1102,.T.);
#1151=ADVANCED_FACE('',(#1035),#1103,.F.);
#1152=ADVANCED_FACE('',(#1036),#1104,.F.);
#1153=ADVANCED_FACE('',(#1037),#1105,.T.);
#1154=ADVANCED_FACE('',(#1038),#1106,.T.);
#1155=ADVANCED_FACE('',(#1039),#1107,.T.);
#1156=ADVANCED_FACE('',(#1040,#1041),#1108,.T.);
#1157=ADVANCED_FACE('',(#1042),#1109,.T.);
#1158=ADVANCED_FACE('',(#1043),#1110,.F.);
#1159=ADVANCED_FACE('',(#1044),#1111,.T.);
#1160=ADVANCED_FACE('',(#1045),#1112,.T.);
#1161=ADVANCED_FACE('',(#1046),#1113,.T.);
#1162=ADVANCED_FACE('',(#1047),#1114,.T.);
#1163=ADVANCED_FACE('',(#1048,#1049),#22,.T.);
#1164=ADVANCED_FACE('',(#1050),#1115,.F.);
#1165=ADVANCED_FACE('',(#1051),#1116,.T.);
#1166=ADVANCED_FACE('',(#1052),#1117,.T.);
#1167=ADVANCED_FACE('',(#1053),#1118,.T.);
#1168=ADVANCED_FACE('',(#1054),#1119,.F.);
#1169=ADVANCED_FACE('',(#1055),#1120,.F.);
#1170=ADVANCED_FACE('',(#1056),#1121,.T.);
#1171=ADVANCED_FACE('',(#1057),#1122,.T.);
#1172=ADVANCED_FACE('',(#1058),#1123,.T.);
#1173=ADVANCED_FACE('',(#1059),#1124,.T.);
#1174=ADVANCED_FACE('',(#1060),#1125,.T.);
#1175=ADVANCED_FACE('',(#1061),#1126,.F.);
#1176=ADVANCED_FACE('',(#1062),#1127,.T.);
#1177=ADVANCED_FACE('',(#1063),#1128,.T.);
#1178=ADVANCED_FACE('',(#1064),#1129,.F.);
#1179=ADVANCED_FACE('',(#1065),#1130,.T.);
#1180=ADVANCED_FACE('',(#1066),#1131,.F.);
#1181=ADVANCED_FACE('',(#1067),#1132,.F.);
#1182=ADVANCED_FACE('',(#1068),#1133,.T.);
#1183=ADVANCED_FACE('',(#1069),#1134,.T.);
#1184=ADVANCED_FACE('',(#1070),#1135,.F.);
#1185=ADVANCED_FACE('',(#1071),#1136,.F.);
#1186=ADVANCED_FACE('',(#1072),#1137,.T.);
#1187=ADVANCED_FACE('',(#1073),#1138,.F.);
#1188=ADVANCED_FACE('',(#1074),#1139,.T.);
#1189=ADVANCED_FACE('',(#1075),#1140,.T.);
#1190=ADVANCED_FACE('',(#1076),#23,.T.);
#1191=ADVANCED_FACE('',(#1077),#24,.T.);
#1192=ADVANCED_FACE('',(#1078),#25,.T.);
#1193=ADVANCED_FACE('',(#1079),#26,.T.);
#1194=ADVANCED_FACE('',(#1080),#27,.T.);
#1195=ADVANCED_FACE('',(#1081),#28,.T.);
#1196=ADVANCED_FACE('',(#1082),#12,.T.);
#1197=ADVANCED_FACE('',(#1083),#29,.T.);
#1198=ADVANCED_FACE('',(#1084),#30,.T.);
#1199=ADVANCED_FACE('',(#1085),#31,.T.);
#1200=ADVANCED_FACE('',(#1086),#13,.T.);
#1201=ADVANCED_FACE('',(#1087),#32,.T.);
#1202=ADVANCED_FACE('',(#1088),#33,.T.);
#1203=ADVANCED_FACE('',(#1089),#14,.T.);
#1204=ADVANCED_FACE('',(#1090),#34,.T.);
#1205=ADVANCED_FACE('',(#1091),#35,.T.);
#1206=ADVANCED_FACE('',(#1092),#36,.T.);
#1207=CLOSED_SHELL('',(#1141,#1142,#1143,#1144,#1145,#1146,#1147,#1148,
#1149,#1150,#1151,#1152,#1153,#1154,#1155,#1156,#1157,#1158,#1159,#1160,
#1161,#1162,#1163,#1164,#1165,#1166,#1167,#1168,#1169,#1170,#1171,#1172,
#1173,#1174,#1175,#1176,#1177,#1178,#1179,#1180,#1181,#1182,#1183,#1184,
#1185,#1186,#1187,#1188,#1189,#1190,#1191,#1192,#1193,#1194,#1195,#1196,
#1197,#1198,#1199,#1200,#1201,#1202,#1203,#1204,#1205,#1206));
#1208=STYLED_ITEM('',(#1209),#1216);
#1209=PRESENTATION_STYLE_ASSIGNMENT((#1210));
#1210=SURFACE_STYLE_USAGE(.BOTH.,#1211);
#1211=SURFACE_SIDE_STYLE('',(#1212));
#1212=SURFACE_STYLE_FILL_AREA(#1213);
#1213=FILL_AREA_STYLE('',(#1214));
#1214=FILL_AREA_STYLE_COLOUR('',#1215);
#1215=COLOUR_RGB('',0.615686274509804,0.811764705882353,0.929411764705882);
#1216=MANIFOLD_SOLID_BREP('Part 1',#1207);
#1217=SHAPE_DEFINITION_REPRESENTATION(#1988,#1218);
#1218=SHAPE_REPRESENTATION('Part 1',(#1219),#1983);
#1219=AXIS2_PLACEMENT_3D('',#1640,#1312,#1313);
#1220=AXIS2_PLACEMENT_3D('',#1641,#1314,#1315);
#1221=AXIS2_PLACEMENT_3D('',#1650,#1320,#1321);
#1222=AXIS2_PLACEMENT_3D('',#1663,#1328,#1329);
#1223=AXIS2_PLACEMENT_3D('',#1673,#1334,#1335);
#1224=AXIS2_PLACEMENT_3D('',#1676,#1337,#1338);
#1225=AXIS2_PLACEMENT_3D('',#1677,#1339,#1340);
#1226=AXIS2_PLACEMENT_3D('',#1683,#1344,#1345);
#1227=AXIS2_PLACEMENT_3D('',#1716,#1362,#1363);
#1228=AXIS2_PLACEMENT_3D('',#1727,#1369,#1370);
#1229=AXIS2_PLACEMENT_3D('',#1733,#1374,#1375);
#1230=AXIS2_PLACEMENT_3D('',#1755,#1387,#1388);
#1231=AXIS2_PLACEMENT_3D('',#1768,#1396,#1397);
#1232=AXIS2_PLACEMENT_3D('',#1790,#1409,#1410);
#1233=AXIS2_PLACEMENT_3D('',#1796,#1414,#1415);
#1234=AXIS2_PLACEMENT_3D('',#1811,#1424,#1425);
#1235=AXIS2_PLACEMENT_3D('',#1814,#1427,#1428);
#1236=AXIS2_PLACEMENT_3D('',#1816,#1430,#1431);
#1237=AXIS2_PLACEMENT_3D('',#1817,#1432,#1433);
#1238=AXIS2_PLACEMENT_3D('',#1821,#1436,#1437);
#1239=AXIS2_PLACEMENT_3D('',#1826,#1441,#1442);
#1240=AXIS2_PLACEMENT_3D('',#1827,#1443,#1444);
#1241=AXIS2_PLACEMENT_3D('',#1829,#1445,#1446);
#1242=AXIS2_PLACEMENT_3D('',#1832,#1449,#1450);
#1243=AXIS2_PLACEMENT_3D('',#1833,#1451,#1452);
#1244=AXIS2_PLACEMENT_3D('',#1837,#1455,#1456);
#1245=AXIS2_PLACEMENT_3D('',#1841,#1459,#1460);
#1246=AXIS2_PLACEMENT_3D('',#1843,#1462,#1463);
#1247=AXIS2_PLACEMENT_3D('',#1844,#1464,#1465);
#1248=AXIS2_PLACEMENT_3D('',#1845,#1466,#1467);
#1249=AXIS2_PLACEMENT_3D('',#1847,#1468,#1469);
#1250=AXIS2_PLACEMENT_3D('',#1848,#1470,#1471);
#1251=AXIS2_PLACEMENT_3D('',#1849,#1472,#1473);
#1252=AXIS2_PLACEMENT_3D('',#1863,#1481,#1482);
#1253=AXIS2_PLACEMENT_3D('',#1869,#1486,#1487);
#1254=AXIS2_PLACEMENT_3D('',#1875,#1491,#1492);
#1255=AXIS2_PLACEMENT_3D('',#1879,#1495,#1496);
#1256=AXIS2_PLACEMENT_3D('',#1883,#1499,#1500);
#1257=AXIS2_PLACEMENT_3D('',#1885,#1502,#1503);
#1258=AXIS2_PLACEMENT_3D('',#1886,#1504,#1505);
#1259=AXIS2_PLACEMENT_3D('',#1890,#1508,#1509);
#1260=AXIS2_PLACEMENT_3D('',#1892,#1511,#1512);
#1261=AXIS2_PLACEMENT_3D('',#1893,#1513,#1514);
#1262=AXIS2_PLACEMENT_3D('',#1897,#1517,#1518);
#1263=AXIS2_PLACEMENT_3D('',#1898,#1519,#1520);
#1264=AXIS2_PLACEMENT_3D('',#1902,#1523,#1524);
#1265=AXIS2_PLACEMENT_3D('',#1904,#1526,#1527);
#1266=AXIS2_PLACEMENT_3D('',#1905,#1528,#1529);
#1267=AXIS2_PLACEMENT_3D('',#1914,#1534,#1535);
#1268=AXIS2_PLACEMENT_3D('',#1918,#1538,#1539);
#1269=AXIS2_PLACEMENT_3D('',#1921,#1542,#1543);
#1270=AXIS2_PLACEMENT_3D('',#1922,#1544,#1545);
#1271=AXIS2_PLACEMENT_3D('',#1926,#1548,#1549);
#1272=AXIS2_PLACEMENT_3D('',#1929,#1551,#1552);
#1273=AXIS2_PLACEMENT_3D('',#1931,#1554,#1555);
#1274=AXIS2_PLACEMENT_3D('',#1934,#1557,#1558);
#1275=AXIS2_PLACEMENT_3D('',#1935,#1559,#1560);
#1276=AXIS2_PLACEMENT_3D('',#1939,#1563,#1564);
#1277=AXIS2_PLACEMENT_3D('',#1945,#1568,#1569);
#1278=AXIS2_PLACEMENT_3D('',#1948,#1572,#1573);
#1279=AXIS2_PLACEMENT_3D('',#1949,#1574,#1575);
#1280=AXIS2_PLACEMENT_3D('',#1950,#1576,#1577);
#1281=AXIS2_PLACEMENT_3D('',#1951,#1578,#1579);
#1282=AXIS2_PLACEMENT_3D('',#1952,#1580,#1581);
#1283=AXIS2_PLACEMENT_3D('',#1953,#1582,#1583);
#1284=AXIS2_PLACEMENT_3D('',#1954,#1584,#1585);
#1285=AXIS2_PLACEMENT_3D('',#1955,#1586,#1587);
#1286=AXIS2_PLACEMENT_3D('',#1956,#1588,#1589);
#1287=AXIS2_PLACEMENT_3D('',#1957,#1590,#1591);
#1288=AXIS2_PLACEMENT_3D('',#1958,#1592,#1593);
#1289=AXIS2_PLACEMENT_3D('',#1959,#1594,#1595);
#1290=AXIS2_PLACEMENT_3D('',#1960,#1596,#1597);
#1291=AXIS2_PLACEMENT_3D('',#1961,#1598,#1599);
#1292=AXIS2_PLACEMENT_3D('',#1962,#1600,#1601);
#1293=AXIS2_PLACEMENT_3D('',#1963,#1602,#1603);
#1294=AXIS2_PLACEMENT_3D('',#1964,#1604,#1605);
#1295=AXIS2_PLACEMENT_3D('',#1965,#1606,#1607);
#1296=AXIS2_PLACEMENT_3D('',#1966,#1608,#1609);
#1297=AXIS2_PLACEMENT_3D('',#1967,#1610,#1611);
#1298=AXIS2_PLACEMENT_3D('',#1968,#1612,#1613);
#1299=AXIS2_PLACEMENT_3D('',#1969,#1614,#1615);
#1300=AXIS2_PLACEMENT_3D('',#1970,#1616,#1617);
#1301=AXIS2_PLACEMENT_3D('',#1971,#1618,#1619);
#1302=AXIS2_PLACEMENT_3D('',#1972,#1620,#1621);
#1303=AXIS2_PLACEMENT_3D('',#1973,#1622,#1623);
#1304=AXIS2_PLACEMENT_3D('',#1974,#1624,#1625);
#1305=AXIS2_PLACEMENT_3D('',#1975,#1626,#1627);
#1306=AXIS2_PLACEMENT_3D('',#1976,#1628,#1629);
#1307=AXIS2_PLACEMENT_3D('',#1977,#1630,#1631);
#1308=AXIS2_PLACEMENT_3D('',#1978,#1632,#1633);
#1309=AXIS2_PLACEMENT_3D('',#1979,#1634,#1635);
#1310=AXIS2_PLACEMENT_3D('',#1980,#1636,#1637);
#1311=AXIS2_PLACEMENT_3D('',#1981,#1638,#1639);
#1312=DIRECTION('',(0.,0.,1.));
#1313=DIRECTION('',(1.,0.,0.));
#1314=DIRECTION('',(0.,0.,1.));
#1315=DIRECTION('',(1.,0.,0.));
#1316=DIRECTION('',(-1.,0.,0.));
#1317=DIRECTION('',(0.,-1.,0.));
#1318=DIRECTION('',(-1.,0.,0.));
#1319=DIRECTION('',(0.,1.,0.));
#1320=DIRECTION('',(0.,1.,0.));
#1321=DIRECTION('',(-1.,0.,0.));
#1322=DIRECTION('',(1.,0.,0.));
#1323=DIRECTION('',(0.,0.,-1.));
#1324=DIRECTION('',(1.,0.,0.));
#1325=DIRECTION('',(0.,0.,-1.));
#1326=DIRECTION('',(1.,0.,0.));
#1327=DIRECTION('',(0.,0.,-1.));
#1328=DIRECTION('',(0.,0.,1.));
#1329=DIRECTION('',(1.,0.,0.));
#1330=DIRECTION('',(1.,1.33440267382831E-16,0.));
#1331=DIRECTION('',(0.,-1.,0.));
#1332=DIRECTION('',(1.,0.,0.));
#1333=DIRECTION('',(0.,-1.,0.));
#1334=DIRECTION('',(0.,0.,1.));
#1335=DIRECTION('',(1.,0.,0.));
#1336=DIRECTION('',(0.,-1.,0.));
#1337=DIRECTION('',(0.,0.,1.));
#1338=DIRECTION('',(1.,0.,0.));
#1339=DIRECTION('',(-1.,0.,0.));
#1340=DIRECTION('',(0.,-1.,0.));
#1341=DIRECTION('',(0.,0.,-1.));
#1342=DIRECTION('',(0.,-1.,0.));
#1343=DIRECTION('',(0.,0.,-1.));
#1344=DIRECTION('',(0.,-1.,0.));
#1345=DIRECTION('',(1.,0.,0.));
#1346=DIRECTION('',(-1.,0.,0.));
#1347=DIRECTION('',(0.,0.,1.));
#1348=DIRECTION('',(-1.,0.,0.));
#1349=DIRECTION('',(0.,0.,1.));
#1350=DIRECTION('',(-4.96037210716114E-17,0.,-1.));
#1351=DIRECTION('',(1.,0.,0.));
#1352=DIRECTION('',(0.,0.,-1.));
#1353=DIRECTION('',(-1.,0.,0.));
#1354=DIRECTION('',(0.,0.,-1.));
#1355=DIRECTION('',(-1.,0.,0.));
#1356=DIRECTION('',(1.,0.,0.));
#1357=DIRECTION('',(0.,0.,-1.));
#1358=DIRECTION('',(0.,0.,-1.));
#1359=DIRECTION('',(-1.,0.,0.));
#1360=DIRECTION('',(0.,0.,-1.));
#1361=DIRECTION('',(-1.,0.,0.));
#1362=DIRECTION('',(0.,-1.,0.));
#1363=DIRECTION('',(0.,0.,-1.));
#1364=DIRECTION('',(0.,0.,-1.));
#1365=DIRECTION('',(1.,0.,0.));
#1366=DIRECTION('',(0.,0.,-1.));
#1367=DIRECTION('',(1.,0.,0.));
#1368=DIRECTION('',(0.,0.,-1.));
#1369=DIRECTION('',(0.,0.,1.));
#1370=DIRECTION('',(1.,0.,0.));
#1371=DIRECTION('',(0.,1.,0.));
#1372=DIRECTION('',(1.,1.41887860691966E-16,0.));
#1373=DIRECTION('',(-1.33440267382831E-16,1.,0.));
#1374=DIRECTION('',(0.,0.,-1.));
#1375=DIRECTION('',(-1.,0.,0.));
#1376=DIRECTION('',(0.,1.,0.));
#1377=DIRECTION('',(1.,0.,0.));
#1378=DIRECTION('',(0.,1.,0.));
#1379=DIRECTION('',(-1.,0.,0.));
#1380=DIRECTION('',(0.,1.,0.));
#1381=DIRECTION('',(-1.,0.,0.));
#1382=DIRECTION('',(0.,-1.,0.));
#1383=DIRECTION('',(-1.,0.,0.));
#1384=DIRECTION('',(0.,1.,0.));
#1385=DIRECTION('',(1.,0.,0.));
#1386=DIRECTION('',(0.,1.,0.));
#1387=DIRECTION('',(1.,0.,0.));
#1388=DIRECTION('',(0.,0.,-1.));
#1389=DIRECTION('',(0.,0.,-1.));
#1390=DIRECTION('',(0.,1.,0.));
#1391=DIRECTION('',(0.,0.,-1.));
#1392=DIRECTION('',(0.,1.,1.7347234759768E-16));
#1393=DIRECTION('',(0.,0.,-1.));
#1394=DIRECTION('',(0.,0.,-1.));
#1395=DIRECTION('',(0.,1.,0.));
#1396=DIRECTION('',(1.,0.,0.));
#1397=DIRECTION('',(0.,0.,-1.));
#1398=DIRECTION('',(0.,-1.,0.));
#1399=DIRECTION('',(0.,0.,-1.));
#1400=DIRECTION('',(0.,1.,0.));
#1401=DIRECTION('',(0.,0.,-1.));
#1402=DIRECTION('',(0.,1.,0.));
#1403=DIRECTION('',(0.,0.,1.));
#1404=DIRECTION('',(0.,1.,0.));
#1405=DIRECTION('',(0.,0.,-1.));
#1406=DIRECTION('',(0.,0.,-1.));
#1407=DIRECTION('',(0.,1.,1.7347234759768E-16));
#1408=DIRECTION('',(0.,0.,-1.));
#1409=DIRECTION('',(0.,0.,1.));
#1410=DIRECTION('',(1.,0.,0.));
#1411=DIRECTION('',(1.,0.,0.));
#1412=DIRECTION('',(0.,1.,0.));
#1413=DIRECTION('',(1.,0.,0.));
#1414=DIRECTION('',(1.,0.,0.));
#1415=DIRECTION('',(0.,0.,-1.));
#1416=DIRECTION('',(0.,0.,-1.));
#1417=DIRECTION('',(0.,-1.,0.));
#1418=DIRECTION('',(0.,0.,-1.));
#1419=DIRECTION('',(0.,-1.,0.));
#1420=DIRECTION('',(0.,-1.,0.));
#1421=DIRECTION('',(0.,0.,-1.));
#1422=DIRECTION('',(0.,1.,0.));
#1423=DIRECTION('',(0.,0.,-1.));
#1424=DIRECTION('',(0.,0.,1.));
#1425=DIRECTION('',(1.,0.,0.));
#1426=DIRECTION('',(1.,0.,0.));
#1427=DIRECTION('',(0.,0.,1.));
#1428=DIRECTION('',(1.,0.,0.));
#1429=DIRECTION('',(1.,0.,0.));
#1430=DIRECTION('',(0.,-1.,0.));
#1431=DIRECTION('',(1.,0.,0.));
#1432=DIRECTION('',(0.,0.,-1.));
#1433=DIRECTION('',(-1.,0.,0.));
#1434=DIRECTION('',(-1.,0.,0.));
#1435=DIRECTION('',(0.,1.,0.));
#1436=DIRECTION('',(1.,0.,-4.96037210716114E-17));
#1437=DIRECTION('',(-4.96037210716114E-17,0.,-1.));
#1438=DIRECTION('',(0.,-1.,0.));
#1439=DIRECTION('',(-4.96037210716114E-17,0.,-1.));
#1440=DIRECTION('',(-4.96037210716114E-17,0.,-1.));
#1441=DIRECTION('',(0.,1.,0.));
#1442=DIRECTION('',(-1.,0.,0.));
#1443=DIRECTION('',(0.,1.,0.));
#1444=DIRECTION('',(0.,0.,1.));
#1445=DIRECTION('',(0.,1.7347234759768E-16,-1.));
#1446=DIRECTION('',(0.,1.,1.7347234759768E-16));
#1447=DIRECTION('',(1.,0.,0.));
#1448=DIRECTION('',(1.,0.,0.));
#1449=DIRECTION('',(0.,-1.,0.));
#1450=DIRECTION('',(0.,0.,-1.));
#1451=DIRECTION('',(0.,-1.,0.));
#1452=DIRECTION('',(0.,0.,-1.));
#1453=DIRECTION('',(1.,0.,0.));
#1454=DIRECTION('',(0.,0.,-1.));
#1455=DIRECTION('',(-1.,0.,0.));
#1456=DIRECTION('',(0.,0.,1.));
#1457=DIRECTION('',(0.,1.,0.));
#1458=DIRECTION('',(0.,0.,-1.));
#1459=DIRECTION('',(0.,1.,0.));
#1460=DIRECTION('',(0.,0.,1.));
#1461=DIRECTION('',(1.,0.,0.));
#1462=DIRECTION('',(0.,0.,1.));
#1463=DIRECTION('',(1.,0.,0.));
#1464=DIRECTION('',(0.,-1.,0.));
#1465=DIRECTION('',(0.,0.,-1.));
#1466=DIRECTION('',(0.,-1.,0.));
#1467=DIRECTION('',(0.,0.,-1.));
#1468=DIRECTION('',(0.,-1.,0.));
#1469=DIRECTION('',(1.,0.,0.));
#1470=DIRECTION('',(0.,-1.,0.));
#1471=DIRECTION('',(0.,0.,-1.));
#1472=DIRECTION('',(0.,-1.,0.));
#1473=DIRECTION('',(0.,0.,-1.));
#1474=DIRECTION('',(0.,0.,-1.));
#1475=DIRECTION('',(1.,0.,0.));
#1476=DIRECTION('',(0.,0.,-1.));
#1477=DIRECTION('',(1.,0.,0.));
#1478=DIRECTION('',(0.,0.,-1.));
#1479=DIRECTION('',(1.,0.,0.));
#1480=DIRECTION('',(0.,0.,1.));
#1481=DIRECTION('',(0.,0.,-1.));
#1482=DIRECTION('',(1.,0.,0.));
#1483=DIRECTION('',(0.,1.,0.));
#1484=DIRECTION('',(1.,0.,0.));
#1485=DIRECTION('',(0.,1.,0.));
#1486=DIRECTION('',(1.,0.,0.));
#1487=DIRECTION('',(0.,0.,-1.));
#1488=DIRECTION('',(0.,-1.,0.));
#1489=DIRECTION('',(0.,0.,1.));
#1490=DIRECTION('',(0.,-1.,0.));
#1491=DIRECTION('',(0.,0.,1.));
#1492=DIRECTION('',(1.,0.,0.));
#1493=DIRECTION('',(0.,-1.,0.));
#1494=DIRECTION('',(-1.,0.,0.));
#1495=DIRECTION('',(1.,0.,0.));
#1496=DIRECTION('',(0.,0.,-1.));
#1497=DIRECTION('',(0.,-1.,0.));
#1498=DIRECTION('',(0.,0.,1.));
#1499=DIRECTION('',(0.,0.,1.));
#1500=DIRECTION('',(1.,0.,0.));
#1501=DIRECTION('',(-1.,0.,0.));
#1502=DIRECTION('',(0.,1.,0.));
#1503=DIRECTION('',(-1.,0.,0.));
#1504=DIRECTION('',(0.,-1.,0.));
#1505=DIRECTION('',(1.,0.,0.));
#1506=DIRECTION('',(1.,0.,0.));
#1507=DIRECTION('',(0.,0.,-1.));
#1508=DIRECTION('',(0.,0.,1.));
#1509=DIRECTION('',(1.,0.,0.));
#1510=DIRECTION('',(0.,1.,0.));
#1511=DIRECTION('',(1.,0.,0.));
#1512=DIRECTION('',(0.,0.,-1.));
#1513=DIRECTION('',(0.,0.,1.));
#1514=DIRECTION('',(1.,0.,0.));
#1515=DIRECTION('',(1.,0.,0.));
#1516=DIRECTION('',(0.,1.,0.));
#1517=DIRECTION('',(0.,0.,1.));
#1518=DIRECTION('',(1.,0.,0.));
#1519=DIRECTION('',(0.,0.,1.));
#1520=DIRECTION('',(1.,0.,0.));
#1521=DIRECTION('',(0.,1.,0.));
#1522=DIRECTION('',(1.,0.,0.));
#1523=DIRECTION('',(0.,-1.,0.));
#1524=DIRECTION('',(1.,0.,0.));
#1525=DIRECTION('',(0.,0.,-1.));
#1526=DIRECTION('',(1.,0.,0.));
#1527=DIRECTION('',(0.,0.,-1.));
#1528=DIRECTION('',(0.,1.,0.));
#1529=DIRECTION('',(-1.,0.,0.));
#1530=DIRECTION('',(0.,0.,-1.));
#1531=DIRECTION('',(-1.,0.,0.));
#1532=DIRECTION('',(0.,0.,-1.));
#1533=DIRECTION('',(1.,0.,0.));
#1534=DIRECTION('',(-1.,-1.33440267382831E-16,0.));
#1535=DIRECTION('',(1.33440267382831E-16,-1.,0.));
#1536=DIRECTION('',(0.,0.,-1.));
#1537=DIRECTION('',(-1.33440267382831E-16,1.,0.));
#1538=DIRECTION('',(-1.41887860691966E-16,1.,0.));
#1539=DIRECTION('',(-1.,-1.41887860691966E-16,0.));
#1540=DIRECTION('',(0.,0.,-1.));
#1541=DIRECTION('',(1.,1.41887860691966E-16,0.));
#1542=DIRECTION('',(-1.,0.,0.));
#1543=DIRECTION('',(0.,0.,1.));
#1544=DIRECTION('',(0.,0.,1.));
#1545=DIRECTION('',(1.,0.,0.));
#1546=DIRECTION('',(-1.,0.,0.));
#1547=DIRECTION('',(0.,-1.,0.));
#1548=DIRECTION('',(0.,0.,1.));
#1549=DIRECTION('',(1.,0.,0.));
#1550=DIRECTION('',(0.,-1.,0.));
#1551=DIRECTION('',(0.,0.,1.));
#1552=DIRECTION('',(1.,0.,0.));
#1553=DIRECTION('',(0.,-1.,0.));
#1554=DIRECTION('',(-1.,0.,0.));
#1555=DIRECTION('',(0.,-1.,0.));
#1556=DIRECTION('',(0.,0.,-1.));
#1557=DIRECTION('',(-1.,0.,0.));
#1558=DIRECTION('',(0.,0.,1.));
#1559=DIRECTION('',(-1.,0.,0.));
#1560=DIRECTION('',(0.,-1.,0.));
#1561=DIRECTION('',(0.,-1.,0.));
#1562=DIRECTION('',(0.,0.,-1.));
#1563=DIRECTION('',(-1.33440267382831E-16,1.,0.));
#1564=DIRECTION('',(-1.,-1.33440267382831E-16,0.));
#1565=DIRECTION('',(1.,1.33440267382831E-16,0.));
#1566=DIRECTION('',(0.,0.,-1.));
#1567=DIRECTION('',(0.,0.,-1.));
#1568=DIRECTION('',(0.,0.,1.));
#1569=DIRECTION('',(1.,0.,0.));
#1570=DIRECTION('',(0.,-1.,0.));
#1571=DIRECTION('',(1.,0.,0.));
#1572=DIRECTION('',(1.,0.,0.));
#1573=DIRECTION('',(0.,0.,-1.));
#1574=DIRECTION('',(0.,0.,-1.));
#1575=DIRECTION('',(-1.,0.,0.));
#1576=DIRECTION('',(-0.707106781186548,0.,-0.707106781186548));
#1577=DIRECTION('',(0.707106781186548,0.,-0.707106781186548));
#1578=DIRECTION('',(0.,0.,-1.));
#1579=DIRECTION('',(-1.,0.,0.));
#1580=DIRECTION('',(0.707106781186548,0.,-0.707106781186548));
#1581=DIRECTION('',(-0.707106781186548,0.,-0.707106781186548));
#1582=DIRECTION('',(1.,0.,0.));
#1583=DIRECTION('',(0.,0.,-1.));
#1584=DIRECTION('',(0.,0.,1.));
#1585=DIRECTION('',(1.,0.,0.));
#1586=DIRECTION('',(0.,-0.707106781186548,0.707106781186548));
#1587=DIRECTION('',(0.,0.707106781186548,0.707106781186548));
#1588=DIRECTION('',(0.,1.,0.));
#1589=DIRECTION('',(0.,0.,1.));
#1590=DIRECTION('',(0.,1.,0.));
#1591=DIRECTION('',(0.,0.,1.));
#1592=DIRECTION('',(0.,0.,-1.));
#1593=DIRECTION('',(-1.,0.,0.));
#1594=DIRECTION('',(0.,0.,-1.));
#1595=DIRECTION('',(-1.,0.,0.));
#1596=DIRECTION('',(-3.46944695195361E-15,0.,-1.));
#1597=DIRECTION('',(-1.,0.,3.46944695195361E-15));
#1598=DIRECTION('',(1.,0.,-3.46944695195361E-15));
#1599=DIRECTION('',(-3.46944695195361E-15,0.,-1.));
#1600=DIRECTION('',(1.,0.,0.));
#1601=DIRECTION('',(0.,0.,-1.));
#1602=DIRECTION('',(1.,0.,0.));
#1603=DIRECTION('',(0.,0.,-1.));
#1604=DIRECTION('',(0.707106781186548,0.,-0.707106781186548));
#1605=DIRECTION('',(-0.707106781186548,0.,-0.707106781186548));
#1606=DIRECTION('',(0.,0.,-1.));
#1607=DIRECTION('',(-1.,0.,0.));
#1608=DIRECTION('',(0.,0.,-1.));
#1609=DIRECTION('',(-1.,0.,0.));
#1610=DIRECTION('',(0.,-1.,0.));
#1611=DIRECTION('',(0.,0.,-1.));
#1612=DIRECTION('',(0.,1.,0.));
#1613=DIRECTION('',(0.,0.,1.));
#1614=DIRECTION('',(0.,0.,1.));
#1615=DIRECTION('',(1.,0.,0.));
#1616=DIRECTION('',(1.,0.,0.));
#1617=DIRECTION('',(0.,0.,-1.));
#1618=DIRECTION('',(-1.,0.,0.));
#1619=DIRECTION('',(0.,0.,1.));
#1620=DIRECTION('',(1.,0.,0.));
#1621=DIRECTION('',(0.,0.,-1.));
#1622=DIRECTION('',(0.,0.,-1.));
#1623=DIRECTION('',(-1.,0.,0.));
#1624=DIRECTION('',(-0.707106781186548,0.,-0.707106781186548));
#1625=DIRECTION('',(-0.707106781186548,0.,0.707106781186548));
#1626=DIRECTION('',(0.,0.,1.));
#1627=DIRECTION('',(1.,0.,0.));
#1628=DIRECTION('',(0.,-1.,0.));
#1629=DIRECTION('',(0.,0.,-1.));
#1630=DIRECTION('',(-1.,0.,0.));
#1631=DIRECTION('',(0.,0.,1.));
#1632=DIRECTION('',(-0.707106781186548,0.,0.707106781186548));
#1633=DIRECTION('',(-0.707106781186548,0.,-0.707106781186548));
#1634=DIRECTION('',(0.,-1.,0.));
#1635=DIRECTION('',(0.,0.,-1.));
#1636=DIRECTION('',(0.,-0.707106781186548,0.707106781186548));
#1637=DIRECTION('',(0.,0.707106781186548,0.707106781186548));
#1638=DIRECTION('',(0.,0.,1.));
#1639=DIRECTION('',(1.,0.,0.));
#1640=CARTESIAN_POINT('',(0.,0.,0.));
#1641=CARTESIAN_POINT('',(0.0441627774935304,0.02,-0.00393818672920622));
#1642=CARTESIAN_POINT('',(0.0441627774935304,0.,-0.00393818672920622));
#1643=CARTESIAN_POINT('',(0.0931627774935305,0.,-0.00393818672920622));
#1644=CARTESIAN_POINT('',(0.0929709179513156,0.,-0.00393818672920622));
#1645=CARTESIAN_POINT('',(0.0931627774935305,0.02,-0.00393818672920622));
#1646=CARTESIAN_POINT('',(0.0931627774935305,0.039,-0.00393818672920622));
#1647=CARTESIAN_POINT('',(0.0441627774935304,0.039,-0.00393818672920622));
#1648=CARTESIAN_POINT('',(0.0929709179513156,0.039,-0.00393818672920622));
#1649=CARTESIAN_POINT('',(0.0929709179513156,0.0195,-0.00393818672920622));
#1650=CARTESIAN_POINT('',(0.0284241535488702,0.04,-0.00751273367553949));
#1651=CARTESIAN_POINT('',(-0.00603722250646953,0.04,-0.0539381867292062));
#1652=CARTESIAN_POINT('',(-0.0870372225064695,0.04,-0.0539381867292062));
#1653=CARTESIAN_POINT('',(-0.00583722250646953,0.04,-0.0539381867292062));
#1654=CARTESIAN_POINT('',(-0.0870372225064695,0.04,-0.00751273367553949));
#1655=CARTESIAN_POINT('',(-0.0870372225064695,0.04,-0.00463818672920621));
#1656=CARTESIAN_POINT('',(0.0284241535488702,0.04,-0.00463818672920621));
#1657=CARTESIAN_POINT('',(-0.0370372225064695,0.04,-0.00463818672920621));
#1658=CARTESIAN_POINT('',(-0.0370372225064695,0.04,-0.00751273367553949));
#1659=CARTESIAN_POINT('',(-0.0370372225064695,0.04,-0.0536381867292062));
#1660=CARTESIAN_POINT('',(-0.0880372225064695,0.04,-0.0536381867292062));
#1661=CARTESIAN_POINT('',(-0.00583722250646953,0.04,-0.0536381867292062));
#1662=CARTESIAN_POINT('',(-0.00583722250646953,0.04,-0.0289381867292062));
#1663=CARTESIAN_POINT('',(-0.0880372225064695,0.0198685192549601,-0.0536381867292062));
#1664=CARTESIAN_POINT('',(-0.0620372225064695,0.039,-0.0536381867292062));
#1665=CARTESIAN_POINT('',(-0.0870372225064695,0.039,-0.0536381867292062));
#1666=CARTESIAN_POINT('',(-0.0360372225064695,0.039,-0.0536381867292062));
#1667=CARTESIAN_POINT('',(-0.0870372225064695,0.0193685192549601,-0.0536381867292062));
#1668=CARTESIAN_POINT('',(-0.0870372225064695,-0.000262961490079761,-0.0536381867292062));
#1669=CARTESIAN_POINT('',(-0.0880372225064695,-0.000262961490079761,-0.0536381867292062));
#1670=CARTESIAN_POINT('',(-0.00603722250646953,-0.000262961490079761,-0.0536381867292062));
#1671=CARTESIAN_POINT('',(-0.00603722250646953,0.0198685192549601,-0.0536381867292062));
#1672=CARTESIAN_POINT('',(-0.00603722250646953,0.039,-0.0536381867292062));
#1673=CARTESIAN_POINT('',(-0.00503722250646953,0.039,-0.0536381867292062));
#1674=CARTESIAN_POINT('',(-0.00583722250646953,0.0396,-0.0536381867292062));
#1675=CARTESIAN_POINT('',(-0.00583722250646954,0.0198685192549601,-0.0536381867292062));
#1676=CARTESIAN_POINT('',(-0.0370372225064695,0.039,-0.0536381867292062));
#1677=CARTESIAN_POINT('',(-0.00603722250646953,0.0125,-0.0194754602023728));
#1678=CARTESIAN_POINT('',(-0.00603722250646953,-0.000262961490079761,-0.0289381867292062));
#1679=CARTESIAN_POINT('',(-0.00603722250646953,-0.000262961490079761,-0.00493818672920621));
#1680=CARTESIAN_POINT('',(-0.00603722250646953,0.0125,-0.00493818672920621));
#1681=CARTESIAN_POINT('',(-0.00603722250646953,0.039,-0.00493818672920621));
#1682=CARTESIAN_POINT('',(-0.00603722250646953,0.039,-0.0194754602023728));
#1683=CARTESIAN_POINT('',(0.0441627774935304,0.,0.00498726632446051));
#1684=CARTESIAN_POINT('',(0.0504709179513156,0.,-0.0258481758362698));
#1685=CARTESIAN_POINT('',(0.0824709179513156,0.,-0.0258481758362698));
#1686=CARTESIAN_POINT('',(0.0184709179513156,0.,-0.0258481758362698));
#1687=CARTESIAN_POINT('',(0.0824709179513156,0.,-0.0255011050030589));
#1688=CARTESIAN_POINT('',(0.0824709179513156,0.,-0.0251540341698481));
#1689=CARTESIAN_POINT('',(0.0504709179513156,0.,-0.0251540341698481));
#1690=CARTESIAN_POINT('',(0.0184709179513156,0.,-0.0251540341698481));
#1691=CARTESIAN_POINT('',(0.0184709179513156,0.,-0.0255011050030589));
#1692=CARTESIAN_POINT('',(-0.00276938250646953,0.,0.00498726632446051));
#1693=CARTESIAN_POINT('',(-0.00276938250646953,0.,0.0137301763244605));
#1694=CARTESIAN_POINT('',(-0.00276938250646953,0.,0.0022443563244605));
#1695=CARTESIAN_POINT('',(-0.00523973140137717,0.,0.0022443563244605));
#1696=CARTESIAN_POINT('',(0.0268350075930357,0.,0.0022443563244605));
#1697=CARTESIAN_POINT('',(0.0268350075930357,0.,-0.000755643675539494));
#1698=CARTESIAN_POINT('',(0.0268350075930357,0.,-0.00375564367553949));
#1699=CARTESIAN_POINT('',(0.0441627774935304,0.,-0.00375564367553949));
#1700=CARTESIAN_POINT('',(0.0910949374935305,0.,-0.00375564367553949));
#1701=CARTESIAN_POINT('',(0.0910949374935305,0.,0.00498726632446051));
#1702=CARTESIAN_POINT('',(0.0910949374935305,0.,0.0137301763244605));
#1703=CARTESIAN_POINT('',(0.0441627774935304,0.,0.0137301763244605));
#1704=CARTESIAN_POINT('',(0.0941627774935305,0.,0.0139872663244605));
#1705=CARTESIAN_POINT('',(-0.00483722250646953,0.,0.0139872663244605));
#1706=CARTESIAN_POINT('',(0.0931627774935305,0.,0.0139872663244605));
#1707=CARTESIAN_POINT('',(0.0931627774935305,0.,-0.00393818672920622));
#1708=CARTESIAN_POINT('',(0.0929709179513156,0.,-0.00393818672920622));
#1709=CARTESIAN_POINT('',(0.0929709179513156,0.,-0.0289381867292062));
#1710=CARTESIAN_POINT('',(0.0441627774935304,0.,-0.0289381867292062));
#1711=CARTESIAN_POINT('',(-0.00483722250646953,0.,-0.0289381867292062));
#1712=CARTESIAN_POINT('',(-0.00483722250646953,0.,-0.00393818672920622));
#1713=CARTESIAN_POINT('',(-0.00483722250646953,0.,-0.00393818672920622));
#1714=CARTESIAN_POINT('',(0.0441627774935304,0.,-0.00393818672920622));
#1715=CARTESIAN_POINT('',(-0.00503722250646953,0.,-0.00393818672920622));
#1716=CARTESIAN_POINT('',(-0.00503722250646953,0.,-0.00493818672920621));
#1717=CARTESIAN_POINT('',(-0.00583722250646953,0.,-0.00433818672920621));
#1718=CARTESIAN_POINT('',(-0.00583722250646953,0.,0.00498726632446051));
#1719=CARTESIAN_POINT('',(-0.00583722250646953,0.,-0.00375564367553949));
#1720=CARTESIAN_POINT('',(-0.00523973140137717,0.,-0.00375564367553949));
#1721=CARTESIAN_POINT('',(-0.03731447039579,0.,-0.00375564367553949));
#1722=CARTESIAN_POINT('',(-0.03731447039579,0.,-0.000755643675539494));
#1723=CARTESIAN_POINT('',(-0.03731447039579,0.,0.0022443563244605));
#1724=CARTESIAN_POINT('',(-0.00523973140137717,0.,0.0022443563244605));
#1725=CARTESIAN_POINT('',(-0.00483722250646953,0.,0.0022443563244605));
#1726=CARTESIAN_POINT('',(-0.00483722250646953,0.,0.00498726632446051));
#1727=CARTESIAN_POINT('',(0.0441627774935304,0.04,-0.0289381867292062));
#1728=CARTESIAN_POINT('',(0.0929709179513156,0.0195,-0.0289381867292062));
#1729=CARTESIAN_POINT('',(0.0929709179513156,0.039,-0.0289381867292062));
#1730=CARTESIAN_POINT('',(0.0440668477224231,0.039,-0.0289381867292062));
#1731=CARTESIAN_POINT('',(-0.00483722250646954,0.039,-0.0289381867292062));
#1732=CARTESIAN_POINT('',(-0.00483722250646953,0.0195,-0.0289381867292062));
#1733=CARTESIAN_POINT('',(0.0441627774935304,-0.0149,-0.00375564367553949));
#1734=CARTESIAN_POINT('',(0.0268350075930357,-0.005,-0.00375564367553949));
#1735=CARTESIAN_POINT('',(0.0268350075930357,-0.005,-0.00375564367553949));
#1736=CARTESIAN_POINT('',(-0.00523973140137717,-0.005,-0.00375564367553949));
#1737=CARTESIAN_POINT('',(-0.00276938250646953,-0.005,-0.00375564367553949));
#1738=CARTESIAN_POINT('',(-0.00276938250646953,-0.0149,-0.00375564367553949));
#1739=CARTESIAN_POINT('',(-0.00276938250646953,-0.0149,-0.00375564367553949));
#1740=CARTESIAN_POINT('',(0.0441627774935304,-0.0149,-0.00375564367553949));
#1741=CARTESIAN_POINT('',(0.0910949374935305,-0.0149,-0.00375564367553949));
#1742=CARTESIAN_POINT('',(0.0910949374935305,-0.0149,-0.00375564367553949));
#1743=CARTESIAN_POINT('',(0.0910949374935305,-0.01351081,-0.00375564367553949));
#1744=CARTESIAN_POINT('',(0.0941647774935305,-0.01351081,-0.00375564367553949));
#1745=CARTESIAN_POINT('',(0.0941627774935305,-0.01351081,-0.00375564367553949));
#1746=CARTESIAN_POINT('',(0.0941627774935305,-0.0149,-0.00375564367553949));
#1747=CARTESIAN_POINT('',(0.0941627774935305,-0.00851081,-0.00375564367553949));
#1748=CARTESIAN_POINT('',(0.0941647774935305,-0.00851081,-0.00375564367553949));
#1749=CARTESIAN_POINT('',(0.074510238095325,-0.00851081,-0.00375564367553949));
#1750=CARTESIAN_POINT('',(0.074510238095325,-0.0081644680859122,-0.00375564367553949));
#1751=CARTESIAN_POINT('',(0.074510238095325,-0.0078181261718244,-0.00375564367553949));
#1752=CARTESIAN_POINT('',(0.0828025877944277,-0.0078181261718244,-0.00375564367553949));
#1753=CARTESIAN_POINT('',(0.0910949374935305,-0.0078181261718244,-0.00375564367553949));
#1754=CARTESIAN_POINT('',(0.0910949374935305,-0.0149,-0.00375564367553949));
#1755=CARTESIAN_POINT('',(0.0910949374935305,-0.0149,0.00498726632446051));
#1756=CARTESIAN_POINT('',(0.0910949374935305,-0.0078181261718244,-0.00325564367553949));
#1757=CARTESIAN_POINT('',(0.0910949374935305,-0.0078181261718244,-0.00325564367553949));
#1758=CARTESIAN_POINT('',(0.0910949374935305,-0.0149,-0.00325564367553949));
#1759=CARTESIAN_POINT('',(0.0910949374935305,-0.00851081,-0.00325564367553949));
#1760=CARTESIAN_POINT('',(0.0910949374935305,-0.00851081,0.00498726632446051));
#1761=CARTESIAN_POINT('',(0.0910949374935305,-0.00851081,0.0044872663244605));
#1762=CARTESIAN_POINT('',(0.0910949374935305,-0.0149,0.0044872663244605));
#1763=CARTESIAN_POINT('',(0.0910949374935305,-0.01351081,0.0044872663244605));
#1764=CARTESIAN_POINT('',(0.0910949374935305,-0.01351081,0.00498726632446051));
#1765=CARTESIAN_POINT('',(0.0910949374935305,-0.0149,0.00498726632446051));
#1766=CARTESIAN_POINT('',(0.0910949374935305,-0.0149,0.0137301763244605));
#1767=CARTESIAN_POINT('',(0.0910949374935305,-0.0149,0.0137301763244605));
#1768=CARTESIAN_POINT('',(0.0941627774935305,-0.015,0.00498726632446051));
#1769=CARTESIAN_POINT('',(0.0941627774935305,-0.015,-0.00493818672920621));
#1770=CARTESIAN_POINT('',(0.0941627774935305,0.039,-0.00493818672920621));
#1771=CARTESIAN_POINT('',(0.0941627774935305,-0.001,-0.00493818672920621));
#1772=CARTESIAN_POINT('',(0.0941627774935305,-0.001,0.0149872663244605));
#1773=CARTESIAN_POINT('',(0.0941627774935305,-0.001,0.0149872663244605));
#1774=CARTESIAN_POINT('',(0.0941627774935305,-0.015,0.0149872663244605));
#1775=CARTESIAN_POINT('',(0.0941627774935305,-0.015,0.0149872663244605));
#1776=CARTESIAN_POINT('',(0.0941627774935305,-0.015,0.00498726632446051));
#1777=CARTESIAN_POINT('',(0.0941627774935305,-0.015,-0.0050127336755395));
#1778=CARTESIAN_POINT('',(0.0941627774935305,-0.015,-0.0050127336755395));
#1779=CARTESIAN_POINT('',(0.0941627774935305,0.00073703850992024,-0.0050127336755395));
#1780=CARTESIAN_POINT('',(0.0941627774935305,0.00073703850992024,0.00498726632446051));
#1781=CARTESIAN_POINT('',(0.0941627774935305,0.00073703850992024,-0.0290127336755395));
#1782=CARTESIAN_POINT('',(0.0941627774935305,-0.015,-0.0290127336755395));
#1783=CARTESIAN_POINT('',(0.0941627774935305,0.039,-0.0290127336755395));
#1784=CARTESIAN_POINT('',(0.0941627774935305,0.039,0.00498726632446051));
#1785=CARTESIAN_POINT('',(0.0941627774935305,-0.01351081,-1.27336755394967E-5));
#1786=CARTESIAN_POINT('',(0.0941627774935305,-0.01351081,0.0044872663244605));
#1787=CARTESIAN_POINT('',(0.0941627774935305,-0.01101081,0.0044872663244605));
#1788=CARTESIAN_POINT('',(0.0941627774935305,-0.00851081,0.0044872663244605));
#1789=CARTESIAN_POINT('',(0.0941627774935305,-0.00851081,-1.2733675539495E-5));
#1790=CARTESIAN_POINT('',(0.0441627774935304,-0.015,0.0149872663244605));
#1791=CARTESIAN_POINT('',(-0.00583722250646954,-0.001,0.0149872663244605));
#1792=CARTESIAN_POINT('',(-0.00583722250646953,-0.001,0.0149872663244605));
#1793=CARTESIAN_POINT('',(-0.00583722250646953,-0.015,0.0149872663244605));
#1794=CARTESIAN_POINT('',(-0.00583722250646953,-0.015,0.0149872663244605));
#1795=CARTESIAN_POINT('',(0.0441627774935304,-0.015,0.0149872663244605));
#1796=CARTESIAN_POINT('',(-0.00583722250646953,-0.015,0.00498726632446051));
#1797=CARTESIAN_POINT('',(-0.00583722250646953,-0.001,0.00498726632446051));
#1798=CARTESIAN_POINT('',(-0.00583722250646953,-0.001,0.0022443563244605));
#1799=CARTESIAN_POINT('',(-0.00583722250646953,-0.015,0.0022443563244605));
#1800=CARTESIAN_POINT('',(-0.00583722250646953,-0.005,0.0022443563244605));
#1801=CARTESIAN_POINT('',(-0.00583722250646953,-0.005,0.00498726632446051));
#1802=CARTESIAN_POINT('',(-0.00583722250646953,-0.005,-0.00375564367553949));
#1803=CARTESIAN_POINT('',(-0.00583722250646953,-0.015,-0.00375564367553949));
#1804=CARTESIAN_POINT('',(-0.00583722250646953,0.,-0.00433818672920621));
#1805=CARTESIAN_POINT('',(-0.00583722250646953,-0.000262961490079761,-0.00433818672920622));
#1806=CARTESIAN_POINT('',(-0.00583722250646953,-0.000262961490079761,-0.0289381867292062));
#1807=CARTESIAN_POINT('',(-0.00583722250646953,-0.000262961490079761,-0.00501273367553949));
#1808=CARTESIAN_POINT('',(-0.00583722250646953,-0.015,-0.00501273367553949));
#1809=CARTESIAN_POINT('',(-0.00583722250646953,-0.015,-0.00501273367553949));
#1810=CARTESIAN_POINT('',(-0.00583722250646953,-0.015,0.00498726632446051));
#1811=CARTESIAN_POINT('',(0.0441627774935304,-0.015,-0.00501273367553949));
#1812=CARTESIAN_POINT('',(0.0441627774935304,-0.000262961490079761,-0.00501273367553949));
#1813=CARTESIAN_POINT('',(0.0931627774935305,-0.000262961490079761,-0.00501273367553949));
#1814=CARTESIAN_POINT('',(0.0931627774935305,0.00073703850992024,-0.00501273367553949));
#1815=CARTESIAN_POINT('',(0.0441627774935304,-0.015,-0.00501273367553949));
#1816=CARTESIAN_POINT('',(0.0441627774935304,-0.015,0.00498726632446051));
#1817=CARTESIAN_POINT('',(0.0441627774935304,-0.0149,0.0137301763244605));
#1818=CARTESIAN_POINT('',(0.0441627774935304,-0.0149,0.0137301763244605));
#1819=CARTESIAN_POINT('',(-0.00276938250646953,-0.0149,0.0137301763244605));
#1820=CARTESIAN_POINT('',(-0.00276938250646953,-0.0149,0.0137301763244605));
#1821=CARTESIAN_POINT('',(-0.00276938250646953,-0.0149,0.00498726632446051));
#1822=CARTESIAN_POINT('',(-0.00276938250646953,-0.0149,0.0022443563244605));
#1823=CARTESIAN_POINT('',(-0.00276938250646953,-0.005,0.0022443563244605));
#1824=CARTESIAN_POINT('',(-0.00276938250646953,-0.0149,0.00498726632446051));
#1825=CARTESIAN_POINT('',(-0.00276938250646953,-0.005,0.00498726632446051));
#1826=CARTESIAN_POINT('',(0.0441627774935304,-0.0149,0.00498726632446051));
#1827=CARTESIAN_POINT('',(0.0191619374935304,-0.0149,0.00748817632446051));
#1828=CARTESIAN_POINT('',(0.0191619374935304,-0.0149,0.00818817632446051));
#1829=CARTESIAN_POINT('',(0.0691627774935305,-0.01101081,0.0044872663244605));
#1830=CARTESIAN_POINT('',(0.0691627774935305,-0.00851081,0.0044872663244605));
#1831=CARTESIAN_POINT('',(0.0691627774935305,-0.01351081,0.0044872663244605));
#1832=CARTESIAN_POINT('',(0.0691627774935305,-0.01351081,-1.27336755394967E-5));
#1833=CARTESIAN_POINT('',(0.0691627774935305,-0.00851081,-1.2733675539495E-5));
#1834=CARTESIAN_POINT('',(0.0828025877944277,-0.00851081,-0.00325564367553949));
#1835=CARTESIAN_POINT('',(0.074510238095325,-0.00851081,-0.00325564367553949));
#1836=CARTESIAN_POINT('',(0.074510238095325,-0.00851081,-0.00325564367553949));
#1837=CARTESIAN_POINT('',(0.074510238095325,-0.0081644680859122,-0.00325564367553949));
#1838=CARTESIAN_POINT('',(0.074510238095325,-0.0081644680859122,-0.00325564367553949));
#1839=CARTESIAN_POINT('',(0.074510238095325,-0.0078181261718244,-0.00325564367553949));
#1840=CARTESIAN_POINT('',(0.074510238095325,-0.0078181261718244,-0.00325564367553949));
#1841=CARTESIAN_POINT('',(0.0828025877944277,-0.0078181261718244,-0.00325564367553949));
#1842=CARTESIAN_POINT('',(0.0828025877944277,-0.0078181261718244,-0.00325564367553949));
#1843=CARTESIAN_POINT('',(0.0456966974935305,-0.00745,-0.00325564367553949));
#1844=CARTESIAN_POINT('',(0.0191619374935304,-0.005,0.00748817632446051));
#1845=CARTESIAN_POINT('',(0.0191619374935304,-0.005,0.00748817632446051));
#1846=CARTESIAN_POINT('',(0.0191619374935304,-0.005,0.00678817632446051));
#1847=CARTESIAN_POINT('',(0.0441627774935304,-0.005,0.00498726632446051));
#1848=CARTESIAN_POINT('',(0.0441627774935304,-0.000262961490079761,-0.0300127336755395));
#1849=CARTESIAN_POINT('',(-0.00503722250646953,-0.000262961490079761,-0.00493818672920621));
#1850=CARTESIAN_POINT('',(-0.0870372225064695,-0.000262961490079761,-0.00363818672920621));
#1851=CARTESIAN_POINT('',(-0.0870372225064695,-0.000262961490079761,-0.00363818672920621));
#1852=CARTESIAN_POINT('',(-0.0880372225064695,-0.000262961490079761,-0.00363818672920621));
#1853=CARTESIAN_POINT('',(-0.0880372225064695,-0.000262961490079761,-0.00363818672920621));
#1854=CARTESIAN_POINT('',(-0.0880372225064695,-0.000262961490079761,-0.0289381867292062));
#1855=CARTESIAN_POINT('',(-0.0880372225064695,-0.000262961490079761,-0.0539381867292062));
#1856=CARTESIAN_POINT('',(-0.00603722250646953,-0.000262961490079761,-0.0539381867292062));
#1857=CARTESIAN_POINT('',(-0.00583722250646953,-0.000262961490079761,-0.0539381867292062));
#1858=CARTESIAN_POINT('',(-0.00583722250646953,-0.000262961490079761,-0.0289381867292062));
#1859=CARTESIAN_POINT('',(-0.00583722250646953,-0.000262961490079761,-0.0300127336755395));
#1860=CARTESIAN_POINT('',(0.0441627774935304,-0.000262961490079761,-0.0300127336755395));
#1861=CARTESIAN_POINT('',(0.0931627774935305,-0.000262961490079761,-0.0300127336755395));
#1862=CARTESIAN_POINT('',(0.0931627774935305,-0.000262961490079761,-0.0300127336755395));
#1863=CARTESIAN_POINT('',(0.0441627774935304,-0.0075,-0.0300127336755395));
#1864=CARTESIAN_POINT('',(-0.00583722250646953,-0.015,-0.0300127336755395));
#1865=CARTESIAN_POINT('',(-0.00583722250646953,0.039,-0.0300127336755395));
#1866=CARTESIAN_POINT('',(0.0441627774935304,0.039,-0.0300127336755395));
#1867=CARTESIAN_POINT('',(0.0931627774935305,0.039,-0.0300127336755395));
#1868=CARTESIAN_POINT('',(0.0931627774935305,-0.0075,-0.0300127336755395));
#1869=CARTESIAN_POINT('',(0.0824709179513156,0.022,-0.0255011050030589));
#1870=CARTESIAN_POINT('',(0.0824709179513156,0.022,-0.0258481758362698));
#1871=CARTESIAN_POINT('',(0.0824709179513156,0.022,-0.0258481758362698));
#1872=CARTESIAN_POINT('',(0.0824709179513156,0.022,-0.0255011050030589));
#1873=CARTESIAN_POINT('',(0.0824709179513156,0.022,-0.0251540341698481));
#1874=CARTESIAN_POINT('',(0.0824709179513156,0.022,-0.0251540341698481));
#1875=CARTESIAN_POINT('',(0.0504709179513156,0.022,-0.0258481758362698));
#1876=CARTESIAN_POINT('',(0.0184709179513156,0.022,-0.0258481758362698));
#1877=CARTESIAN_POINT('',(0.0184709179513156,0.022,-0.0258481758362698));
#1878=CARTESIAN_POINT('',(0.0504709179513156,0.022,-0.0258481758362698));
#1879=CARTESIAN_POINT('',(0.0184709179513156,0.022,-0.0255011050030589));
#1880=CARTESIAN_POINT('',(0.0184709179513156,0.022,-0.0251540341698481));
#1881=CARTESIAN_POINT('',(0.0184709179513156,0.022,-0.0251540341698481));
#1882=CARTESIAN_POINT('',(0.0184709179513156,0.022,-0.0255011050030589));
#1883=CARTESIAN_POINT('',(0.0504709179513156,0.022,-0.0251540341698481));
#1884=CARTESIAN_POINT('',(0.0504709179513156,0.022,-0.0251540341698481));
#1885=CARTESIAN_POINT('',(0.0441627774935304,0.022,-0.00751273367553949));
#1886=CARTESIAN_POINT('',(0.0284241535488702,-0.005,0.00498726632446051));
#1887=CARTESIAN_POINT('',(-0.00523973140137717,-0.005,0.0022443563244605));
#1888=CARTESIAN_POINT('',(0.0268350075930357,-0.005,0.0022443563244605));
#1889=CARTESIAN_POINT('',(0.0268350075930357,-0.005,-0.000755643675539494));
#1890=CARTESIAN_POINT('',(-0.00523973140137717,-0.005,0.0022443563244605));
#1891=CARTESIAN_POINT('',(0.0268350075930357,-0.005,0.0022443563244605));
#1892=CARTESIAN_POINT('',(0.0268350075930357,-0.005,-0.000755643675539494));
#1893=CARTESIAN_POINT('',(-0.00523973140137717,-0.005,-0.00375564367553949));
#1894=CARTESIAN_POINT('',(-0.00523973140137717,-0.005,-0.00375564367553949));
#1895=CARTESIAN_POINT('',(-0.03731447039579,-0.005,-0.00375564367553949));
#1896=CARTESIAN_POINT('',(-0.03731447039579,-0.005,-0.00375564367553949));
#1897=CARTESIAN_POINT('',(-0.00523973140137717,-0.005,0.0022443563244605));
#1898=CARTESIAN_POINT('',(-0.00483722250646953,-0.001,0.0022443563244605));
#1899=CARTESIAN_POINT('',(-0.03731447039579,-0.005,0.0022443563244605));
#1900=CARTESIAN_POINT('',(-0.03731447039579,-0.005,0.0022443563244605));
#1901=CARTESIAN_POINT('',(-0.00523973140137717,-0.005,0.0022443563244605));
#1902=CARTESIAN_POINT('',(0.0284241535488702,-0.005,0.00498726632446051));
#1903=CARTESIAN_POINT('',(-0.03731447039579,-0.005,-0.000755643675539494));
#1904=CARTESIAN_POINT('',(-0.03731447039579,-0.005,-0.000755643675539494));
#1905=CARTESIAN_POINT('',(0.0284241535488702,0.04,-0.00751273367553949));
#1906=CARTESIAN_POINT('',(-0.00503722250646953,0.04,-0.00751273367553949));
#1907=CARTESIAN_POINT('',(-0.00503722250646953,0.04,-0.0290127336755395));
#1908=CARTESIAN_POINT('',(-0.00503722250646953,0.04,-0.00493818672920621));
#1909=CARTESIAN_POINT('',(0.0284241535488702,0.04,-0.00493818672920621));
#1910=CARTESIAN_POINT('',(0.0931627774935305,0.04,-0.00493818672920621));
#1911=CARTESIAN_POINT('',(0.0931627774935305,0.04,-0.00751273367553949));
#1912=CARTESIAN_POINT('',(0.0931627774935305,0.04,-0.0290127336755395));
#1913=CARTESIAN_POINT('',(0.0284241535488702,0.04,-0.0290127336755395));
#1914=CARTESIAN_POINT('',(-0.00483722250646953,0.0195,-0.00393818672920622));
#1915=CARTESIAN_POINT('',(-0.00483722250646954,0.039,-0.00393818672920622));
#1916=CARTESIAN_POINT('',(-0.00483722250646954,0.039,-0.00393818672920622));
#1917=CARTESIAN_POINT('',(-0.00483722250646953,0.0195,-0.00393818672920622));
#1918=CARTESIAN_POINT('',(0.0440668477224231,0.039,-0.00393818672920622));
#1919=CARTESIAN_POINT('',(0.0929709179513156,0.039,-0.00393818672920622));
#1920=CARTESIAN_POINT('',(0.0440668477224231,0.039,-0.00393818672920622));
#1921=CARTESIAN_POINT('',(0.0929709179513156,0.0195,-0.00393818672920622));
#1922=CARTESIAN_POINT('',(0.0441627774935304,0.02,-0.00393818672920622));
#1923=CARTESIAN_POINT('',(0.0441627774935304,0.039,-0.00393818672920622));
#1924=CARTESIAN_POINT('',(-0.00503722250646953,0.039,-0.00393818672920622));
#1925=CARTESIAN_POINT('',(-0.00503722250646953,0.02,-0.00393818672920622));
#1926=CARTESIAN_POINT('',(-0.00603722250646953,0.0198685192549601,-0.0539381867292062));
#1927=CARTESIAN_POINT('',(-0.0880372225064695,0.0198685192549601,-0.0539381867292062));
#1928=CARTESIAN_POINT('',(-0.0880372225064695,0.039,-0.0539381867292062));
#1929=CARTESIAN_POINT('',(-0.0870372225064695,0.039,-0.0539381867292062));
#1930=CARTESIAN_POINT('',(-0.00583722250646953,0.0198685192549601,-0.0539381867292062));
#1931=CARTESIAN_POINT('',(-0.00583722250646953,0.0125,-0.0194754602023728));
#1932=CARTESIAN_POINT('',(-0.00583722250646953,0.0396,-0.0194754602023728));
#1933=CARTESIAN_POINT('',(-0.00583722250646953,0.0396,-0.0298127336755396));
#1934=CARTESIAN_POINT('',(-0.00583722250646953,0.039,-0.0290127336755395));
#1935=CARTESIAN_POINT('',(-0.0880372225064695,0.0198685192549601,-0.0289381867292062));
#1936=CARTESIAN_POINT('',(-0.0880372225064695,0.0198685192549601,-0.00363818672920621));
#1937=CARTESIAN_POINT('',(-0.0880372225064695,0.039,-0.00363818672920621));
#1938=CARTESIAN_POINT('',(-0.0880372225064695,0.039,-0.0289381867292062));
#1939=CARTESIAN_POINT('',(-0.0620372225064695,0.039,-0.00363818672920621));
#1940=CARTESIAN_POINT('',(-0.0620372225064695,0.039,-0.00363818672920621));
#1941=CARTESIAN_POINT('',(-0.0870372225064695,0.039,-0.00363818672920621));
#1942=CARTESIAN_POINT('',(-0.0360372225064695,0.039,-0.00363818672920621));
#1943=CARTESIAN_POINT('',(-0.0870372225064695,0.039,-0.00363818672920621));
#1944=CARTESIAN_POINT('',(-0.0360372225064695,0.039,-0.00363818672920621));
#1945=CARTESIAN_POINT('',(-0.0470372225064695,0.0198685192549601,-0.00363818672920621));
#1946=CARTESIAN_POINT('',(-0.0870372225064695,0.0193685192549601,-0.00363818672920621));
#1947=CARTESIAN_POINT('',(-0.0470372225064695,0.039,-0.00363818672920621));
#1948=CARTESIAN_POINT('',(-0.0870372225064695,0.0193685192549601,-0.00363818672920621));
#1949=CARTESIAN_POINT('',(-0.0870372225064695,0.039,-0.0289381867292062));
#1950=CARTESIAN_POINT('',(-0.0870372225064695,0.039,-0.00463818672920621));
#1951=CARTESIAN_POINT('',(-0.0370372225064695,0.039,-0.00751273367553949));
#1952=CARTESIAN_POINT('',(-0.0370372225064695,0.039,-0.00463818672920621));
#1953=CARTESIAN_POINT('',(0.0284241535488702,0.039,-0.00463818672920621));
#1954=CARTESIAN_POINT('',(0.0931627774935305,0.00073703850992024,-0.0300127336755395));
#1955=CARTESIAN_POINT('',(0.0931627774935305,0.00073703850992024,-0.0290127336755395));
#1956=CARTESIAN_POINT('',(0.0931627774935305,-0.015,-0.0290127336755395));
#1957=CARTESIAN_POINT('',(0.0931627774935305,0.039,-0.0290127336755395));
#1958=CARTESIAN_POINT('',(0.0931627774935305,0.039,-0.00751273367553949));
#1959=CARTESIAN_POINT('',(0.0931627774935305,0.039,-0.00493818672920621));
#1960=CARTESIAN_POINT('',(0.0931627774935305,0.039,-0.0290127336755395));
#1961=CARTESIAN_POINT('',(0.0931627774935305,0.039,-0.0290127336755395));
#1962=CARTESIAN_POINT('',(0.0931627774935305,0.039,-0.0290127336755395));
#1963=CARTESIAN_POINT('',(0.0441627774935304,0.039,-0.0290127336755395));
#1964=CARTESIAN_POINT('',(-0.00503722250646953,0.039,-0.0290127336755395));
#1965=CARTESIAN_POINT('',(-0.00503722250646953,0.039,-0.0194754602023728));
#1966=CARTESIAN_POINT('',(-0.00503722250646953,0.039,-0.00493818672920621));
#1967=CARTESIAN_POINT('',(-0.00503722250646953,0.02,-0.00493818672920621));
#1968=CARTESIAN_POINT('',(-0.00503722250646953,0.039,-0.00493818672920621));
#1969=CARTESIAN_POINT('',(-0.00503722250646953,0.039,-0.00493818672920621));
#1970=CARTESIAN_POINT('',(-0.00503722250646953,0.039,-0.00493818672920621));
#1971=CARTESIAN_POINT('',(0.0441627774935304,0.039,-0.00493818672920621));
#1972=CARTESIAN_POINT('',(0.0931627774935305,0.039,-0.00493818672920621));
#1973=CARTESIAN_POINT('',(-0.00483722250646953,-0.001,0.00498726632446051));
#1974=CARTESIAN_POINT('',(-0.00483722250646953,-0.001,0.0139872663244605));
#1975=CARTESIAN_POINT('',(0.0931627774935305,0.039,-0.00493818672920621));
#1976=CARTESIAN_POINT('',(0.0931627774935305,0.039,-0.00493818672920621));
#1977=CARTESIAN_POINT('',(0.0441627774935304,-0.001,0.0139872663244605));
#1978=CARTESIAN_POINT('',(0.0931627774935305,-0.001,0.0139872663244605));
#1979=CARTESIAN_POINT('',(0.0931627774935305,-0.015,-0.00493818672920621));
#1980=CARTESIAN_POINT('',(0.0931627774935305,-0.001,-0.00493818672920621));
#1981=CARTESIAN_POINT('',(0.0931627774935305,-0.001,0.00498726632446051));
#1982=MECHANICAL_DESIGN_GEOMETRIC_PRESENTATION_REPRESENTATION('',(#1208),
#1983);
#1983=(
GEOMETRIC_REPRESENTATION_CONTEXT(3)
GLOBAL_UNCERTAINTY_ASSIGNED_CONTEXT((#1984))
GLOBAL_UNIT_ASSIGNED_CONTEXT((#1987,#1986,#1985))
REPRESENTATION_CONTEXT('Part 1','TOP_LEVEL_ASSEMBLY_PART')
);
#1984=UNCERTAINTY_MEASURE_WITH_UNIT(LENGTH_MEASURE(1.E-8),#1987,
'DISTANCE_ACCURACY_VALUE','Maximum Tolerance applied to model');
#1985=(
NAMED_UNIT(*)
SI_UNIT($,.STERADIAN.)
SOLID_ANGLE_UNIT()
);
#1986=(
NAMED_UNIT(*)
PLANE_ANGLE_UNIT()
SI_UNIT($,.RADIAN.)
);
#1987=(
LENGTH_UNIT()
NAMED_UNIT(*)
SI_UNIT($,.METRE.)
);
#1988=PRODUCT_DEFINITION_SHAPE('','',#1989);
#1989=PRODUCT_DEFINITION('','',#1991,#1990);
#1990=PRODUCT_DEFINITION_CONTEXT('',#1997,'design');
#1991=PRODUCT_DEFINITION_FORMATION_WITH_SPECIFIED_SOURCE('','',#1993,
 .NOT_KNOWN.);
#1992=PRODUCT_RELATED_PRODUCT_CATEGORY('','',(#1993));
#1993=PRODUCT('Part 1','Part 1','Part 1',(#1995));
#1994=PRODUCT_CATEGORY('','');
#1995=PRODUCT_CONTEXT('',#1997,'mechanical');
#1996=APPLICATION_PROTOCOL_DEFINITION('international standard',
'ap242_managed_model_based_3d_engineering',2020,#1997);
#1997=APPLICATION_CONTEXT('managed model based 3d engineering');
ENDSEC;
END-ISO-10303-21;
