ISO-10303-21;
HEADER;
/* Generated by software containing ST-Developer
 * from STEP Tools, Inc. (www.steptools.com) 
 */
/* OPTION: using custom renumber hook */

FILE_DESCRIPTION(
/* description */ ('STEP AP242 Edition 2',
'CAx-IF Rec.Pracs.---Representation and Presentation of Product Manufa
cturing Information (PMI)---4.0---2014-10-13',
'CAx-IF Rec.Pracs.---3D Tessellated Geometry---0.4---2014-09-14','2;1',
'CAx-IF Rec.Pracs.---User Defined Attributes---1.5---2016-08-15'),
/* implementation_level */ '2;1');

FILE_NAME(
/* name */ 'Part Studio 3',
/* time_stamp */ '2026-05-30T19:26:47Z',
/* author */ (''),
/* organization */ (''),
/* preprocessor_version */ 'ST-DEVELOPER v20',
/* originating_system */ 'ONSHAPE BY PTC INC, 1.215',
/* authorisation */ '  ');

FILE_SCHEMA (('AP242_MANAGED_MODEL_BASED_3D_ENGINEERING_MIM_LF { 1 0 10303 442 3 1 4 }'));
ENDSEC;

DATA;
#10=ADVANCED_BREP_SHAPE_REPRESENTATION('',(#338),#2003);
#11=ADVANCED_BREP_SHAPE_REPRESENTATION('',(#339),#2004);
#12=ELLIPSE('',#1302,0.00141421356237309,0.001);
#13=ELLIPSE('',#1303,0.00141421356237309,0.001);
#14=ELLIPSE('',#1305,0.00141421356237309,0.001);
#15=ELLIPSE('',#1307,0.00141421356237309,0.001);
#16=LINE('',#1671,#149);
#17=LINE('',#1674,#150);
#18=LINE('',#1676,#151);
#19=LINE('',#1678,#152);
#20=LINE('',#1680,#153);
#21=LINE('',#1682,#154);
#22=LINE('',#1684,#155);
#23=LINE('',#1686,#156);
#24=LINE('',#1687,#157);
#25=LINE('',#1690,#158);
#26=LINE('',#1692,#159);
#27=LINE('',#1694,#160);
#28=LINE('',#1696,#161);
#29=LINE('',#1699,#162);
#30=LINE('',#1701,#163);
#31=LINE('',#1703,#164);
#32=LINE('',#1704,#165);
#33=LINE('',#1707,#166);
#34=LINE('',#1709,#167);
#35=LINE('',#1711,#168);
#36=LINE('',#1713,#169);
#37=LINE('',#1716,#170);
#38=LINE('',#1718,#171);
#39=LINE('',#1720,#172);
#40=LINE('',#1722,#173);
#41=LINE('',#1724,#174);
#42=LINE('',#1726,#175);
#43=LINE('',#1729,#176);
#44=LINE('',#1731,#177);
#45=LINE('',#1733,#178);
#46=LINE('',#1734,#179);
#47=LINE('',#1737,#180);
#48=LINE('',#1739,#181);
#49=LINE('',#1741,#182);
#50=LINE('',#1743,#183);
#51=LINE('',#1746,#184);
#52=LINE('',#1748,#185);
#53=LINE('',#1750,#186);
#54=LINE('',#1752,#187);
#55=LINE('',#1753,#188);
#56=LINE('',#1754,#189);
#57=LINE('',#1755,#190);
#58=LINE('',#1758,#191);
#59=LINE('',#1760,#192);
#60=LINE('',#1762,#193);
#61=LINE('',#1763,#194);
#62=LINE('',#1766,#195);
#63=LINE('',#1768,#196);
#64=LINE('',#1770,#197);
#65=LINE('',#1771,#198);
#66=LINE('',#1774,#199);
#67=LINE('',#1776,#200);
#68=LINE('',#1778,#201);
#69=LINE('',#1779,#202);
#70=LINE('',#1781,#203);
#71=LINE('',#1783,#204);
#72=LINE('',#1785,#205);
#73=LINE('',#1787,#206);
#74=LINE('',#1789,#207);
#75=LINE('',#1791,#208);
#76=LINE('',#1793,#209);
#77=LINE('',#1795,#210);
#78=LINE('',#1797,#211);
#79=LINE('',#1799,#212);
#80=LINE('',#1802,#213);
#81=LINE('',#1804,#214);
#82=LINE('',#1806,#215);
#83=LINE('',#1809,#216);
#84=LINE('',#1810,#217);
#85=LINE('',#1812,#218);
#86=LINE('',#1814,#219);
#87=LINE('',#1816,#220);
#88=LINE('',#1818,#221);
#89=LINE('',#1820,#222);
#90=LINE('',#1823,#223);
#91=LINE('',#1825,#224);
#92=LINE('',#1827,#225);
#93=LINE('',#1829,#226);
#94=LINE('',#1831,#227);
#95=LINE('',#1833,#228);
#96=LINE('',#1835,#229);
#97=LINE('',#1837,#230);
#98=LINE('',#1839,#231);
#99=LINE('',#1841,#232);
#100=LINE('',#1843,#233);
#101=LINE('',#1845,#234);
#102=LINE('',#1847,#235);
#103=LINE('',#1849,#236);
#104=LINE('',#1851,#237);
#105=LINE('',#1853,#238);
#106=LINE('',#1855,#239);
#107=LINE('',#1857,#240);
#108=LINE('',#1858,#241);
#109=LINE('',#1862,#242);
#110=LINE('',#1864,#243);
#111=LINE('',#1866,#244);
#112=LINE('',#1868,#245);
#113=LINE('',#1871,#246);
#114=LINE('',#1872,#247);
#115=LINE('',#1873,#248);
#116=LINE('',#1881,#249);
#117=LINE('',#1882,#250);
#118=LINE('',#1884,#251);
#119=LINE('',#1885,#252);
#120=LINE('',#1889,#253);
#121=LINE('',#1891,#254);
#122=LINE('',#1893,#255);
#123=LINE('',#1897,#256);
#124=LINE('',#1899,#257);
#125=LINE('',#1901,#258);
#126=LINE('',#1903,#259);
#127=LINE('',#1905,#260);
#128=LINE('',#1908,#261);
#129=LINE('',#1915,#262);
#130=LINE('',#1917,#263);
#131=LINE('',#1919,#264);
#132=LINE('',#1921,#265);
#133=LINE('',#1923,#266);
#134=LINE('',#1925,#267);
#135=LINE('',#1927,#268);
#136=LINE('',#1929,#269);
#137=LINE('',#1954,#270);
#138=LINE('',#1957,#271);
#139=LINE('',#1959,#272);
#140=LINE('',#1961,#273);
#141=LINE('',#1963,#274);
#142=LINE('',#1965,#275);
#143=LINE('',#1967,#276);
#144=LINE('',#1969,#277);
#145=LINE('',#1971,#278);
#146=LINE('',#1973,#279);
#147=LINE('',#1975,#280);
#148=LINE('',#1976,#281);
#149=VECTOR('',#1352,1.);
#150=VECTOR('',#1353,1.);
#151=VECTOR('',#1354,1.);
#152=VECTOR('',#1355,1.);
#153=VECTOR('',#1356,1.);
#154=VECTOR('',#1357,1.);
#155=VECTOR('',#1358,1.);
#156=VECTOR('',#1359,1.);
#157=VECTOR('',#1360,1.);
#158=VECTOR('',#1361,1.);
#159=VECTOR('',#1362,1.);
#160=VECTOR('',#1363,1.);
#161=VECTOR('',#1366,1.);
#162=VECTOR('',#1367,1.);
#163=VECTOR('',#1368,1.);
#164=VECTOR('',#1369,1.);
#165=VECTOR('',#1370,1.);
#166=VECTOR('',#1371,1.);
#167=VECTOR('',#1372,1.);
#168=VECTOR('',#1373,1.);
#169=VECTOR('',#1376,1.);
#170=VECTOR('',#1377,1.);
#171=VECTOR('',#1378,1.);
#172=VECTOR('',#1379,1.);
#173=VECTOR('',#1380,1.);
#174=VECTOR('',#1381,1.);
#175=VECTOR('',#1384,1.);
#176=VECTOR('',#1385,1.);
#177=VECTOR('',#1386,1.);
#178=VECTOR('',#1387,1.);
#179=VECTOR('',#1388,1.);
#180=VECTOR('',#1389,1.);
#181=VECTOR('',#1390,1.);
#182=VECTOR('',#1391,1.);
#183=VECTOR('',#1394,1.);
#184=VECTOR('',#1395,1.);
#185=VECTOR('',#1396,1.);
#186=VECTOR('',#1397,1.);
#187=VECTOR('',#1400,1.);
#188=VECTOR('',#1401,1.);
#189=VECTOR('',#1402,1.);
#190=VECTOR('',#1403,1.);
#191=VECTOR('',#1404,1.);
#192=VECTOR('',#1405,1.);
#193=VECTOR('',#1406,1.);
#194=VECTOR('',#1407,1.);
#195=VECTOR('',#1408,1.);
#196=VECTOR('',#1409,1.);
#197=VECTOR('',#1410,1.);
#198=VECTOR('',#1411,1.);
#199=VECTOR('',#1412,1.);
#200=VECTOR('',#1413,1.);
#201=VECTOR('',#1414,1.);
#202=VECTOR('',#1415,1.);
#203=VECTOR('',#1416,1.);
#204=VECTOR('',#1417,1.);
#205=VECTOR('',#1420,1.);
#206=VECTOR('',#1421,1.);
#207=VECTOR('',#1422,1.);
#208=VECTOR('',#1425,1.);
#209=VECTOR('',#1426,1.);
#210=VECTOR('',#1429,1.);
#211=VECTOR('',#1430,1.);
#212=VECTOR('',#1433,1.);
#213=VECTOR('',#1438,1.);
#214=VECTOR('',#1439,1.);
#215=VECTOR('',#1442,1.);
#216=VECTOR('',#1443,1.);
#217=VECTOR('',#1444,1.);
#218=VECTOR('',#1447,1.);
#219=VECTOR('',#1448,1.);
#220=VECTOR('',#1451,1.);
#221=VECTOR('',#1454,1.);
#222=VECTOR('',#1457,1.);
#223=VECTOR('',#1458,1.);
#224=VECTOR('',#1459,1.);
#225=VECTOR('',#1460,1.);
#226=VECTOR('',#1463,1.);
#227=VECTOR('',#1464,1.);
#228=VECTOR('',#1465,1.);
#229=VECTOR('',#1468,1.);
#230=VECTOR('',#1469,1.);
#231=VECTOR('',#1470,1.);
#232=VECTOR('',#1473,1.);
#233=VECTOR('',#1474,1.);
#234=VECTOR('',#1475,1.);
#235=VECTOR('',#1478,1.);
#236=VECTOR('',#1479,1.);
#237=VECTOR('',#1482,1.);
#238=VECTOR('',#1483,1.);
#239=VECTOR('',#1486,1.);
#240=VECTOR('',#1489,1.);
#241=VECTOR('',#1490,1.);
#242=VECTOR('',#1497,1.);
#243=VECTOR('',#1498,1.);
#244=VECTOR('',#1499,1.);
#245=VECTOR('',#1502,1.);
#246=VECTOR('',#1503,1.);
#247=VECTOR('',#1504,1.);
#248=VECTOR('',#1505,1.);
#249=VECTOR('',#1516,1.);
#250=VECTOR('',#1517,1.);
#251=VECTOR('',#1520,1.);
#252=VECTOR('',#1521,1.);
#253=VECTOR('',#1528,1.);
#254=VECTOR('',#1529,1.);
#255=VECTOR('',#1530,1.);
#256=VECTOR('',#1535,1.);
#257=VECTOR('',#1536,1.);
#258=VECTOR('',#1539,1.);
#259=VECTOR('',#1540,1.);
#260=VECTOR('',#1543,1.);
#261=VECTOR('',#1548,1.);
#262=VECTOR('',#1559,1.);
#263=VECTOR('',#1560,1.);
#264=VECTOR('',#1561,1.);
#265=VECTOR('',#1564,1.);
#266=VECTOR('',#1565,1.);
#267=VECTOR('',#1568,1.);
#268=VECTOR('',#1569,1.);
#269=VECTOR('',#1572,1.);
#270=VECTOR('',#1617,1.);
#271=VECTOR('',#1618,1.);
#272=VECTOR('',#1619,1.);
#273=VECTOR('',#1620,1.);
#274=VECTOR('',#1623,1.);
#275=VECTOR('',#1624,1.);
#276=VECTOR('',#1625,1.);
#277=VECTOR('',#1628,1.);
#278=VECTOR('',#1629,1.);
#279=VECTOR('',#1630,1.);
#280=VECTOR('',#1633,1.);
#281=VECTOR('',#1634,1.);
#282=PLANE('',#1250);
#283=PLANE('',#1251);
#284=PLANE('',#1252);
#285=PLANE('',#1253);
#286=PLANE('',#1254);
#287=PLANE('',#1255);
#288=PLANE('',#1256);
#289=PLANE('',#1257);
#290=PLANE('',#1258);
#291=PLANE('',#1259);
#292=PLANE('',#1260);
#293=PLANE('',#1261);
#294=PLANE('',#1262);
#295=PLANE('',#1263);
#296=PLANE('',#1264);
#297=PLANE('',#1265);
#298=PLANE('',#1266);
#299=PLANE('',#1267);
#300=PLANE('',#1268);
#301=PLANE('',#1269);
#302=PLANE('',#1270);
#303=PLANE('',#1271);
#304=PLANE('',#1272);
#305=PLANE('',#1273);
#306=PLANE('',#1274);
#307=PLANE('',#1275);
#308=PLANE('',#1276);
#309=PLANE('',#1277);
#310=PLANE('',#1278);
#311=PLANE('',#1283);
#312=PLANE('',#1284);
#313=PLANE('',#1285);
#314=PLANE('',#1286);
#315=PLANE('',#1287);
#316=PLANE('',#1289);
#317=PLANE('',#1290);
#318=PLANE('',#1291);
#319=PLANE('',#1292);
#320=PLANE('',#1293);
#321=PLANE('',#1296);
#322=PLANE('',#1297);
#323=PLANE('',#1298);
#324=PLANE('',#1299);
#325=PLANE('',#1300);
#326=PLANE('',#1311);
#327=PLANE('',#1314);
#328=PLANE('',#1317);
#329=PLANE('',#1320);
#330=PLANE('',#1322);
#331=PLANE('',#1323);
#332=PLANE('',#1324);
#333=PLANE('',#1325);
#334=PLANE('',#1326);
#335=PLANE('',#1331);
#336=CLOSED_SHELL('',(#1146,#1147,#1148,#1149,#1150,#1151,#1152,#1153,#1154,
#1155,#1156,#1157,#1158,#1159,#1160,#1161,#1162,#1163,#1164,#1165,#1166,
#1167,#1168,#1169,#1170,#1171,#1172,#1173,#1174,#1175,#1176,#1177,#1178,
#1179,#1180,#1181,#1182,#1183,#1184,#1185,#1186,#1187,#1188,#1189,#1190,
#1191,#1192,#1193,#1194,#1195,#1196,#1197,#1198,#1199,#1200,#1201,#1202));
#337=CLOSED_SHELL('',(#1203,#1204,#1205,#1206,#1207,#1208,#1209,#1210,#1211,
#1212));
#338=MANIFOLD_SOLID_BREP('Part 1',#336);
#339=MANIFOLD_SOLID_BREP('Part 2',#337);
#340=SHAPE_REPRESENTATION_RELATIONSHIP('','',#1242,#343);
#341=SHAPE_REPRESENTATION_RELATIONSHIP('','',#1243,#10);
#342=SHAPE_REPRESENTATION_RELATIONSHIP('','',#1244,#11);
#343=MANIFOLD_SURFACE_SHAPE_REPRESENTATION('',(#1238),#2002);
#344=ORIENTED_EDGE('',*,*,#656,.T.);
#345=ORIENTED_EDGE('',*,*,#657,.F.);
#346=ORIENTED_EDGE('',*,*,#658,.F.);
#347=ORIENTED_EDGE('',*,*,#659,.T.);
#348=ORIENTED_EDGE('',*,*,#660,.T.);
#349=ORIENTED_EDGE('',*,*,#661,.F.);
#350=ORIENTED_EDGE('',*,*,#662,.F.);
#351=ORIENTED_EDGE('',*,*,#663,.T.);
#352=ORIENTED_EDGE('',*,*,#664,.F.);
#353=ORIENTED_EDGE('',*,*,#665,.T.);
#354=ORIENTED_EDGE('',*,*,#666,.T.);
#355=ORIENTED_EDGE('',*,*,#667,.T.);
#356=ORIENTED_EDGE('',*,*,#668,.F.);
#357=ORIENTED_EDGE('',*,*,#669,.F.);
#358=ORIENTED_EDGE('',*,*,#670,.T.);
#359=ORIENTED_EDGE('',*,*,#671,.T.);
#360=ORIENTED_EDGE('',*,*,#672,.T.);
#361=ORIENTED_EDGE('',*,*,#673,.T.);
#362=ORIENTED_EDGE('',*,*,#674,.T.);
#363=ORIENTED_EDGE('',*,*,#675,.F.);
#364=ORIENTED_EDGE('',*,*,#676,.F.);
#365=ORIENTED_EDGE('',*,*,#677,.T.);
#366=ORIENTED_EDGE('',*,*,#678,.F.);
#367=ORIENTED_EDGE('',*,*,#679,.F.);
#368=ORIENTED_EDGE('',*,*,#680,.F.);
#369=ORIENTED_EDGE('',*,*,#681,.T.);
#370=ORIENTED_EDGE('',*,*,#682,.T.);
#371=ORIENTED_EDGE('',*,*,#683,.F.);
#372=ORIENTED_EDGE('',*,*,#684,.F.);
#373=ORIENTED_EDGE('',*,*,#685,.F.);
#374=ORIENTED_EDGE('',*,*,#686,.T.);
#375=ORIENTED_EDGE('',*,*,#687,.T.);
#376=ORIENTED_EDGE('',*,*,#688,.F.);
#377=ORIENTED_EDGE('',*,*,#689,.T.);
#378=ORIENTED_EDGE('',*,*,#690,.T.);
#379=ORIENTED_EDGE('',*,*,#691,.F.);
#380=ORIENTED_EDGE('',*,*,#692,.F.);
#381=ORIENTED_EDGE('',*,*,#693,.F.);
#382=ORIENTED_EDGE('',*,*,#694,.T.);
#383=ORIENTED_EDGE('',*,*,#695,.T.);
#384=ORIENTED_EDGE('',*,*,#696,.T.);
#385=ORIENTED_EDGE('',*,*,#691,.T.);
#386=ORIENTED_EDGE('',*,*,#697,.F.);
#387=ORIENTED_EDGE('',*,*,#682,.F.);
#388=ORIENTED_EDGE('',*,*,#698,.F.);
#389=ORIENTED_EDGE('',*,*,#661,.T.);
#390=ORIENTED_EDGE('',*,*,#699,.T.);
#391=ORIENTED_EDGE('',*,*,#700,.T.);
#392=ORIENTED_EDGE('',*,*,#701,.F.);
#393=ORIENTED_EDGE('',*,*,#702,.F.);
#394=ORIENTED_EDGE('',*,*,#703,.F.);
#395=ORIENTED_EDGE('',*,*,#704,.T.);
#396=ORIENTED_EDGE('',*,*,#705,.T.);
#397=ORIENTED_EDGE('',*,*,#706,.F.);
#398=ORIENTED_EDGE('',*,*,#707,.F.);
#399=ORIENTED_EDGE('',*,*,#708,.T.);
#400=ORIENTED_EDGE('',*,*,#709,.F.);
#401=ORIENTED_EDGE('',*,*,#710,.F.);
#402=ORIENTED_EDGE('',*,*,#695,.F.);
#403=ORIENTED_EDGE('',*,*,#711,.T.);
#404=ORIENTED_EDGE('',*,*,#712,.T.);
#405=ORIENTED_EDGE('',*,*,#713,.F.);
#406=ORIENTED_EDGE('',*,*,#704,.F.);
#407=ORIENTED_EDGE('',*,*,#714,.F.);
#408=ORIENTED_EDGE('',*,*,#715,.T.);
#409=ORIENTED_EDGE('',*,*,#716,.T.);
#410=ORIENTED_EDGE('',*,*,#714,.T.);
#411=ORIENTED_EDGE('',*,*,#703,.T.);
#412=ORIENTED_EDGE('',*,*,#717,.F.);
#413=ORIENTED_EDGE('',*,*,#718,.F.);
#414=ORIENTED_EDGE('',*,*,#717,.T.);
#415=ORIENTED_EDGE('',*,*,#706,.T.);
#416=ORIENTED_EDGE('',*,*,#719,.F.);
#417=ORIENTED_EDGE('',*,*,#720,.F.);
#418=ORIENTED_EDGE('',*,*,#705,.F.);
#419=ORIENTED_EDGE('',*,*,#716,.F.);
#420=ORIENTED_EDGE('',*,*,#721,.T.);
#421=ORIENTED_EDGE('',*,*,#719,.T.);
#422=ORIENTED_EDGE('',*,*,#715,.F.);
#423=ORIENTED_EDGE('',*,*,#718,.T.);
#424=ORIENTED_EDGE('',*,*,#720,.T.);
#425=ORIENTED_EDGE('',*,*,#721,.F.);
#426=ORIENTED_EDGE('',*,*,#711,.F.);
#427=ORIENTED_EDGE('',*,*,#694,.F.);
#428=ORIENTED_EDGE('',*,*,#722,.T.);
#429=ORIENTED_EDGE('',*,*,#723,.T.);
#430=ORIENTED_EDGE('',*,*,#724,.F.);
#431=ORIENTED_EDGE('',*,*,#725,.T.);
#432=ORIENTED_EDGE('',*,*,#707,.T.);
#433=ORIENTED_EDGE('',*,*,#726,.F.);
#434=ORIENTED_EDGE('',*,*,#726,.T.);
#435=ORIENTED_EDGE('',*,*,#713,.T.);
#436=ORIENTED_EDGE('',*,*,#727,.F.);
#437=ORIENTED_EDGE('',*,*,#728,.F.);
#438=ORIENTED_EDGE('',*,*,#712,.F.);
#439=ORIENTED_EDGE('',*,*,#723,.F.);
#440=ORIENTED_EDGE('',*,*,#729,.T.);
#441=ORIENTED_EDGE('',*,*,#727,.T.);
#442=ORIENTED_EDGE('',*,*,#722,.F.);
#443=ORIENTED_EDGE('',*,*,#693,.T.);
#444=ORIENTED_EDGE('',*,*,#730,.T.);
#445=ORIENTED_EDGE('',*,*,#724,.T.);
#446=ORIENTED_EDGE('',*,*,#728,.T.);
#447=ORIENTED_EDGE('',*,*,#729,.F.);
#448=ORIENTED_EDGE('',*,*,#731,.F.);
#449=ORIENTED_EDGE('',*,*,#732,.F.);
#450=ORIENTED_EDGE('',*,*,#733,.T.);
#451=ORIENTED_EDGE('',*,*,#734,.T.);
#452=ORIENTED_EDGE('',*,*,#735,.T.);
#453=ORIENTED_EDGE('',*,*,#736,.F.);
#454=ORIENTED_EDGE('',*,*,#737,.F.);
#455=ORIENTED_EDGE('',*,*,#732,.T.);
#456=ORIENTED_EDGE('',*,*,#738,.T.);
#457=ORIENTED_EDGE('',*,*,#739,.F.);
#458=ORIENTED_EDGE('',*,*,#740,.F.);
#459=ORIENTED_EDGE('',*,*,#736,.T.);
#460=ORIENTED_EDGE('',*,*,#699,.F.);
#461=ORIENTED_EDGE('',*,*,#741,.F.);
#462=ORIENTED_EDGE('',*,*,#742,.T.);
#463=ORIENTED_EDGE('',*,*,#743,.T.);
#464=ORIENTED_EDGE('',*,*,#702,.T.);
#465=ORIENTED_EDGE('',*,*,#744,.F.);
#466=ORIENTED_EDGE('',*,*,#745,.F.);
#467=ORIENTED_EDGE('',*,*,#741,.T.);
#468=ORIENTED_EDGE('',*,*,#701,.T.);
#469=ORIENTED_EDGE('',*,*,#746,.F.);
#470=ORIENTED_EDGE('',*,*,#747,.F.);
#471=ORIENTED_EDGE('',*,*,#744,.T.);
#472=ORIENTED_EDGE('',*,*,#700,.F.);
#473=ORIENTED_EDGE('',*,*,#743,.F.);
#474=ORIENTED_EDGE('',*,*,#748,.T.);
#475=ORIENTED_EDGE('',*,*,#746,.T.);
#476=ORIENTED_EDGE('',*,*,#749,.F.);
#477=ORIENTED_EDGE('',*,*,#734,.F.);
#478=ORIENTED_EDGE('',*,*,#750,.T.);
#479=ORIENTED_EDGE('',*,*,#739,.T.);
#480=ORIENTED_EDGE('',*,*,#742,.F.);
#481=ORIENTED_EDGE('',*,*,#745,.T.);
#482=ORIENTED_EDGE('',*,*,#747,.T.);
#483=ORIENTED_EDGE('',*,*,#748,.F.);
#484=ORIENTED_EDGE('',*,*,#733,.F.);
#485=ORIENTED_EDGE('',*,*,#737,.T.);
#486=ORIENTED_EDGE('',*,*,#740,.T.);
#487=ORIENTED_EDGE('',*,*,#750,.F.);
#488=ORIENTED_EDGE('',*,*,#731,.T.);
#489=ORIENTED_EDGE('',*,*,#749,.T.);
#490=ORIENTED_EDGE('',*,*,#738,.F.);
#491=ORIENTED_EDGE('',*,*,#735,.F.);
#492=ORIENTED_EDGE('',*,*,#751,.F.);
#493=ORIENTED_EDGE('',*,*,#752,.T.);
#494=ORIENTED_EDGE('',*,*,#753,.F.);
#495=ORIENTED_EDGE('',*,*,#662,.T.);
#496=ORIENTED_EDGE('',*,*,#698,.T.);
#497=ORIENTED_EDGE('',*,*,#681,.F.);
#498=ORIENTED_EDGE('',*,*,#754,.F.);
#499=ORIENTED_EDGE('',*,*,#755,.T.);
#500=ORIENTED_EDGE('',*,*,#679,.T.);
#501=ORIENTED_EDGE('',*,*,#756,.T.);
#502=ORIENTED_EDGE('',*,*,#688,.T.);
#503=ORIENTED_EDGE('',*,*,#696,.F.);
#504=ORIENTED_EDGE('',*,*,#660,.F.);
#505=ORIENTED_EDGE('',*,*,#757,.T.);
#506=ORIENTED_EDGE('',*,*,#758,.F.);
#507=ORIENTED_EDGE('',*,*,#665,.F.);
#508=ORIENTED_EDGE('',*,*,#759,.F.);
#509=ORIENTED_EDGE('',*,*,#751,.T.);
#510=ORIENTED_EDGE('',*,*,#680,.T.);
#511=ORIENTED_EDGE('',*,*,#755,.F.);
#512=ORIENTED_EDGE('',*,*,#760,.F.);
#513=ORIENTED_EDGE('',*,*,#761,.F.);
#514=ORIENTED_EDGE('',*,*,#762,.F.);
#515=ORIENTED_EDGE('',*,*,#676,.T.);
#516=ORIENTED_EDGE('',*,*,#763,.T.);
#517=ORIENTED_EDGE('',*,*,#686,.F.);
#518=ORIENTED_EDGE('',*,*,#764,.T.);
#519=ORIENTED_EDGE('',*,*,#684,.T.);
#520=ORIENTED_EDGE('',*,*,#765,.F.);
#521=ORIENTED_EDGE('',*,*,#674,.F.);
#522=ORIENTED_EDGE('',*,*,#765,.T.);
#523=ORIENTED_EDGE('',*,*,#687,.F.);
#524=ORIENTED_EDGE('',*,*,#763,.F.);
#525=ORIENTED_EDGE('',*,*,#675,.T.);
#526=ORIENTED_EDGE('',*,*,#764,.F.);
#527=ORIENTED_EDGE('',*,*,#677,.F.);
#528=ORIENTED_EDGE('',*,*,#762,.T.);
#529=ORIENTED_EDGE('',*,*,#685,.T.);
#530=ORIENTED_EDGE('',*,*,#730,.F.);
#531=ORIENTED_EDGE('',*,*,#766,.F.);
#532=ORIENTED_EDGE('',*,*,#767,.T.);
#533=ORIENTED_EDGE('',*,*,#768,.T.);
#534=ORIENTED_EDGE('',*,*,#769,.F.);
#535=ORIENTED_EDGE('',*,*,#710,.T.);
#536=ORIENTED_EDGE('',*,*,#770,.F.);
#537=ORIENTED_EDGE('',*,*,#771,.F.);
#538=ORIENTED_EDGE('',*,*,#766,.T.);
#539=ORIENTED_EDGE('',*,*,#692,.T.);
#540=ORIENTED_EDGE('',*,*,#709,.T.);
#541=ORIENTED_EDGE('',*,*,#772,.F.);
#542=ORIENTED_EDGE('',*,*,#773,.F.);
#543=ORIENTED_EDGE('',*,*,#770,.T.);
#544=ORIENTED_EDGE('',*,*,#708,.F.);
#545=ORIENTED_EDGE('',*,*,#725,.F.);
#546=ORIENTED_EDGE('',*,*,#768,.F.);
#547=ORIENTED_EDGE('',*,*,#774,.T.);
#548=ORIENTED_EDGE('',*,*,#772,.T.);
#549=ORIENTED_EDGE('',*,*,#767,.F.);
#550=ORIENTED_EDGE('',*,*,#771,.T.);
#551=ORIENTED_EDGE('',*,*,#773,.T.);
#552=ORIENTED_EDGE('',*,*,#774,.F.);
#553=ORIENTED_EDGE('',*,*,#678,.T.);
#554=ORIENTED_EDGE('',*,*,#775,.T.);
#555=ORIENTED_EDGE('',*,*,#689,.F.);
#556=ORIENTED_EDGE('',*,*,#756,.F.);
#557=ORIENTED_EDGE('',*,*,#683,.T.);
#558=ORIENTED_EDGE('',*,*,#697,.T.);
#559=ORIENTED_EDGE('',*,*,#690,.F.);
#560=ORIENTED_EDGE('',*,*,#775,.F.);
#561=ORIENTED_EDGE('',*,*,#776,.F.);
#562=ORIENTED_EDGE('',*,*,#769,.T.);
#563=ORIENTED_EDGE('',*,*,#776,.T.);
#564=ORIENTED_EDGE('',*,*,#777,.T.);
#565=ORIENTED_EDGE('',*,*,#778,.T.);
#566=ORIENTED_EDGE('',*,*,#779,.F.);
#567=ORIENTED_EDGE('',*,*,#667,.F.);
#568=ORIENTED_EDGE('',*,*,#779,.T.);
#569=ORIENTED_EDGE('',*,*,#780,.T.);
#570=ORIENTED_EDGE('',*,*,#781,.F.);
#571=ORIENTED_EDGE('',*,*,#668,.T.);
#572=ORIENTED_EDGE('',*,*,#781,.T.);
#573=ORIENTED_EDGE('',*,*,#782,.T.);
#574=ORIENTED_EDGE('',*,*,#783,.F.);
#575=ORIENTED_EDGE('',*,*,#669,.T.);
#576=ORIENTED_EDGE('',*,*,#783,.T.);
#577=ORIENTED_EDGE('',*,*,#784,.T.);
#578=ORIENTED_EDGE('',*,*,#777,.F.);
#579=ORIENTED_EDGE('',*,*,#666,.F.);
#580=ORIENTED_EDGE('',*,*,#785,.F.);
#581=ORIENTED_EDGE('',*,*,#780,.F.);
#582=ORIENTED_EDGE('',*,*,#786,.F.);
#583=ORIENTED_EDGE('',*,*,#673,.F.);
#584=ORIENTED_EDGE('',*,*,#786,.T.);
#585=ORIENTED_EDGE('',*,*,#778,.F.);
#586=ORIENTED_EDGE('',*,*,#787,.F.);
#587=ORIENTED_EDGE('',*,*,#670,.F.);
#588=ORIENTED_EDGE('',*,*,#785,.T.);
#589=ORIENTED_EDGE('',*,*,#672,.F.);
#590=ORIENTED_EDGE('',*,*,#788,.F.);
#591=ORIENTED_EDGE('',*,*,#782,.F.);
#592=ORIENTED_EDGE('',*,*,#787,.T.);
#593=ORIENTED_EDGE('',*,*,#784,.F.);
#594=ORIENTED_EDGE('',*,*,#788,.T.);
#595=ORIENTED_EDGE('',*,*,#671,.F.);
#596=ORIENTED_EDGE('',*,*,#789,.F.);
#597=ORIENTED_EDGE('',*,*,#761,.T.);
#598=ORIENTED_EDGE('',*,*,#789,.T.);
#599=ORIENTED_EDGE('',*,*,#790,.F.);
#600=ORIENTED_EDGE('',*,*,#760,.T.);
#601=ORIENTED_EDGE('',*,*,#790,.T.);
#602=ORIENTED_EDGE('',*,*,#658,.T.);
#603=ORIENTED_EDGE('',*,*,#758,.T.);
#604=ORIENTED_EDGE('',*,*,#754,.T.);
#605=ORIENTED_EDGE('',*,*,#791,.F.);
#606=ORIENTED_EDGE('',*,*,#791,.T.);
#607=ORIENTED_EDGE('',*,*,#757,.F.);
#608=ORIENTED_EDGE('',*,*,#659,.F.);
#609=ORIENTED_EDGE('',*,*,#664,.T.);
#610=ORIENTED_EDGE('',*,*,#792,.F.);
#611=ORIENTED_EDGE('',*,*,#752,.F.);
#612=ORIENTED_EDGE('',*,*,#759,.T.);
#613=ORIENTED_EDGE('',*,*,#753,.T.);
#614=ORIENTED_EDGE('',*,*,#792,.T.);
#615=ORIENTED_EDGE('',*,*,#663,.F.);
#616=ORIENTED_EDGE('',*,*,#793,.F.);
#617=ORIENTED_EDGE('',*,*,#794,.F.);
#618=ORIENTED_EDGE('',*,*,#795,.T.);
#619=ORIENTED_EDGE('',*,*,#796,.T.);
#620=ORIENTED_EDGE('',*,*,#797,.T.);
#621=ORIENTED_EDGE('',*,*,#798,.F.);
#622=ORIENTED_EDGE('',*,*,#799,.F.);
#623=ORIENTED_EDGE('',*,*,#794,.T.);
#624=ORIENTED_EDGE('',*,*,#800,.T.);
#625=ORIENTED_EDGE('',*,*,#801,.F.);
#626=ORIENTED_EDGE('',*,*,#802,.F.);
#627=ORIENTED_EDGE('',*,*,#798,.T.);
#628=ORIENTED_EDGE('',*,*,#803,.F.);
#629=ORIENTED_EDGE('',*,*,#796,.F.);
#630=ORIENTED_EDGE('',*,*,#804,.T.);
#631=ORIENTED_EDGE('',*,*,#801,.T.);
#632=ORIENTED_EDGE('',*,*,#805,.F.);
#633=ORIENTED_EDGE('',*,*,#806,.F.);
#634=ORIENTED_EDGE('',*,*,#807,.F.);
#635=ORIENTED_EDGE('',*,*,#808,.F.);
#636=ORIENTED_EDGE('',*,*,#795,.F.);
#637=ORIENTED_EDGE('',*,*,#799,.T.);
#638=ORIENTED_EDGE('',*,*,#802,.T.);
#639=ORIENTED_EDGE('',*,*,#804,.F.);
#640=ORIENTED_EDGE('',*,*,#809,.T.);
#641=ORIENTED_EDGE('',*,*,#810,.T.);
#642=ORIENTED_EDGE('',*,*,#811,.T.);
#643=ORIENTED_EDGE('',*,*,#812,.T.);
#644=ORIENTED_EDGE('',*,*,#793,.T.);
#645=ORIENTED_EDGE('',*,*,#803,.T.);
#646=ORIENTED_EDGE('',*,*,#800,.F.);
#647=ORIENTED_EDGE('',*,*,#797,.F.);
#648=ORIENTED_EDGE('',*,*,#812,.F.);
#649=ORIENTED_EDGE('',*,*,#808,.T.);
#650=ORIENTED_EDGE('',*,*,#811,.F.);
#651=ORIENTED_EDGE('',*,*,#807,.T.);
#652=ORIENTED_EDGE('',*,*,#810,.F.);
#653=ORIENTED_EDGE('',*,*,#806,.T.);
#654=ORIENTED_EDGE('',*,*,#809,.F.);
#655=ORIENTED_EDGE('',*,*,#805,.T.);
#656=EDGE_CURVE('',#813,#813,#921,.T.);
#657=EDGE_CURVE('',#814,#814,#922,.T.);
#658=EDGE_CURVE('',#815,#816,#16,.T.);
#659=EDGE_CURVE('',#815,#817,#17,.T.);
#660=EDGE_CURVE('',#817,#818,#18,.T.);
#661=EDGE_CURVE('',#819,#818,#19,.T.);
#662=EDGE_CURVE('',#820,#819,#20,.T.);
#663=EDGE_CURVE('',#820,#821,#21,.T.);
#664=EDGE_CURVE('',#822,#821,#22,.F.);
#665=EDGE_CURVE('',#822,#816,#23,.T.);
#666=EDGE_CURVE('',#823,#824,#24,.T.);
#667=EDGE_CURVE('',#824,#825,#25,.T.);
#668=EDGE_CURVE('',#826,#825,#26,.T.);
#669=EDGE_CURVE('',#823,#826,#27,.T.);
#670=EDGE_CURVE('',#827,#828,#28,.T.);
#671=EDGE_CURVE('',#828,#829,#29,.T.);
#672=EDGE_CURVE('',#829,#830,#30,.F.);
#673=EDGE_CURVE('',#830,#827,#31,.F.);
#674=EDGE_CURVE('',#831,#832,#32,.T.);
#675=EDGE_CURVE('',#833,#832,#33,.T.);
#676=EDGE_CURVE('',#834,#833,#34,.T.);
#677=EDGE_CURVE('',#834,#831,#35,.T.);
#678=EDGE_CURVE('',#835,#836,#36,.T.);
#679=EDGE_CURVE('',#837,#835,#37,.T.);
#680=EDGE_CURVE('',#838,#837,#38,.T.);
#681=EDGE_CURVE('',#838,#839,#39,.T.);
#682=EDGE_CURVE('',#839,#840,#40,.T.);
#683=EDGE_CURVE('',#836,#840,#41,.T.);
#684=EDGE_CURVE('',#841,#842,#42,.T.);
#685=EDGE_CURVE('',#843,#841,#43,.T.);
#686=EDGE_CURVE('',#843,#844,#44,.T.);
#687=EDGE_CURVE('',#844,#842,#45,.T.);
#688=EDGE_CURVE('',#845,#846,#46,.T.);
#689=EDGE_CURVE('',#845,#847,#47,.T.);
#690=EDGE_CURVE('',#847,#848,#48,.T.);
#691=EDGE_CURVE('',#846,#848,#49,.T.);
#692=EDGE_CURVE('',#849,#850,#50,.T.);
#693=EDGE_CURVE('',#851,#849,#51,.T.);
#694=EDGE_CURVE('',#851,#852,#52,.T.);
#695=EDGE_CURVE('',#852,#850,#53,.T.);
#696=EDGE_CURVE('',#818,#846,#54,.T.);
#697=EDGE_CURVE('',#840,#848,#55,.T.);
#698=EDGE_CURVE('',#819,#839,#56,.T.);
#699=EDGE_CURVE('',#853,#854,#57,.T.);
#700=EDGE_CURVE('',#854,#855,#58,.T.);
#701=EDGE_CURVE('',#856,#855,#59,.T.);
#702=EDGE_CURVE('',#853,#856,#60,.T.);
#703=EDGE_CURVE('',#857,#858,#61,.T.);
#704=EDGE_CURVE('',#857,#859,#62,.T.);
#705=EDGE_CURVE('',#859,#860,#63,.T.);
#706=EDGE_CURVE('',#858,#860,#64,.T.);
#707=EDGE_CURVE('',#861,#862,#65,.T.);
#708=EDGE_CURVE('',#861,#863,#66,.T.);
#709=EDGE_CURVE('',#864,#863,#67,.T.);
#710=EDGE_CURVE('',#850,#864,#68,.T.);
#711=EDGE_CURVE('',#852,#865,#69,.T.);
#712=EDGE_CURVE('',#865,#866,#70,.T.);
#713=EDGE_CURVE('',#862,#866,#71,.T.);
#714=EDGE_CURVE('',#867,#857,#72,.T.);
#715=EDGE_CURVE('',#867,#868,#73,.T.);
#716=EDGE_CURVE('',#868,#859,#74,.T.);
#717=EDGE_CURVE('',#869,#858,#75,.T.);
#718=EDGE_CURVE('',#867,#869,#76,.T.);
#719=EDGE_CURVE('',#870,#860,#77,.T.);
#720=EDGE_CURVE('',#869,#870,#78,.T.);
#721=EDGE_CURVE('',#868,#870,#79,.T.);
#722=EDGE_CURVE('',#851,#871,#80,.T.);
#723=EDGE_CURVE('',#871,#865,#81,.T.);
#724=EDGE_CURVE('',#872,#873,#82,.T.);
#725=EDGE_CURVE('',#872,#861,#83,.T.);
#726=EDGE_CURVE('',#873,#862,#84,.T.);
#727=EDGE_CURVE('',#874,#866,#85,.T.);
#728=EDGE_CURVE('',#873,#874,#86,.T.);
#729=EDGE_CURVE('',#871,#874,#87,.T.);
#730=EDGE_CURVE('',#849,#872,#88,.T.);
#731=EDGE_CURVE('',#875,#876,#89,.T.);
#732=EDGE_CURVE('',#877,#875,#90,.T.);
#733=EDGE_CURVE('',#877,#878,#91,.T.);
#734=EDGE_CURVE('',#878,#876,#92,.T.);
#735=EDGE_CURVE('',#875,#879,#93,.T.);
#736=EDGE_CURVE('',#880,#879,#94,.T.);
#737=EDGE_CURVE('',#877,#880,#95,.T.);
#738=EDGE_CURVE('',#879,#881,#96,.T.);
#739=EDGE_CURVE('',#882,#881,#97,.T.);
#740=EDGE_CURVE('',#880,#882,#98,.T.);
#741=EDGE_CURVE('',#883,#853,#99,.T.);
#742=EDGE_CURVE('',#883,#884,#100,.T.);
#743=EDGE_CURVE('',#884,#854,#101,.T.);
#744=EDGE_CURVE('',#885,#856,#102,.T.);
#745=EDGE_CURVE('',#883,#885,#103,.T.);
#746=EDGE_CURVE('',#886,#855,#104,.T.);
#747=EDGE_CURVE('',#885,#886,#105,.T.);
#748=EDGE_CURVE('',#884,#886,#106,.T.);
#749=EDGE_CURVE('',#876,#881,#107,.T.);
#750=EDGE_CURVE('',#878,#882,#108,.T.);
#751=EDGE_CURVE('',#887,#838,#109,.T.);
#752=EDGE_CURVE('',#887,#888,#110,.F.);
#753=EDGE_CURVE('',#820,#888,#111,.T.);
#754=EDGE_CURVE('',#889,#890,#112,.F.);
#755=EDGE_CURVE('',#889,#837,#113,.T.);
#756=EDGE_CURVE('',#835,#845,#114,.T.);
#757=EDGE_CURVE('',#817,#890,#115,.T.);
#758=EDGE_CURVE('',#816,#889,#923,.T.);
#759=EDGE_CURVE('',#887,#822,#924,.T.);
#760=EDGE_CURVE('',#891,#891,#925,.T.);
#761=EDGE_CURVE('',#892,#892,#926,.T.);
#762=EDGE_CURVE('',#834,#843,#116,.T.);
#763=EDGE_CURVE('',#833,#844,#117,.T.);
#764=EDGE_CURVE('',#831,#841,#118,.T.);
#765=EDGE_CURVE('',#832,#842,#119,.T.);
#766=EDGE_CURVE('',#893,#849,#120,.T.);
#767=EDGE_CURVE('',#893,#894,#121,.T.);
#768=EDGE_CURVE('',#894,#872,#122,.T.);
#769=EDGE_CURVE('',#895,#895,#927,.T.);
#770=EDGE_CURVE('',#896,#864,#123,.T.);
#771=EDGE_CURVE('',#893,#896,#124,.T.);
#772=EDGE_CURVE('',#897,#863,#125,.T.);
#773=EDGE_CURVE('',#896,#897,#126,.T.);
#774=EDGE_CURVE('',#894,#897,#127,.T.);
#775=EDGE_CURVE('',#836,#847,#128,.T.);
#776=EDGE_CURVE('',#898,#898,#928,.T.);
#777=EDGE_CURVE('',#824,#899,#129,.T.);
#778=EDGE_CURVE('',#899,#900,#130,.F.);
#779=EDGE_CURVE('',#825,#900,#131,.T.);
#780=EDGE_CURVE('',#900,#901,#132,.T.);
#781=EDGE_CURVE('',#826,#901,#133,.T.);
#782=EDGE_CURVE('',#901,#902,#134,.T.);
#783=EDGE_CURVE('',#823,#902,#135,.T.);
#784=EDGE_CURVE('',#902,#899,#136,.F.);
#785=EDGE_CURVE('',#901,#830,#12,.T.);
#786=EDGE_CURVE('',#827,#900,#13,.F.);
#787=EDGE_CURVE('',#828,#899,#14,.F.);
#788=EDGE_CURVE('',#902,#829,#15,.T.);
#789=EDGE_CURVE('',#903,#903,#929,.T.);
#790=EDGE_CURVE('',#904,#904,#930,.T.);
#791=EDGE_CURVE('',#815,#890,#931,.T.);
#792=EDGE_CURVE('',#888,#821,#932,.T.);
#793=EDGE_CURVE('',#905,#906,#137,.T.);
#794=EDGE_CURVE('',#907,#905,#138,.T.);
#795=EDGE_CURVE('',#907,#908,#139,.T.);
#796=EDGE_CURVE('',#908,#906,#140,.T.);
#797=EDGE_CURVE('',#905,#909,#141,.T.);
#798=EDGE_CURVE('',#910,#909,#142,.T.);
#799=EDGE_CURVE('',#907,#910,#143,.T.);
#800=EDGE_CURVE('',#909,#911,#144,.T.);
#801=EDGE_CURVE('',#912,#911,#145,.T.);
#802=EDGE_CURVE('',#910,#912,#146,.T.);
#803=EDGE_CURVE('',#906,#911,#147,.T.);
#804=EDGE_CURVE('',#908,#912,#148,.T.);
#805=EDGE_CURVE('',#913,#913,#933,.T.);
#806=EDGE_CURVE('',#914,#914,#934,.T.);
#807=EDGE_CURVE('',#915,#915,#935,.T.);
#808=EDGE_CURVE('',#916,#916,#936,.T.);
#809=EDGE_CURVE('',#917,#917,#937,.T.);
#810=EDGE_CURVE('',#918,#918,#938,.T.);
#811=EDGE_CURVE('',#919,#919,#939,.T.);
#812=EDGE_CURVE('',#920,#920,#940,.T.);
#813=VERTEX_POINT('',#1666);
#814=VERTEX_POINT('',#1668);
#815=VERTEX_POINT('',#1672);
#816=VERTEX_POINT('',#1673);
#817=VERTEX_POINT('',#1675);
#818=VERTEX_POINT('',#1677);
#819=VERTEX_POINT('',#1679);
#820=VERTEX_POINT('',#1681);
#821=VERTEX_POINT('',#1683);
#822=VERTEX_POINT('',#1685);
#823=VERTEX_POINT('',#1688);
#824=VERTEX_POINT('',#1689);
#825=VERTEX_POINT('',#1691);
#826=VERTEX_POINT('',#1693);
#827=VERTEX_POINT('',#1697);
#828=VERTEX_POINT('',#1698);
#829=VERTEX_POINT('',#1700);
#830=VERTEX_POINT('',#1702);
#831=VERTEX_POINT('',#1705);
#832=VERTEX_POINT('',#1706);
#833=VERTEX_POINT('',#1708);
#834=VERTEX_POINT('',#1710);
#835=VERTEX_POINT('',#1714);
#836=VERTEX_POINT('',#1715);
#837=VERTEX_POINT('',#1717);
#838=VERTEX_POINT('',#1719);
#839=VERTEX_POINT('',#1721);
#840=VERTEX_POINT('',#1723);
#841=VERTEX_POINT('',#1727);
#842=VERTEX_POINT('',#1728);
#843=VERTEX_POINT('',#1730);
#844=VERTEX_POINT('',#1732);
#845=VERTEX_POINT('',#1735);
#846=VERTEX_POINT('',#1736);
#847=VERTEX_POINT('',#1738);
#848=VERTEX_POINT('',#1740);
#849=VERTEX_POINT('',#1744);
#850=VERTEX_POINT('',#1745);
#851=VERTEX_POINT('',#1747);
#852=VERTEX_POINT('',#1749);
#853=VERTEX_POINT('',#1756);
#854=VERTEX_POINT('',#1757);
#855=VERTEX_POINT('',#1759);
#856=VERTEX_POINT('',#1761);
#857=VERTEX_POINT('',#1764);
#858=VERTEX_POINT('',#1765);
#859=VERTEX_POINT('',#1767);
#860=VERTEX_POINT('',#1769);
#861=VERTEX_POINT('',#1772);
#862=VERTEX_POINT('',#1773);
#863=VERTEX_POINT('',#1775);
#864=VERTEX_POINT('',#1777);
#865=VERTEX_POINT('',#1780);
#866=VERTEX_POINT('',#1782);
#867=VERTEX_POINT('',#1786);
#868=VERTEX_POINT('',#1788);
#869=VERTEX_POINT('',#1792);
#870=VERTEX_POINT('',#1796);
#871=VERTEX_POINT('',#1803);
#872=VERTEX_POINT('',#1807);
#873=VERTEX_POINT('',#1808);
#874=VERTEX_POINT('',#1813);
#875=VERTEX_POINT('',#1821);
#876=VERTEX_POINT('',#1822);
#877=VERTEX_POINT('',#1824);
#878=VERTEX_POINT('',#1826);
#879=VERTEX_POINT('',#1830);
#880=VERTEX_POINT('',#1832);
#881=VERTEX_POINT('',#1836);
#882=VERTEX_POINT('',#1838);
#883=VERTEX_POINT('',#1842);
#884=VERTEX_POINT('',#1844);
#885=VERTEX_POINT('',#1848);
#886=VERTEX_POINT('',#1852);
#887=VERTEX_POINT('',#1863);
#888=VERTEX_POINT('',#1865);
#889=VERTEX_POINT('',#1869);
#890=VERTEX_POINT('',#1870);
#891=VERTEX_POINT('',#1878);
#892=VERTEX_POINT('',#1880);
#893=VERTEX_POINT('',#1890);
#894=VERTEX_POINT('',#1892);
#895=VERTEX_POINT('',#1896);
#896=VERTEX_POINT('',#1898);
#897=VERTEX_POINT('',#1902);
#898=VERTEX_POINT('',#1912);
#899=VERTEX_POINT('',#1916);
#900=VERTEX_POINT('',#1918);
#901=VERTEX_POINT('',#1922);
#902=VERTEX_POINT('',#1926);
#903=VERTEX_POINT('',#1940);
#904=VERTEX_POINT('',#1944);
#905=VERTEX_POINT('',#1955);
#906=VERTEX_POINT('',#1956);
#907=VERTEX_POINT('',#1958);
#908=VERTEX_POINT('',#1960);
#909=VERTEX_POINT('',#1964);
#910=VERTEX_POINT('',#1966);
#911=VERTEX_POINT('',#1970);
#912=VERTEX_POINT('',#1972);
#913=VERTEX_POINT('',#1979);
#914=VERTEX_POINT('',#1981);
#915=VERTEX_POINT('',#1983);
#916=VERTEX_POINT('',#1985);
#917=VERTEX_POINT('',#1988);
#918=VERTEX_POINT('',#1990);
#919=VERTEX_POINT('',#1992);
#920=VERTEX_POINT('',#1994);
#921=CIRCLE('',#1247,0.0013);
#922=CIRCLE('',#1248,0.0013);
#923=CIRCLE('',#1279,0.00105);
#924=CIRCLE('',#1280,0.00105);
#925=CIRCLE('',#1281,0.00105);
#926=CIRCLE('',#1282,0.00105);
#927=CIRCLE('',#1288,0.001);
#928=CIRCLE('',#1295,0.001);
#929=CIRCLE('',#1310,0.00105);
#930=CIRCLE('',#1313,0.00105);
#931=CIRCLE('',#1316,0.00105);
#932=CIRCLE('',#1319,0.00105);
#933=CIRCLE('',#1327,0.00105);
#934=CIRCLE('',#1328,0.00105);
#935=CIRCLE('',#1329,0.00105);
#936=CIRCLE('',#1330,0.00105);
#937=CIRCLE('',#1332,0.00105);
#938=CIRCLE('',#1333,0.00105);
#939=CIRCLE('',#1334,0.00105);
#940=CIRCLE('',#1335,0.00105);
#941=EDGE_LOOP('',(#344));
#942=EDGE_LOOP('',(#345));
#943=EDGE_LOOP('',(#346,#347,#348,#349,#350,#351,#352,#353));
#944=EDGE_LOOP('',(#354,#355,#356,#357));
#945=EDGE_LOOP('',(#358,#359,#360,#361));
#946=EDGE_LOOP('',(#362,#363,#364,#365));
#947=EDGE_LOOP('',(#366,#367,#368,#369,#370,#371));
#948=EDGE_LOOP('',(#372,#373,#374,#375));
#949=EDGE_LOOP('',(#376,#377,#378,#379));
#950=EDGE_LOOP('',(#380,#381,#382,#383));
#951=EDGE_LOOP('',(#384,#385,#386,#387,#388,#389));
#952=EDGE_LOOP('',(#390,#391,#392,#393));
#953=EDGE_LOOP('',(#394,#395,#396,#397));
#954=EDGE_LOOP('',(#398,#399,#400,#401,#402,#403,#404,#405));
#955=EDGE_LOOP('',(#406,#407,#408,#409));
#956=EDGE_LOOP('',(#410,#411,#412,#413));
#957=EDGE_LOOP('',(#414,#415,#416,#417));
#958=EDGE_LOOP('',(#418,#419,#420,#421));
#959=EDGE_LOOP('',(#422,#423,#424,#425));
#960=EDGE_LOOP('',(#426,#427,#428,#429));
#961=EDGE_LOOP('',(#430,#431,#432,#433));
#962=EDGE_LOOP('',(#434,#435,#436,#437));
#963=EDGE_LOOP('',(#438,#439,#440,#441));
#964=EDGE_LOOP('',(#442,#443,#444,#445,#446,#447));
#965=EDGE_LOOP('',(#448,#449,#450,#451));
#966=EDGE_LOOP('',(#452,#453,#454,#455));
#967=EDGE_LOOP('',(#456,#457,#458,#459));
#968=EDGE_LOOP('',(#460,#461,#462,#463));
#969=EDGE_LOOP('',(#464,#465,#466,#467));
#970=EDGE_LOOP('',(#468,#469,#470,#471));
#971=EDGE_LOOP('',(#472,#473,#474,#475));
#972=EDGE_LOOP('',(#476,#477,#478,#479));
#973=EDGE_LOOP('',(#480,#481,#482,#483));
#974=EDGE_LOOP('',(#484,#485,#486,#487));
#975=EDGE_LOOP('',(#488,#489,#490,#491));
#976=EDGE_LOOP('',(#492,#493,#494,#495,#496,#497));
#977=EDGE_LOOP('',(#498,#499,#500,#501,#502,#503,#504,#505));
#978=EDGE_LOOP('',(#506,#507,#508,#509,#510,#511));
#979=EDGE_LOOP('',(#512));
#980=EDGE_LOOP('',(#513));
#981=EDGE_LOOP('',(#514,#515,#516,#517));
#982=EDGE_LOOP('',(#518,#519,#520,#521));
#983=EDGE_LOOP('',(#522,#523,#524,#525));
#984=EDGE_LOOP('',(#526,#527,#528,#529));
#985=EDGE_LOOP('',(#530,#531,#532,#533));
#986=EDGE_LOOP('',(#534));
#987=EDGE_LOOP('',(#535,#536,#537,#538,#539));
#988=EDGE_LOOP('',(#540,#541,#542,#543));
#989=EDGE_LOOP('',(#544,#545,#546,#547,#548));
#990=EDGE_LOOP('',(#549,#550,#551,#552));
#991=EDGE_LOOP('',(#553,#554,#555,#556));
#992=EDGE_LOOP('',(#557,#558,#559,#560));
#993=EDGE_LOOP('',(#561));
#994=EDGE_LOOP('',(#562));
#995=EDGE_LOOP('',(#563));
#996=EDGE_LOOP('',(#564,#565,#566,#567));
#997=EDGE_LOOP('',(#568,#569,#570,#571));
#998=EDGE_LOOP('',(#572,#573,#574,#575));
#999=EDGE_LOOP('',(#576,#577,#578,#579));
#1000=EDGE_LOOP('',(#580,#581,#582,#583));
#1001=EDGE_LOOP('',(#584,#585,#586,#587));
#1002=EDGE_LOOP('',(#588,#589,#590,#591));
#1003=EDGE_LOOP('',(#592,#593,#594,#595));
#1004=EDGE_LOOP('',(#596));
#1005=EDGE_LOOP('',(#597));
#1006=EDGE_LOOP('',(#598));
#1007=EDGE_LOOP('',(#599));
#1008=EDGE_LOOP('',(#600));
#1009=EDGE_LOOP('',(#601));
#1010=EDGE_LOOP('',(#602,#603,#604,#605));
#1011=EDGE_LOOP('',(#606,#607,#608));
#1012=EDGE_LOOP('',(#609,#610,#611,#612));
#1013=EDGE_LOOP('',(#613,#614,#615));
#1014=EDGE_LOOP('',(#616,#617,#618,#619));
#1015=EDGE_LOOP('',(#620,#621,#622,#623));
#1016=EDGE_LOOP('',(#624,#625,#626,#627));
#1017=EDGE_LOOP('',(#628,#629,#630,#631));
#1018=EDGE_LOOP('',(#632));
#1019=EDGE_LOOP('',(#633));
#1020=EDGE_LOOP('',(#634));
#1021=EDGE_LOOP('',(#635));
#1022=EDGE_LOOP('',(#636,#637,#638,#639));
#1023=EDGE_LOOP('',(#640));
#1024=EDGE_LOOP('',(#641));
#1025=EDGE_LOOP('',(#642));
#1026=EDGE_LOOP('',(#643));
#1027=EDGE_LOOP('',(#644,#645,#646,#647));
#1028=EDGE_LOOP('',(#648));
#1029=EDGE_LOOP('',(#649));
#1030=EDGE_LOOP('',(#650));
#1031=EDGE_LOOP('',(#651));
#1032=EDGE_LOOP('',(#652));
#1033=EDGE_LOOP('',(#653));
#1034=EDGE_LOOP('',(#654));
#1035=EDGE_LOOP('',(#655));
#1036=FACE_BOUND('',#941,.T.);
#1037=FACE_BOUND('',#942,.T.);
#1038=FACE_BOUND('',#943,.T.);
#1039=FACE_BOUND('',#944,.T.);
#1040=FACE_BOUND('',#945,.T.);
#1041=FACE_BOUND('',#946,.T.);
#1042=FACE_BOUND('',#947,.T.);
#1043=FACE_BOUND('',#948,.T.);
#1044=FACE_BOUND('',#949,.T.);
#1045=FACE_BOUND('',#950,.T.);
#1046=FACE_BOUND('',#951,.T.);
#1047=FACE_BOUND('',#952,.T.);
#1048=FACE_BOUND('',#953,.T.);
#1049=FACE_BOUND('',#954,.T.);
#1050=FACE_BOUND('',#955,.T.);
#1051=FACE_BOUND('',#956,.T.);
#1052=FACE_BOUND('',#957,.T.);
#1053=FACE_BOUND('',#958,.T.);
#1054=FACE_BOUND('',#959,.T.);
#1055=FACE_BOUND('',#960,.T.);
#1056=FACE_BOUND('',#961,.T.);
#1057=FACE_BOUND('',#962,.T.);
#1058=FACE_BOUND('',#963,.T.);
#1059=FACE_BOUND('',#964,.T.);
#1060=FACE_BOUND('',#965,.T.);
#1061=FACE_BOUND('',#966,.T.);
#1062=FACE_BOUND('',#967,.T.);
#1063=FACE_BOUND('',#968,.T.);
#1064=FACE_BOUND('',#969,.T.);
#1065=FACE_BOUND('',#970,.T.);
#1066=FACE_BOUND('',#971,.T.);
#1067=FACE_BOUND('',#972,.T.);
#1068=FACE_BOUND('',#973,.T.);
#1069=FACE_BOUND('',#974,.T.);
#1070=FACE_BOUND('',#975,.T.);
#1071=FACE_BOUND('',#976,.T.);
#1072=FACE_BOUND('',#977,.T.);
#1073=FACE_BOUND('',#978,.T.);
#1074=FACE_BOUND('',#979,.T.);
#1075=FACE_BOUND('',#980,.T.);
#1076=FACE_BOUND('',#981,.T.);
#1077=FACE_BOUND('',#982,.T.);
#1078=FACE_BOUND('',#983,.T.);
#1079=FACE_BOUND('',#984,.T.);
#1080=FACE_BOUND('',#985,.T.);
#1081=FACE_BOUND('',#986,.T.);
#1082=FACE_BOUND('',#987,.T.);
#1083=FACE_BOUND('',#988,.T.);
#1084=FACE_BOUND('',#989,.T.);
#1085=FACE_BOUND('',#990,.T.);
#1086=FACE_BOUND('',#991,.T.);
#1087=FACE_BOUND('',#992,.T.);
#1088=FACE_BOUND('',#993,.T.);
#1089=FACE_BOUND('',#994,.T.);
#1090=FACE_BOUND('',#995,.T.);
#1091=FACE_BOUND('',#996,.T.);
#1092=FACE_BOUND('',#997,.T.);
#1093=FACE_BOUND('',#998,.T.);
#1094=FACE_BOUND('',#999,.T.);
#1095=FACE_BOUND('',#1000,.T.);
#1096=FACE_BOUND('',#1001,.T.);
#1097=FACE_BOUND('',#1002,.T.);
#1098=FACE_BOUND('',#1003,.T.);
#1099=FACE_BOUND('',#1004,.T.);
#1100=FACE_BOUND('',#1005,.T.);
#1101=FACE_BOUND('',#1006,.T.);
#1102=FACE_BOUND('',#1007,.T.);
#1103=FACE_BOUND('',#1008,.T.);
#1104=FACE_BOUND('',#1009,.T.);
#1105=FACE_BOUND('',#1010,.T.);
#1106=FACE_BOUND('',#1011,.T.);
#1107=FACE_BOUND('',#1012,.T.);
#1108=FACE_BOUND('',#1013,.T.);
#1109=FACE_BOUND('',#1014,.T.);
#1110=FACE_BOUND('',#1015,.T.);
#1111=FACE_BOUND('',#1016,.T.);
#1112=FACE_BOUND('',#1017,.T.);
#1113=FACE_BOUND('',#1018,.T.);
#1114=FACE_BOUND('',#1019,.T.);
#1115=FACE_BOUND('',#1020,.T.);
#1116=FACE_BOUND('',#1021,.T.);
#1117=FACE_BOUND('',#1022,.T.);
#1118=FACE_BOUND('',#1023,.T.);
#1119=FACE_BOUND('',#1024,.T.);
#1120=FACE_BOUND('',#1025,.T.);
#1121=FACE_BOUND('',#1026,.T.);
#1122=FACE_BOUND('',#1027,.T.);
#1123=FACE_BOUND('',#1028,.T.);
#1124=FACE_BOUND('',#1029,.T.);
#1125=FACE_BOUND('',#1030,.T.);
#1126=FACE_BOUND('',#1031,.T.);
#1127=FACE_BOUND('',#1032,.T.);
#1128=FACE_BOUND('',#1033,.T.);
#1129=FACE_BOUND('',#1034,.T.);
#1130=FACE_BOUND('',#1035,.T.);
#1131=CYLINDRICAL_SURFACE('',#1246,0.0013);
#1132=CYLINDRICAL_SURFACE('',#1294,0.001);
#1133=CYLINDRICAL_SURFACE('',#1301,0.001);
#1134=CYLINDRICAL_SURFACE('',#1304,0.001);
#1135=CYLINDRICAL_SURFACE('',#1306,0.001);
#1136=CYLINDRICAL_SURFACE('',#1308,0.001);
#1137=CYLINDRICAL_SURFACE('',#1309,0.00105);
#1138=CYLINDRICAL_SURFACE('',#1312,0.00105);
#1139=CYLINDRICAL_SURFACE('',#1315,0.00105);
#1140=CYLINDRICAL_SURFACE('',#1318,0.00105);
#1141=CYLINDRICAL_SURFACE('',#1336,0.00105);
#1142=CYLINDRICAL_SURFACE('',#1337,0.00105);
#1143=CYLINDRICAL_SURFACE('',#1338,0.00105);
#1144=CYLINDRICAL_SURFACE('',#1339,0.00105);
#1145=ADVANCED_FACE('',(#1036,#1037),#1131,.T.);
#1146=ADVANCED_FACE('',(#1038,#1039),#282,.T.);
#1147=ADVANCED_FACE('',(#1040,#1041),#283,.F.);
#1148=ADVANCED_FACE('',(#1042),#284,.F.);
#1149=ADVANCED_FACE('',(#1043,#1044),#285,.T.);
#1150=ADVANCED_FACE('',(#1045),#286,.F.);
#1151=ADVANCED_FACE('',(#1046,#1047,#1048,#1049),#287,.T.);
#1152=ADVANCED_FACE('',(#1050),#288,.T.);
#1153=ADVANCED_FACE('',(#1051),#289,.F.);
#1154=ADVANCED_FACE('',(#1052),#290,.F.);
#1155=ADVANCED_FACE('',(#1053),#291,.T.);
#1156=ADVANCED_FACE('',(#1054),#292,.T.);
#1157=ADVANCED_FACE('',(#1055),#293,.T.);
#1158=ADVANCED_FACE('',(#1056),#294,.F.);
#1159=ADVANCED_FACE('',(#1057),#295,.F.);
#1160=ADVANCED_FACE('',(#1058),#296,.T.);
#1161=ADVANCED_FACE('',(#1059),#297,.T.);
#1162=ADVANCED_FACE('',(#1060),#298,.T.);
#1163=ADVANCED_FACE('',(#1061),#299,.F.);
#1164=ADVANCED_FACE('',(#1062),#300,.F.);
#1165=ADVANCED_FACE('',(#1063),#301,.T.);
#1166=ADVANCED_FACE('',(#1064),#302,.F.);
#1167=ADVANCED_FACE('',(#1065),#303,.F.);
#1168=ADVANCED_FACE('',(#1066),#304,.T.);
#1169=ADVANCED_FACE('',(#1067),#305,.T.);
#1170=ADVANCED_FACE('',(#1068,#1069),#306,.T.);
#1171=ADVANCED_FACE('',(#1070),#307,.T.);
#1172=ADVANCED_FACE('',(#1071),#308,.F.);
#1173=ADVANCED_FACE('',(#1072),#309,.T.);
#1174=ADVANCED_FACE('',(#1073,#1074,#1075,#1076),#310,.T.);
#1175=ADVANCED_FACE('',(#1077),#311,.F.);
#1176=ADVANCED_FACE('',(#1078),#312,.F.);
#1177=ADVANCED_FACE('',(#1079),#313,.T.);
#1178=ADVANCED_FACE('',(#1080),#314,.T.);
#1179=ADVANCED_FACE('',(#1081,#1082),#315,.F.);
#1180=ADVANCED_FACE('',(#1083),#316,.F.);
#1181=ADVANCED_FACE('',(#1084),#317,.T.);
#1182=ADVANCED_FACE('',(#1085),#318,.T.);
#1183=ADVANCED_FACE('',(#1086),#319,.T.);
#1184=ADVANCED_FACE('',(#1087),#320,.T.);
#1185=ADVANCED_FACE('',(#1088,#1089),#1132,.F.);
#1186=ADVANCED_FACE('',(#1090),#321,.T.);
#1187=ADVANCED_FACE('',(#1091),#322,.T.);
#1188=ADVANCED_FACE('',(#1092),#323,.F.);
#1189=ADVANCED_FACE('',(#1093),#324,.F.);
#1190=ADVANCED_FACE('',(#1094),#325,.T.);
#1191=ADVANCED_FACE('',(#1095),#1133,.T.);
#1192=ADVANCED_FACE('',(#1096),#1134,.T.);
#1193=ADVANCED_FACE('',(#1097),#1135,.T.);
#1194=ADVANCED_FACE('',(#1098),#1136,.T.);
#1195=ADVANCED_FACE('',(#1099,#1100),#1137,.F.);
#1196=ADVANCED_FACE('',(#1101),#326,.T.);
#1197=ADVANCED_FACE('',(#1102,#1103),#1138,.F.);
#1198=ADVANCED_FACE('',(#1104),#327,.T.);
#1199=ADVANCED_FACE('',(#1105),#1139,.F.);
#1200=ADVANCED_FACE('',(#1106),#328,.T.);
#1201=ADVANCED_FACE('',(#1107),#1140,.F.);
#1202=ADVANCED_FACE('',(#1108),#329,.T.);
#1203=ADVANCED_FACE('',(#1109),#330,.T.);
#1204=ADVANCED_FACE('',(#1110),#331,.F.);
#1205=ADVANCED_FACE('',(#1111),#332,.F.);
#1206=ADVANCED_FACE('',(#1112),#333,.T.);
#1207=ADVANCED_FACE('',(#1113,#1114,#1115,#1116,#1117),#334,.T.);
#1208=ADVANCED_FACE('',(#1118,#1119,#1120,#1121,#1122),#335,.F.);
#1209=ADVANCED_FACE('',(#1123,#1124),#1141,.F.);
#1210=ADVANCED_FACE('',(#1125,#1126),#1142,.F.);
#1211=ADVANCED_FACE('',(#1127,#1128),#1143,.F.);
#1212=ADVANCED_FACE('',(#1129,#1130),#1144,.F.);
#1213=OPEN_SHELL('',(#1145));
#1214=STYLED_ITEM('',(#1217),#1238);
#1215=STYLED_ITEM('',(#1218),#338);
#1216=STYLED_ITEM('',(#1219),#339);
#1217=PRESENTATION_STYLE_ASSIGNMENT((#1220));
#1218=PRESENTATION_STYLE_ASSIGNMENT((#1221));
#1219=PRESENTATION_STYLE_ASSIGNMENT((#1222));
#1220=SURFACE_STYLE_USAGE(.BOTH.,#1223);
#1221=SURFACE_STYLE_USAGE(.BOTH.,#1224);
#1222=SURFACE_STYLE_USAGE(.BOTH.,#1225);
#1223=SURFACE_SIDE_STYLE('',(#1226));
#1224=SURFACE_SIDE_STYLE('',(#1227));
#1225=SURFACE_SIDE_STYLE('',(#1228));
#1226=SURFACE_STYLE_FILL_AREA(#1229);
#1227=SURFACE_STYLE_FILL_AREA(#1230);
#1228=SURFACE_STYLE_FILL_AREA(#1231);
#1229=FILL_AREA_STYLE('',(#1232));
#1230=FILL_AREA_STYLE('',(#1233));
#1231=FILL_AREA_STYLE('',(#1234));
#1232=FILL_AREA_STYLE_COLOUR('',#1235);
#1233=FILL_AREA_STYLE_COLOUR('',#1236);
#1234=FILL_AREA_STYLE_COLOUR('',#1237);
#1235=COLOUR_RGB('',0.647058823529412,0.647058823529412,0.647058823529412);
#1236=COLOUR_RGB('',0.615686274509804,0.811764705882353,0.929411764705882);
#1237=COLOUR_RGB('',0.231372549019608,0.380392156862745,0.705882352941177);
#1238=SHELL_BASED_SURFACE_MODEL('Surface 1',(#1213));
#1239=SHAPE_DEFINITION_REPRESENTATION(#2017,#1242);
#1240=SHAPE_DEFINITION_REPRESENTATION(#2018,#1243);
#1241=SHAPE_DEFINITION_REPRESENTATION(#2019,#1244);
#1242=SHAPE_REPRESENTATION('Surface 1',(#1245),#2002);
#1243=SHAPE_REPRESENTATION('Part 1',(#1249),#2003);
#1244=SHAPE_REPRESENTATION('Part 2',(#1321),#2004);
#1245=AXIS2_PLACEMENT_3D('',#1663,#1340,#1341);
#1246=AXIS2_PLACEMENT_3D('',#1664,#1342,#1343);
#1247=AXIS2_PLACEMENT_3D('',#1665,#1344,#1345);
#1248=AXIS2_PLACEMENT_3D('',#1667,#1346,#1347);
#1249=AXIS2_PLACEMENT_3D('',#1669,#1348,#1349);
#1250=AXIS2_PLACEMENT_3D('',#1670,#1350,#1351);
#1251=AXIS2_PLACEMENT_3D('',#1695,#1364,#1365);
#1252=AXIS2_PLACEMENT_3D('',#1712,#1374,#1375);
#1253=AXIS2_PLACEMENT_3D('',#1725,#1382,#1383);
#1254=AXIS2_PLACEMENT_3D('',#1742,#1392,#1393);
#1255=AXIS2_PLACEMENT_3D('',#1751,#1398,#1399);
#1256=AXIS2_PLACEMENT_3D('',#1784,#1418,#1419);
#1257=AXIS2_PLACEMENT_3D('',#1790,#1423,#1424);
#1258=AXIS2_PLACEMENT_3D('',#1794,#1427,#1428);
#1259=AXIS2_PLACEMENT_3D('',#1798,#1431,#1432);
#1260=AXIS2_PLACEMENT_3D('',#1800,#1434,#1435);
#1261=AXIS2_PLACEMENT_3D('',#1801,#1436,#1437);
#1262=AXIS2_PLACEMENT_3D('',#1805,#1440,#1441);
#1263=AXIS2_PLACEMENT_3D('',#1811,#1445,#1446);
#1264=AXIS2_PLACEMENT_3D('',#1815,#1449,#1450);
#1265=AXIS2_PLACEMENT_3D('',#1817,#1452,#1453);
#1266=AXIS2_PLACEMENT_3D('',#1819,#1455,#1456);
#1267=AXIS2_PLACEMENT_3D('',#1828,#1461,#1462);
#1268=AXIS2_PLACEMENT_3D('',#1834,#1466,#1467);
#1269=AXIS2_PLACEMENT_3D('',#1840,#1471,#1472);
#1270=AXIS2_PLACEMENT_3D('',#1846,#1476,#1477);
#1271=AXIS2_PLACEMENT_3D('',#1850,#1480,#1481);
#1272=AXIS2_PLACEMENT_3D('',#1854,#1484,#1485);
#1273=AXIS2_PLACEMENT_3D('',#1856,#1487,#1488);
#1274=AXIS2_PLACEMENT_3D('',#1859,#1491,#1492);
#1275=AXIS2_PLACEMENT_3D('',#1860,#1493,#1494);
#1276=AXIS2_PLACEMENT_3D('',#1861,#1495,#1496);
#1277=AXIS2_PLACEMENT_3D('',#1867,#1500,#1501);
#1278=AXIS2_PLACEMENT_3D('',#1874,#1506,#1507);
#1279=AXIS2_PLACEMENT_3D('',#1875,#1508,#1509);
#1280=AXIS2_PLACEMENT_3D('',#1876,#1510,#1511);
#1281=AXIS2_PLACEMENT_3D('',#1877,#1512,#1513);
#1282=AXIS2_PLACEMENT_3D('',#1879,#1514,#1515);
#1283=AXIS2_PLACEMENT_3D('',#1883,#1518,#1519);
#1284=AXIS2_PLACEMENT_3D('',#1886,#1522,#1523);
#1285=AXIS2_PLACEMENT_3D('',#1887,#1524,#1525);
#1286=AXIS2_PLACEMENT_3D('',#1888,#1526,#1527);
#1287=AXIS2_PLACEMENT_3D('',#1894,#1531,#1532);
#1288=AXIS2_PLACEMENT_3D('',#1895,#1533,#1534);
#1289=AXIS2_PLACEMENT_3D('',#1900,#1537,#1538);
#1290=AXIS2_PLACEMENT_3D('',#1904,#1541,#1542);
#1291=AXIS2_PLACEMENT_3D('',#1906,#1544,#1545);
#1292=AXIS2_PLACEMENT_3D('',#1907,#1546,#1547);
#1293=AXIS2_PLACEMENT_3D('',#1909,#1549,#1550);
#1294=AXIS2_PLACEMENT_3D('',#1910,#1551,#1552);
#1295=AXIS2_PLACEMENT_3D('',#1911,#1553,#1554);
#1296=AXIS2_PLACEMENT_3D('',#1913,#1555,#1556);
#1297=AXIS2_PLACEMENT_3D('',#1914,#1557,#1558);
#1298=AXIS2_PLACEMENT_3D('',#1920,#1562,#1563);
#1299=AXIS2_PLACEMENT_3D('',#1924,#1566,#1567);
#1300=AXIS2_PLACEMENT_3D('',#1928,#1570,#1571);
#1301=AXIS2_PLACEMENT_3D('',#1930,#1573,#1574);
#1302=AXIS2_PLACEMENT_3D('',#1931,#1575,#1576);
#1303=AXIS2_PLACEMENT_3D('',#1932,#1577,#1578);
#1304=AXIS2_PLACEMENT_3D('',#1933,#1579,#1580);
#1305=AXIS2_PLACEMENT_3D('',#1934,#1581,#1582);
#1306=AXIS2_PLACEMENT_3D('',#1935,#1583,#1584);
#1307=AXIS2_PLACEMENT_3D('',#1936,#1585,#1586);
#1308=AXIS2_PLACEMENT_3D('',#1937,#1587,#1588);
#1309=AXIS2_PLACEMENT_3D('',#1938,#1589,#1590);
#1310=AXIS2_PLACEMENT_3D('',#1939,#1591,#1592);
#1311=AXIS2_PLACEMENT_3D('',#1941,#1593,#1594);
#1312=AXIS2_PLACEMENT_3D('',#1942,#1595,#1596);
#1313=AXIS2_PLACEMENT_3D('',#1943,#1597,#1598);
#1314=AXIS2_PLACEMENT_3D('',#1945,#1599,#1600);
#1315=AXIS2_PLACEMENT_3D('',#1946,#1601,#1602);
#1316=AXIS2_PLACEMENT_3D('',#1947,#1603,#1604);
#1317=AXIS2_PLACEMENT_3D('',#1948,#1605,#1606);
#1318=AXIS2_PLACEMENT_3D('',#1949,#1607,#1608);
#1319=AXIS2_PLACEMENT_3D('',#1950,#1609,#1610);
#1320=AXIS2_PLACEMENT_3D('',#1951,#1611,#1612);
#1321=AXIS2_PLACEMENT_3D('',#1952,#1613,#1614);
#1322=AXIS2_PLACEMENT_3D('',#1953,#1615,#1616);
#1323=AXIS2_PLACEMENT_3D('',#1962,#1621,#1622);
#1324=AXIS2_PLACEMENT_3D('',#1968,#1626,#1627);
#1325=AXIS2_PLACEMENT_3D('',#1974,#1631,#1632);
#1326=AXIS2_PLACEMENT_3D('',#1977,#1635,#1636);
#1327=AXIS2_PLACEMENT_3D('',#1978,#1637,#1638);
#1328=AXIS2_PLACEMENT_3D('',#1980,#1639,#1640);
#1329=AXIS2_PLACEMENT_3D('',#1982,#1641,#1642);
#1330=AXIS2_PLACEMENT_3D('',#1984,#1643,#1644);
#1331=AXIS2_PLACEMENT_3D('',#1986,#1645,#1646);
#1332=AXIS2_PLACEMENT_3D('',#1987,#1647,#1648);
#1333=AXIS2_PLACEMENT_3D('',#1989,#1649,#1650);
#1334=AXIS2_PLACEMENT_3D('',#1991,#1651,#1652);
#1335=AXIS2_PLACEMENT_3D('',#1993,#1653,#1654);
#1336=AXIS2_PLACEMENT_3D('',#1995,#1655,#1656);
#1337=AXIS2_PLACEMENT_3D('',#1996,#1657,#1658);
#1338=AXIS2_PLACEMENT_3D('',#1997,#1659,#1660);
#1339=AXIS2_PLACEMENT_3D('',#1998,#1661,#1662);
#1340=DIRECTION('',(0.,0.,1.));
#1341=DIRECTION('',(1.,0.,0.));
#1342=DIRECTION('',(0.,-1.,0.));
#1343=DIRECTION('',(0.,0.,-1.));
#1344=DIRECTION('',(0.,-1.,0.));
#1345=DIRECTION('',(1.,0.,0.));
#1346=DIRECTION('',(0.,-1.,0.));
#1347=DIRECTION('',(1.,0.,0.));
#1348=DIRECTION('',(0.,0.,1.));
#1349=DIRECTION('',(1.,0.,0.));
#1350=DIRECTION('',(-1.,0.,0.));
#1351=DIRECTION('',(0.,0.,1.));
#1352=DIRECTION('',(0.,0.,1.));
#1353=DIRECTION('',(0.,1.,0.));
#1354=DIRECTION('',(0.,0.,-1.));
#1355=DIRECTION('',(0.,1.,0.));
#1356=DIRECTION('',(0.,0.,-1.));
#1357=DIRECTION('',(0.,1.,0.));
#1358=DIRECTION('',(0.,0.,1.));
#1359=DIRECTION('',(0.,1.,0.));
#1360=DIRECTION('',(0.,0.,1.));
#1361=DIRECTION('',(0.,-1.,0.));
#1362=DIRECTION('',(0.,0.,1.));
#1363=DIRECTION('',(0.,-1.,0.));
#1364=DIRECTION('',(-1.,0.,0.));
#1365=DIRECTION('',(0.,0.,1.));
#1366=DIRECTION('',(0.,1.,0.));
#1367=DIRECTION('',(0.,0.,-1.));
#1368=DIRECTION('',(0.,1.,0.));
#1369=DIRECTION('',(0.,0.,-1.));
#1370=DIRECTION('',(0.,1.,0.));
#1371=DIRECTION('',(0.,0.,-1.));
#1372=DIRECTION('',(0.,1.,0.));
#1373=DIRECTION('',(0.,0.,-1.));
#1374=DIRECTION('',(-1.,0.,0.));
#1375=DIRECTION('',(0.,0.,1.));
#1376=DIRECTION('',(0.,-1.,1.57702134179709E-16));
#1377=DIRECTION('',(0.,0.,-1.));
#1378=DIRECTION('',(0.,1.,0.));
#1379=DIRECTION('',(0.,0.,-1.));
#1380=DIRECTION('',(0.,1.,0.));
#1381=DIRECTION('',(0.,0.,-1.));
#1382=DIRECTION('',(-1.,-9.91270557701033E-17,0.));
#1383=DIRECTION('',(9.91270557701033E-17,-1.,0.));
#1384=DIRECTION('',(-9.91270557701033E-17,1.,0.));
#1385=DIRECTION('',(0.,0.,-1.));
#1386=DIRECTION('',(-9.91270557701033E-17,1.,0.));
#1387=DIRECTION('',(0.,0.,-1.));
#1388=DIRECTION('',(0.,0.,-1.));
#1389=DIRECTION('',(9.91270557701033E-17,-1.,1.57702134179709E-16));
#1390=DIRECTION('',(0.,0.,-1.));
#1391=DIRECTION('',(9.91270557701033E-17,-1.,1.57702134179709E-16));
#1392=DIRECTION('',(0.,1.,0.));
#1393=DIRECTION('',(0.,0.,1.));
#1394=DIRECTION('',(0.,0.,-1.));
#1395=DIRECTION('',(1.,0.,0.));
#1396=DIRECTION('',(0.,0.,-1.));
#1397=DIRECTION('',(1.,0.,0.));
#1398=DIRECTION('',(0.,0.,1.));
#1399=DIRECTION('',(1.,0.,0.));
#1400=DIRECTION('',(-1.,0.,0.));
#1401=DIRECTION('',(-1.,-9.91270557701033E-17,0.));
#1402=DIRECTION('',(-1.,-1.81014623580188E-16,0.));
#1403=DIRECTION('',(-1.,-3.79470760369927E-16,0.));
#1404=DIRECTION('',(-5.13992141030165E-16,1.,0.));
#1405=DIRECTION('',(-1.,0.,0.));
#1406=DIRECTION('',(-4.17618614587009E-16,1.,0.));
#1407=DIRECTION('',(0.,-1.,0.));
#1408=DIRECTION('',(1.,0.,0.));
#1409=DIRECTION('',(0.,-1.,0.));
#1410=DIRECTION('',(1.,0.,0.));
#1411=DIRECTION('',(1.,0.,0.));
#1412=DIRECTION('',(0.,-1.,0.));
#1413=DIRECTION('',(1.,0.,0.));
#1414=DIRECTION('',(0.,-1.,0.));
#1415=DIRECTION('',(0.,1.,0.));
#1416=DIRECTION('',(1.,0.,0.));
#1417=DIRECTION('',(0.,1.,0.));
#1418=DIRECTION('',(0.,1.,0.));
#1419=DIRECTION('',(0.,0.,1.));
#1420=DIRECTION('',(0.,0.,-1.));
#1421=DIRECTION('',(1.,0.,0.));
#1422=DIRECTION('',(0.,0.,-1.));
#1423=DIRECTION('',(1.,0.,0.));
#1424=DIRECTION('',(0.,0.,-1.));
#1425=DIRECTION('',(0.,0.,-1.));
#1426=DIRECTION('',(0.,-1.,0.));
#1427=DIRECTION('',(0.,1.,0.));
#1428=DIRECTION('',(0.,0.,1.));
#1429=DIRECTION('',(0.,0.,-1.));
#1430=DIRECTION('',(1.,0.,0.));
#1431=DIRECTION('',(1.,0.,0.));
#1432=DIRECTION('',(0.,0.,-1.));
#1433=DIRECTION('',(0.,-1.,0.));
#1434=DIRECTION('',(0.,0.,1.));
#1435=DIRECTION('',(1.,0.,0.));
#1436=DIRECTION('',(-1.,0.,0.));
#1437=DIRECTION('',(0.,0.,1.));
#1438=DIRECTION('',(0.,1.,0.));
#1439=DIRECTION('',(0.,0.,-1.));
#1440=DIRECTION('',(0.,1.,0.));
#1441=DIRECTION('',(0.,0.,1.));
#1442=DIRECTION('',(1.,0.,0.));
#1443=DIRECTION('',(0.,0.,-1.));
#1444=DIRECTION('',(0.,0.,-1.));
#1445=DIRECTION('',(-1.,0.,0.));
#1446=DIRECTION('',(0.,0.,1.));
#1447=DIRECTION('',(0.,0.,-1.));
#1448=DIRECTION('',(0.,1.,0.));
#1449=DIRECTION('',(0.,1.,0.));
#1450=DIRECTION('',(0.,0.,1.));
#1451=DIRECTION('',(1.,0.,0.));
#1452=DIRECTION('',(0.,0.,1.));
#1453=DIRECTION('',(1.,0.,0.));
#1454=DIRECTION('',(1.,0.,0.));
#1455=DIRECTION('',(-2.75352932694731E-16,1.,0.));
#1456=DIRECTION('',(-1.,-2.75352932694731E-16,0.));
#1457=DIRECTION('',(1.,2.75352932694731E-16,0.));
#1458=DIRECTION('',(0.,0.,-1.));
#1459=DIRECTION('',(1.,2.75352932694731E-16,0.));
#1460=DIRECTION('',(0.,0.,-1.));
#1461=DIRECTION('',(-1.,0.,0.));
#1462=DIRECTION('',(0.,0.,1.));
#1463=DIRECTION('',(0.,1.,0.));
#1464=DIRECTION('',(0.,0.,-1.));
#1465=DIRECTION('',(0.,1.,0.));
#1466=DIRECTION('',(-2.20282346155785E-16,1.,0.));
#1467=DIRECTION('',(-1.,-2.20282346155785E-16,0.));
#1468=DIRECTION('',(1.,2.20282346155785E-16,0.));
#1469=DIRECTION('',(0.,0.,-1.));
#1470=DIRECTION('',(1.,2.20282346155785E-16,0.));
#1471=DIRECTION('',(3.79470760369927E-16,-1.,0.));
#1472=DIRECTION('',(1.,3.79470760369927E-16,0.));
#1473=DIRECTION('',(0.,0.,-1.));
#1474=DIRECTION('',(-1.,-3.79470760369927E-16,0.));
#1475=DIRECTION('',(0.,0.,-1.));
#1476=DIRECTION('',(-1.,-4.17618614587009E-16,0.));
#1477=DIRECTION('',(4.17618614587009E-16,-1.,0.));
#1478=DIRECTION('',(0.,0.,-1.));
#1479=DIRECTION('',(-4.17618614587009E-16,1.,0.));
#1480=DIRECTION('',(0.,-1.,0.));
#1481=DIRECTION('',(0.,0.,-1.));
#1482=DIRECTION('',(0.,0.,-1.));
#1483=DIRECTION('',(-1.,0.,0.));
#1484=DIRECTION('',(-1.,-5.13992141030165E-16,0.));
#1485=DIRECTION('',(5.13992141030165E-16,-1.,0.));
#1486=DIRECTION('',(-5.13992141030165E-16,1.,0.));
#1487=DIRECTION('',(-1.,0.,0.));
#1488=DIRECTION('',(0.,0.,1.));
#1489=DIRECTION('',(0.,1.,0.));
#1490=DIRECTION('',(0.,1.,0.));
#1491=DIRECTION('',(0.,0.,1.));
#1492=DIRECTION('',(1.,0.,0.));
#1493=DIRECTION('',(0.,0.,1.));
#1494=DIRECTION('',(1.,0.,0.));
#1495=DIRECTION('',(1.81014623580188E-16,-1.,0.));
#1496=DIRECTION('',(1.,1.81014623580188E-16,0.));
#1497=DIRECTION('',(-1.,-1.81014623580188E-16,0.));
#1498=DIRECTION('',(0.,0.,1.));
#1499=DIRECTION('',(-1.,-1.81014623580188E-16,0.));
#1500=DIRECTION('',(0.,-1.,0.));
#1501=DIRECTION('',(0.,0.,-1.));
#1502=DIRECTION('',(0.,0.,1.));
#1503=DIRECTION('',(-1.,0.,0.));
#1504=DIRECTION('',(-1.,-9.91270557701033E-17,0.));
#1505=DIRECTION('',(-1.,0.,0.));
#1506=DIRECTION('',(0.,0.,1.));
#1507=DIRECTION('',(1.,0.,0.));
#1508=DIRECTION('',(0.,0.,1.));
#1509=DIRECTION('',(1.,0.,0.));
#1510=DIRECTION('',(0.,0.,1.));
#1511=DIRECTION('',(1.,0.,0.));
#1512=DIRECTION('',(0.,0.,1.));
#1513=DIRECTION('',(1.,0.,0.));
#1514=DIRECTION('',(0.,0.,1.));
#1515=DIRECTION('',(1.,0.,0.));
#1516=DIRECTION('',(-1.,0.,0.));
#1517=DIRECTION('',(-1.,0.,0.));
#1518=DIRECTION('',(0.,0.,1.));
#1519=DIRECTION('',(1.,0.,0.));
#1520=DIRECTION('',(-1.,0.,0.));
#1521=DIRECTION('',(-1.,0.,0.));
#1522=DIRECTION('',(0.,-1.,0.));
#1523=DIRECTION('',(0.,0.,-1.));
#1524=DIRECTION('',(0.,-1.,0.));
#1525=DIRECTION('',(0.,0.,-1.));
#1526=DIRECTION('',(0.,1.,0.));
#1527=DIRECTION('',(0.,0.,1.));
#1528=DIRECTION('',(0.,0.,-1.));
#1529=DIRECTION('',(1.,0.,0.));
#1530=DIRECTION('',(0.,0.,-1.));
#1531=DIRECTION('',(1.,0.,0.));
#1532=DIRECTION('',(0.,0.,-1.));
#1533=DIRECTION('',(-1.,0.,0.));
#1534=DIRECTION('',(0.,0.,1.));
#1535=DIRECTION('',(0.,0.,-1.));
#1536=DIRECTION('',(0.,-1.,0.));
#1537=DIRECTION('',(0.,1.,0.));
#1538=DIRECTION('',(0.,0.,1.));
#1539=DIRECTION('',(0.,0.,-1.));
#1540=DIRECTION('',(1.,0.,0.));
#1541=DIRECTION('',(1.,0.,0.));
#1542=DIRECTION('',(0.,0.,-1.));
#1543=DIRECTION('',(0.,-1.,0.));
#1544=DIRECTION('',(0.,0.,1.));
#1545=DIRECTION('',(1.,0.,0.));
#1546=DIRECTION('',(1.56325482498964E-32,-1.57702134179709E-16,-1.));
#1547=DIRECTION('',(0.,1.,-1.57702134179709E-16));
#1548=DIRECTION('',(-1.,-9.91270557701033E-17,0.));
#1549=DIRECTION('',(-9.91270557701033E-17,1.,0.));
#1550=DIRECTION('',(-1.,-9.91270557701033E-17,0.));
#1551=DIRECTION('',(-1.,0.,0.));
#1552=DIRECTION('',(0.,0.,1.));
#1553=DIRECTION('',(-1.,0.,0.));
#1554=DIRECTION('',(0.,0.,1.));
#1555=DIRECTION('',(-1.,0.,0.));
#1556=DIRECTION('',(0.,-1.,0.));
#1557=DIRECTION('',(0.,0.,-1.));
#1558=DIRECTION('',(-1.,0.,0.));
#1559=DIRECTION('',(1.,0.,0.));
#1560=DIRECTION('',(0.,1.,0.));
#1561=DIRECTION('',(1.,0.,0.));
#1562=DIRECTION('',(0.,-1.,0.));
#1563=DIRECTION('',(0.,0.,-1.));
#1564=DIRECTION('',(0.,0.,-1.));
#1565=DIRECTION('',(1.,0.,0.));
#1566=DIRECTION('',(0.,0.,-1.));
#1567=DIRECTION('',(-1.,0.,0.));
#1568=DIRECTION('',(0.,1.,0.));
#1569=DIRECTION('',(1.,0.,0.));
#1570=DIRECTION('',(0.,-1.,0.));
#1571=DIRECTION('',(0.,0.,-1.));
#1572=DIRECTION('',(0.,0.,-1.));
#1573=DIRECTION('',(0.,0.,-1.));
#1574=DIRECTION('',(-1.,0.,0.));
#1575=DIRECTION('',(0.,0.707106781186548,-0.707106781186548));
#1576=DIRECTION('',(0.,0.707106781186548,0.707106781186548));
#1577=DIRECTION('',(0.,-0.707106781186548,-0.707106781186548));
#1578=DIRECTION('',(0.,0.707106781186548,-0.707106781186548));
#1579=DIRECTION('',(0.,-1.,0.));
#1580=DIRECTION('',(0.,0.,-1.));
#1581=DIRECTION('',(0.,-0.707106781186548,0.707106781186548));
#1582=DIRECTION('',(0.,0.707106781186548,0.707106781186548));
#1583=DIRECTION('',(0.,1.,0.));
#1584=DIRECTION('',(0.,0.,1.));
#1585=DIRECTION('',(0.,0.707106781186548,0.707106781186548));
#1586=DIRECTION('',(0.,-0.707106781186548,0.707106781186548));
#1587=DIRECTION('',(0.,0.,1.));
#1588=DIRECTION('',(1.,0.,0.));
#1589=DIRECTION('',(0.,0.,1.));
#1590=DIRECTION('',(1.,0.,0.));
#1591=DIRECTION('',(0.,0.,1.));
#1592=DIRECTION('',(1.,0.,0.));
#1593=DIRECTION('',(0.,0.,1.));
#1594=DIRECTION('',(1.,0.,0.));
#1595=DIRECTION('',(0.,0.,1.));
#1596=DIRECTION('',(1.,0.,0.));
#1597=DIRECTION('',(0.,0.,1.));
#1598=DIRECTION('',(1.,0.,0.));
#1599=DIRECTION('',(0.,0.,1.));
#1600=DIRECTION('',(1.,0.,0.));
#1601=DIRECTION('',(0.,0.,1.));
#1602=DIRECTION('',(1.,0.,0.));
#1603=DIRECTION('',(0.,0.,1.));
#1604=DIRECTION('',(1.,0.,0.));
#1605=DIRECTION('',(0.,0.,1.));
#1606=DIRECTION('',(1.,0.,0.));
#1607=DIRECTION('',(0.,0.,1.));
#1608=DIRECTION('',(1.,0.,0.));
#1609=DIRECTION('',(0.,0.,1.));
#1610=DIRECTION('',(1.,0.,0.));
#1611=DIRECTION('',(0.,0.,1.));
#1612=DIRECTION('',(1.,0.,0.));
#1613=DIRECTION('',(0.,0.,1.));
#1614=DIRECTION('',(1.,0.,0.));
#1615=DIRECTION('',(0.,-1.,0.));
#1616=DIRECTION('',(0.,0.,-1.));
#1617=DIRECTION('',(-1.,0.,0.));
#1618=DIRECTION('',(0.,0.,-1.));
#1619=DIRECTION('',(-1.,0.,0.));
#1620=DIRECTION('',(0.,0.,-1.));
#1621=DIRECTION('',(-1.,0.,0.));
#1622=DIRECTION('',(0.,0.,1.));
#1623=DIRECTION('',(0.,1.,0.));
#1624=DIRECTION('',(0.,0.,-1.));
#1625=DIRECTION('',(0.,1.,0.));
#1626=DIRECTION('',(0.,-1.,0.));
#1627=DIRECTION('',(0.,0.,-1.));
#1628=DIRECTION('',(-1.,0.,0.));
#1629=DIRECTION('',(0.,0.,-1.));
#1630=DIRECTION('',(-1.,0.,0.));
#1631=DIRECTION('',(-1.,-9.91270557701033E-17,0.));
#1632=DIRECTION('',(9.91270557701033E-17,-1.,0.));
#1633=DIRECTION('',(-9.91270557701033E-17,1.,0.));
#1634=DIRECTION('',(-9.91270557701033E-17,1.,0.));
#1635=DIRECTION('',(0.,0.,1.));
#1636=DIRECTION('',(1.,0.,0.));
#1637=DIRECTION('',(0.,0.,1.));
#1638=DIRECTION('',(1.,0.,0.));
#1639=DIRECTION('',(0.,0.,1.));
#1640=DIRECTION('',(1.,0.,0.));
#1641=DIRECTION('',(0.,0.,1.));
#1642=DIRECTION('',(1.,0.,0.));
#1643=DIRECTION('',(0.,0.,1.));
#1644=DIRECTION('',(1.,0.,0.));
#1645=DIRECTION('',(0.,0.,1.));
#1646=DIRECTION('',(1.,0.,0.));
#1647=DIRECTION('',(0.,0.,1.));
#1648=DIRECTION('',(1.,0.,0.));
#1649=DIRECTION('',(0.,0.,1.));
#1650=DIRECTION('',(1.,0.,0.));
#1651=DIRECTION('',(0.,0.,1.));
#1652=DIRECTION('',(1.,0.,0.));
#1653=DIRECTION('',(0.,0.,1.));
#1654=DIRECTION('',(1.,0.,0.));
#1655=DIRECTION('',(0.,0.,1.));
#1656=DIRECTION('',(1.,0.,0.));
#1657=DIRECTION('',(0.,0.,1.));
#1658=DIRECTION('',(1.,0.,0.));
#1659=DIRECTION('',(0.,0.,1.));
#1660=DIRECTION('',(1.,0.,0.));
#1661=DIRECTION('',(0.,0.,1.));
#1662=DIRECTION('',(1.,0.,0.));
#1663=CARTESIAN_POINT('',(0.,0.,0.));
#1664=CARTESIAN_POINT('',(-0.0444982871413231,0.137,0.014));
#1665=CARTESIAN_POINT('',(-0.0444982871413231,0.137,0.014));
#1666=CARTESIAN_POINT('',(-0.0431982871413231,0.137,0.014));
#1667=CARTESIAN_POINT('',(-0.0444982871413231,0.129,0.014));
#1668=CARTESIAN_POINT('',(-0.0431982871413231,0.129,0.014));
#1669=CARTESIAN_POINT('',(0.,0.,0.));
#1670=CARTESIAN_POINT('',(-0.002,0.07,0.043));
#1671=CARTESIAN_POINT('',(-0.002,0.13690119115183,0.035));
#1672=CARTESIAN_POINT('',(-0.002,0.13690119115183,0.035));
#1673=CARTESIAN_POINT('',(-0.002,0.13690119115183,0.043));
#1674=CARTESIAN_POINT('',(-0.002,0.07,0.035));
#1675=CARTESIAN_POINT('',(-0.002,0.137,0.035));
#1676=CARTESIAN_POINT('',(-0.002,0.137,0.043));
#1677=CARTESIAN_POINT('',(-0.002,0.137,0.003));
#1678=CARTESIAN_POINT('',(-0.002,0.07,0.003));
#1679=CARTESIAN_POINT('',(-0.002,0.003,0.003));
#1680=CARTESIAN_POINT('',(-0.002,0.003,0.043));
#1681=CARTESIAN_POINT('',(-0.002,0.003,0.035));
#1682=CARTESIAN_POINT('',(-0.002,0.07,0.035));
#1683=CARTESIAN_POINT('',(-0.002,0.00309880884817015,0.035));
#1684=CARTESIAN_POINT('',(-0.002,0.00309880884817015,0.035));
#1685=CARTESIAN_POINT('',(-0.002,0.00309880884817015,0.043));
#1686=CARTESIAN_POINT('',(-0.002,0.07,0.043));
#1687=CARTESIAN_POINT('',(-0.002,0.060474656522274,0.043));
#1688=CARTESIAN_POINT('',(-0.002,0.060474656522274,0.00808835588395596));
#1689=CARTESIAN_POINT('',(-0.002,0.060474656522274,0.0132664386183023));
#1690=CARTESIAN_POINT('',(-0.002,0.07,0.0132664386183023));
#1691=CARTESIAN_POINT('',(-0.002,0.0276801362633705,0.0132664386183023));
#1692=CARTESIAN_POINT('',(-0.002,0.0276801362633705,0.043));
#1693=CARTESIAN_POINT('',(-0.002,0.0276801362633705,0.00808835588395596));
#1694=CARTESIAN_POINT('',(-0.002,0.07,0.00808835588395596));
#1695=CARTESIAN_POINT('',(0.,0.07,0.003));
#1696=CARTESIAN_POINT('',(0.,0.060474656522274,0.0142664386183023));
#1697=CARTESIAN_POINT('',(0.,0.0266801362633705,0.0142664386183023));
#1698=CARTESIAN_POINT('',(0.,0.061474656522274,0.0142664386183023));
#1699=CARTESIAN_POINT('',(0.,0.061474656522274,0.00808835588395596));
#1700=CARTESIAN_POINT('',(0.,0.061474656522274,0.00708835588395596));
#1701=CARTESIAN_POINT('',(0.,0.07,0.00708835588395596));
#1702=CARTESIAN_POINT('',(0.,0.0266801362633705,0.00708835588395596));
#1703=CARTESIAN_POINT('',(0.,0.0266801362633705,0.003));
#1704=CARTESIAN_POINT('',(0.,0.07,0.));
#1705=CARTESIAN_POINT('',(0.,0.,0.));
#1706=CARTESIAN_POINT('',(-2.77555756156289E-17,0.14,0.));
#1707=CARTESIAN_POINT('',(-2.77555756156289E-17,0.14,0.003));
#1708=CARTESIAN_POINT('',(-2.77555756156289E-17,0.14,0.043));
#1709=CARTESIAN_POINT('',(0.,0.07,0.043));
#1710=CARTESIAN_POINT('',(0.,0.,0.043));
#1711=CARTESIAN_POINT('',(0.,0.,0.003));
#1712=CARTESIAN_POINT('',(-0.117,0.07,0.043));
#1713=CARTESIAN_POINT('',(-0.117,0.07,0.014));
#1714=CARTESIAN_POINT('',(-0.117,0.137,0.014));
#1715=CARTESIAN_POINT('',(-0.117,0.126,0.014));
#1716=CARTESIAN_POINT('',(-0.117,0.137,0.043));
#1717=CARTESIAN_POINT('',(-0.117,0.137,0.043));
#1718=CARTESIAN_POINT('',(-0.117,0.07,0.043));
#1719=CARTESIAN_POINT('',(-0.117,0.003,0.043));
#1720=CARTESIAN_POINT('',(-0.117,0.003,0.043));
#1721=CARTESIAN_POINT('',(-0.117,0.003,0.003));
#1722=CARTESIAN_POINT('',(-0.117,0.07,0.003));
#1723=CARTESIAN_POINT('',(-0.117,0.126,0.003));
#1724=CARTESIAN_POINT('',(-0.117,0.126,0.043));
#1725=CARTESIAN_POINT('',(-0.12,0.07,0.003));
#1726=CARTESIAN_POINT('',(-0.12,0.07,0.));
#1727=CARTESIAN_POINT('',(-0.12,-6.93889390390723E-18,0.));
#1728=CARTESIAN_POINT('',(-0.12,0.14,0.));
#1729=CARTESIAN_POINT('',(-0.12,-6.93889390390723E-18,0.003));
#1730=CARTESIAN_POINT('',(-0.12,-6.93889390390723E-18,0.043));
#1731=CARTESIAN_POINT('',(-0.12,0.07,0.043));
#1732=CARTESIAN_POINT('',(-0.12,0.14,0.043));
#1733=CARTESIAN_POINT('',(-0.12,0.14,0.003));
#1734=CARTESIAN_POINT('',(-0.12,0.137,0.0085));
#1735=CARTESIAN_POINT('',(-0.12,0.137,0.014));
#1736=CARTESIAN_POINT('',(-0.12,0.137,0.003));
#1737=CARTESIAN_POINT('',(-0.12,0.1315,0.014));
#1738=CARTESIAN_POINT('',(-0.12,0.126,0.014));
#1739=CARTESIAN_POINT('',(-0.12,0.126,0.0085));
#1740=CARTESIAN_POINT('',(-0.12,0.126,0.003));
#1741=CARTESIAN_POINT('',(-0.12,0.1315,0.003));
#1742=CARTESIAN_POINT('',(-0.041064190864563,0.1289,0.004));
#1743=CARTESIAN_POINT('',(-0.0427162162959575,0.1289,0.008738));
#1744=CARTESIAN_POINT('',(-0.0427162162959575,0.1289,0.004));
#1745=CARTESIAN_POINT('',(-0.0427162162959575,0.1289,0.003));
#1746=CARTESIAN_POINT('',(-0.041064190864563,0.1289,0.004));
#1747=CARTESIAN_POINT('',(-0.053564190864563,0.1289,0.004));
#1748=CARTESIAN_POINT('',(-0.053564190864563,0.1289,0.004));
#1749=CARTESIAN_POINT('',(-0.053564190864563,0.1289,0.003));
#1750=CARTESIAN_POINT('',(-0.041064190864563,0.1289,0.003));
#1751=CARTESIAN_POINT('',(-0.06,0.07,0.003));
#1752=CARTESIAN_POINT('',(-0.0595,0.137,0.003));
#1753=CARTESIAN_POINT('',(-0.095,0.126,0.003));
#1754=CARTESIAN_POINT('',(-0.0595,0.003,0.003));
#1755=CARTESIAN_POINT('',(-0.0415,0.0200945918932557,0.003));
#1756=CARTESIAN_POINT('',(-0.0095,0.0200945918932557,0.003));
#1757=CARTESIAN_POINT('',(-0.0735,0.0200945918932557,0.003));
#1758=CARTESIAN_POINT('',(-0.0735,0.0470945918932557,0.003));
#1759=CARTESIAN_POINT('',(-0.0735,0.0740945918932557,0.003));
#1760=CARTESIAN_POINT('',(-0.0415,0.0740945918932557,0.003));
#1761=CARTESIAN_POINT('',(-0.0095,0.0740945918932557,0.003));
#1762=CARTESIAN_POINT('',(-0.0095,0.0470945918932557,0.003));
#1763=CARTESIAN_POINT('',(-0.0566385164856911,0.1345,0.003));
#1764=CARTESIAN_POINT('',(-0.0566385164856911,0.135,0.003));
#1765=CARTESIAN_POINT('',(-0.0566385164856911,0.134,0.003));
#1766=CARTESIAN_POINT('',(-0.0441385164856911,0.135,0.003));
#1767=CARTESIAN_POINT('',(-0.031638516485691,0.135,0.003));
#1768=CARTESIAN_POINT('',(-0.031638516485691,0.1345,0.003));
#1769=CARTESIAN_POINT('',(-0.031638516485691,0.134,0.003));
#1770=CARTESIAN_POINT('',(-0.0441385164856911,0.134,0.003));
#1771=CARTESIAN_POINT('',(-0.041064190864563,0.1289,0.003));
#1772=CARTESIAN_POINT('',(-0.0297162162959576,0.1289,0.003));
#1773=CARTESIAN_POINT('',(-0.028564190864563,0.1289,0.003));
#1774=CARTESIAN_POINT('',(-0.0297162162959576,0.1159,0.003));
#1775=CARTESIAN_POINT('',(-0.0297162162959576,0.1029,0.003));
#1776=CARTESIAN_POINT('',(-0.0362162162959575,0.1029,0.003));
#1777=CARTESIAN_POINT('',(-0.0427162162959575,0.1029,0.003));
#1778=CARTESIAN_POINT('',(-0.0427162162959575,0.1159,0.003));
#1779=CARTESIAN_POINT('',(-0.053564190864563,0.1294,0.003));
#1780=CARTESIAN_POINT('',(-0.053564190864563,0.1299,0.003));
#1781=CARTESIAN_POINT('',(-0.041064190864563,0.1299,0.003));
#1782=CARTESIAN_POINT('',(-0.028564190864563,0.1299,0.003));
#1783=CARTESIAN_POINT('',(-0.028564190864563,0.1294,0.003));
#1784=CARTESIAN_POINT('',(-0.0441385164856911,0.135,0.004));
#1785=CARTESIAN_POINT('',(-0.0566385164856911,0.135,0.004));
#1786=CARTESIAN_POINT('',(-0.0566385164856911,0.135,0.004));
#1787=CARTESIAN_POINT('',(-0.0441385164856911,0.135,0.004));
#1788=CARTESIAN_POINT('',(-0.031638516485691,0.135,0.004));
#1789=CARTESIAN_POINT('',(-0.031638516485691,0.135,0.004));
#1790=CARTESIAN_POINT('',(-0.0566385164856911,0.1345,0.004));
#1791=CARTESIAN_POINT('',(-0.0566385164856911,0.134,0.004));
#1792=CARTESIAN_POINT('',(-0.0566385164856911,0.134,0.004));
#1793=CARTESIAN_POINT('',(-0.0566385164856911,0.1345,0.004));
#1794=CARTESIAN_POINT('',(-0.0441385164856911,0.134,0.004));
#1795=CARTESIAN_POINT('',(-0.031638516485691,0.134,0.004));
#1796=CARTESIAN_POINT('',(-0.031638516485691,0.134,0.004));
#1797=CARTESIAN_POINT('',(-0.0441385164856911,0.134,0.004));
#1798=CARTESIAN_POINT('',(-0.031638516485691,0.1345,0.004));
#1799=CARTESIAN_POINT('',(-0.031638516485691,0.1345,0.004));
#1800=CARTESIAN_POINT('',(-0.06,0.07,0.004));
#1801=CARTESIAN_POINT('',(-0.053564190864563,0.1294,0.004));
#1802=CARTESIAN_POINT('',(-0.053564190864563,0.1294,0.004));
#1803=CARTESIAN_POINT('',(-0.053564190864563,0.1299,0.004));
#1804=CARTESIAN_POINT('',(-0.053564190864563,0.1299,0.004));
#1805=CARTESIAN_POINT('',(-0.041064190864563,0.1289,0.004));
#1806=CARTESIAN_POINT('',(-0.041064190864563,0.1289,0.004));
#1807=CARTESIAN_POINT('',(-0.0297162162959576,0.1289,0.004));
#1808=CARTESIAN_POINT('',(-0.028564190864563,0.1289,0.004));
#1809=CARTESIAN_POINT('',(-0.0297162162959576,0.1289,0.008738));
#1810=CARTESIAN_POINT('',(-0.028564190864563,0.1289,0.004));
#1811=CARTESIAN_POINT('',(-0.028564190864563,0.1294,0.004));
#1812=CARTESIAN_POINT('',(-0.028564190864563,0.1299,0.004));
#1813=CARTESIAN_POINT('',(-0.028564190864563,0.1299,0.004));
#1814=CARTESIAN_POINT('',(-0.028564190864563,0.1294,0.004));
#1815=CARTESIAN_POINT('',(-0.041064190864563,0.1299,0.004));
#1816=CARTESIAN_POINT('',(-0.041064190864563,0.1299,0.004));
#1817=CARTESIAN_POINT('',(-0.06,0.07,0.004));
#1818=CARTESIAN_POINT('',(-0.041064190864563,0.1289,0.004));
#1819=CARTESIAN_POINT('',(-0.0415,0.0205945918932557,0.005));
#1820=CARTESIAN_POINT('',(-0.0415,0.0205945918932557,0.003));
#1821=CARTESIAN_POINT('',(-0.073,0.0205945918932557,0.003));
#1822=CARTESIAN_POINT('',(-0.01,0.0205945918932557,0.003));
#1823=CARTESIAN_POINT('',(-0.073,0.0205945918932557,0.005));
#1824=CARTESIAN_POINT('',(-0.073,0.0205945918932557,0.005));
#1825=CARTESIAN_POINT('',(-0.0415,0.0205945918932557,0.005));
#1826=CARTESIAN_POINT('',(-0.01,0.0205945918932557,0.005));
#1827=CARTESIAN_POINT('',(-0.01,0.0205945918932557,0.005));
#1828=CARTESIAN_POINT('',(-0.073,0.0470945918932557,0.005));
#1829=CARTESIAN_POINT('',(-0.073,0.0470945918932557,0.003));
#1830=CARTESIAN_POINT('',(-0.073,0.0735945918932557,0.003));
#1831=CARTESIAN_POINT('',(-0.073,0.0735945918932557,0.005));
#1832=CARTESIAN_POINT('',(-0.073,0.0735945918932557,0.005));
#1833=CARTESIAN_POINT('',(-0.073,0.0470945918932557,0.005));
#1834=CARTESIAN_POINT('',(-0.0415,0.0735945918932557,0.005));
#1835=CARTESIAN_POINT('',(-0.0415,0.0735945918932557,0.003));
#1836=CARTESIAN_POINT('',(-0.01,0.0735945918932557,0.003));
#1837=CARTESIAN_POINT('',(-0.01,0.0735945918932557,0.005));
#1838=CARTESIAN_POINT('',(-0.01,0.0735945918932557,0.005));
#1839=CARTESIAN_POINT('',(-0.0415,0.0735945918932557,0.005));
#1840=CARTESIAN_POINT('',(-0.0415,0.0200945918932557,0.005));
#1841=CARTESIAN_POINT('',(-0.0095,0.0200945918932557,0.005));
#1842=CARTESIAN_POINT('',(-0.0095,0.0200945918932557,0.005));
#1843=CARTESIAN_POINT('',(-0.0415,0.0200945918932557,0.005));
#1844=CARTESIAN_POINT('',(-0.0735,0.0200945918932557,0.005));
#1845=CARTESIAN_POINT('',(-0.0735,0.0200945918932557,0.005));
#1846=CARTESIAN_POINT('',(-0.0095,0.0470945918932557,0.005));
#1847=CARTESIAN_POINT('',(-0.0095,0.0740945918932557,0.005));
#1848=CARTESIAN_POINT('',(-0.0095,0.0740945918932557,0.005));
#1849=CARTESIAN_POINT('',(-0.0095,0.0470945918932557,0.005));
#1850=CARTESIAN_POINT('',(-0.0415,0.0740945918932557,0.005));
#1851=CARTESIAN_POINT('',(-0.0735,0.0740945918932557,0.005));
#1852=CARTESIAN_POINT('',(-0.0735,0.0740945918932557,0.005));
#1853=CARTESIAN_POINT('',(-0.0415,0.0740945918932557,0.005));
#1854=CARTESIAN_POINT('',(-0.0735,0.0470945918932557,0.005));
#1855=CARTESIAN_POINT('',(-0.0735,0.0470945918932557,0.005));
#1856=CARTESIAN_POINT('',(-0.01,0.0470945918932557,0.005));
#1857=CARTESIAN_POINT('',(-0.01,0.0470945918932557,0.003));
#1858=CARTESIAN_POINT('',(-0.01,0.0470945918932557,0.005));
#1859=CARTESIAN_POINT('',(-0.06,0.07,0.005));
#1860=CARTESIAN_POINT('',(-0.06,0.07,0.003));
#1861=CARTESIAN_POINT('',(-0.0595,0.003,0.043));
#1862=CARTESIAN_POINT('',(-0.0595,0.003,0.043));
#1863=CARTESIAN_POINT('',(-0.00249721359549995,0.003,0.043));
#1864=CARTESIAN_POINT('',(-0.00249721359549995,0.003,0.035));
#1865=CARTESIAN_POINT('',(-0.00249721359549995,0.003,0.035));
#1866=CARTESIAN_POINT('',(-0.0595,0.003,0.035));
#1867=CARTESIAN_POINT('',(-0.0595,0.137,0.043));
#1868=CARTESIAN_POINT('',(-0.00249721359549995,0.137,0.035));
#1869=CARTESIAN_POINT('',(-0.00249721359549995,0.137,0.043));
#1870=CARTESIAN_POINT('',(-0.00249721359549995,0.137,0.035));
#1871=CARTESIAN_POINT('',(-0.0595,0.137,0.043));
#1872=CARTESIAN_POINT('',(-0.095,0.137,0.014));
#1873=CARTESIAN_POINT('',(-0.0595,0.137,0.035));
#1874=CARTESIAN_POINT('',(-0.06,0.07,0.043));
#1875=CARTESIAN_POINT('',(-0.00205,0.13795,0.043));
#1876=CARTESIAN_POINT('',(-0.00205,0.00205,0.043));
#1877=CARTESIAN_POINT('',(-0.11795,0.00205,0.043));
#1878=CARTESIAN_POINT('',(-0.1169,0.00205,0.043));
#1879=CARTESIAN_POINT('',(-0.11795,0.13795,0.043));
#1880=CARTESIAN_POINT('',(-0.1169,0.13795,0.043));
#1881=CARTESIAN_POINT('',(-0.06,0.,0.043));
#1882=CARTESIAN_POINT('',(-0.06,0.14,0.043));
#1883=CARTESIAN_POINT('',(-0.06,0.07,0.));
#1884=CARTESIAN_POINT('',(-0.06,0.,0.));
#1885=CARTESIAN_POINT('',(-0.06,0.14,0.));
#1886=CARTESIAN_POINT('',(-0.06,0.14,0.003));
#1887=CARTESIAN_POINT('',(-0.06,0.,0.003));
#1888=CARTESIAN_POINT('',(-0.041064190864563,0.1289,0.008738));
#1889=CARTESIAN_POINT('',(-0.0427162162959575,0.1289,0.008738));
#1890=CARTESIAN_POINT('',(-0.0427162162959575,0.1289,0.008738));
#1891=CARTESIAN_POINT('',(-0.041064190864563,0.1289,0.008738));
#1892=CARTESIAN_POINT('',(-0.0297162162959576,0.1289,0.008738));
#1893=CARTESIAN_POINT('',(-0.0297162162959576,0.1289,0.008738));
#1894=CARTESIAN_POINT('',(-0.0427162162959575,0.1159,0.008738));
#1895=CARTESIAN_POINT('',(-0.0427162162959575,0.121117,0.00505));
#1896=CARTESIAN_POINT('',(-0.0427162162959575,0.121117,0.00605));
#1897=CARTESIAN_POINT('',(-0.0427162162959575,0.1029,0.008738));
#1898=CARTESIAN_POINT('',(-0.0427162162959575,0.1029,0.008738));
#1899=CARTESIAN_POINT('',(-0.0427162162959575,0.1159,0.008738));
#1900=CARTESIAN_POINT('',(-0.0362162162959575,0.1029,0.008738));
#1901=CARTESIAN_POINT('',(-0.0297162162959576,0.1029,0.008738));
#1902=CARTESIAN_POINT('',(-0.0297162162959576,0.1029,0.008738));
#1903=CARTESIAN_POINT('',(-0.0362162162959575,0.1029,0.008738));
#1904=CARTESIAN_POINT('',(-0.0297162162959576,0.1159,0.008738));
#1905=CARTESIAN_POINT('',(-0.0297162162959576,0.1159,0.008738));
#1906=CARTESIAN_POINT('',(-0.0595,0.07,0.008738));
#1907=CARTESIAN_POINT('',(-0.095,0.1315,0.014));
#1908=CARTESIAN_POINT('',(-0.095,0.126,0.014));
#1909=CARTESIAN_POINT('',(-0.095,0.126,0.0085));
#1910=CARTESIAN_POINT('',(-0.0347162162959575,0.121117,0.00505));
#1911=CARTESIAN_POINT('',(-0.0347162162959575,0.121117,0.00505));
#1912=CARTESIAN_POINT('',(-0.0347162162959575,0.121117,0.00605));
#1913=CARTESIAN_POINT('',(-0.0347162162959575,0.1159,0.005869));
#1914=CARTESIAN_POINT('',(-0.025,0.0440773963928223,0.0132664386183023));
#1915=CARTESIAN_POINT('',(-0.025,0.060474656522274,0.0132664386183023));
#1916=CARTESIAN_POINT('',(-0.001,0.060474656522274,0.0132664386183023));
#1917=CARTESIAN_POINT('',(-0.001,0.0276801362633705,0.0132664386183023));
#1918=CARTESIAN_POINT('',(-0.001,0.0276801362633705,0.0132664386183023));
#1919=CARTESIAN_POINT('',(-0.025,0.0276801362633705,0.0132664386183023));
#1920=CARTESIAN_POINT('',(-0.025,0.0276801362633705,0.0106773972511291));
#1921=CARTESIAN_POINT('',(-0.001,0.0276801362633705,0.0106773972511291));
#1922=CARTESIAN_POINT('',(-0.001,0.0276801362633705,0.00808835588395596));
#1923=CARTESIAN_POINT('',(-0.025,0.0276801362633705,0.00808835588395596));
#1924=CARTESIAN_POINT('',(-0.025,0.0440773963928223,0.00808835588395596));
#1925=CARTESIAN_POINT('',(-0.001,0.0440773963928223,0.00808835588395596));
#1926=CARTESIAN_POINT('',(-0.001,0.060474656522274,0.00808835588395596));
#1927=CARTESIAN_POINT('',(-0.025,0.060474656522274,0.00808835588395596));
#1928=CARTESIAN_POINT('',(-0.025,0.060474656522274,0.0106773972511291));
#1929=CARTESIAN_POINT('',(-0.001,0.060474656522274,0.0132664386183023));
#1930=CARTESIAN_POINT('',(-0.001,0.0266801362633705,0.0106773972511291));
#1931=CARTESIAN_POINT('',(-0.001,0.0266801362633705,0.00708835588395596));
#1932=CARTESIAN_POINT('',(-0.001,0.0266801362633705,0.0142664386183023));
#1933=CARTESIAN_POINT('',(-0.001,0.07,0.0142664386183023));
#1934=CARTESIAN_POINT('',(-0.001,0.061474656522274,0.0142664386183023));
#1935=CARTESIAN_POINT('',(-0.001,0.0440773963928223,0.00708835588395596));
#1936=CARTESIAN_POINT('',(-0.001,0.061474656522274,0.00708835588395596));
#1937=CARTESIAN_POINT('',(-0.001,0.061474656522274,0.003));
#1938=CARTESIAN_POINT('',(-0.11795,0.13795,0.035));
#1939=CARTESIAN_POINT('',(-0.11795,0.13795,0.035));
#1940=CARTESIAN_POINT('',(-0.1169,0.13795,0.035));
#1941=CARTESIAN_POINT('',(-0.06,0.07,0.035));
#1942=CARTESIAN_POINT('',(-0.11795,0.00205,0.035));
#1943=CARTESIAN_POINT('',(-0.11795,0.00205,0.035));
#1944=CARTESIAN_POINT('',(-0.1169,0.00205,0.035));
#1945=CARTESIAN_POINT('',(-0.06,0.07,0.035));
#1946=CARTESIAN_POINT('',(-0.00205,0.13795,0.035));
#1947=CARTESIAN_POINT('',(-0.00205,0.13795,0.035));
#1948=CARTESIAN_POINT('',(-0.06,0.07,0.035));
#1949=CARTESIAN_POINT('',(-0.00205,0.00205,0.035));
#1950=CARTESIAN_POINT('',(-0.00205,0.00205,0.035));
#1951=CARTESIAN_POINT('',(-0.06,0.07,0.035));
#1952=CARTESIAN_POINT('',(0.,0.,0.));
#1953=CARTESIAN_POINT('',(-0.06,0.,0.044));
#1954=CARTESIAN_POINT('',(-0.06,0.,0.043));
#1955=CARTESIAN_POINT('',(0.,0.,0.043));
#1956=CARTESIAN_POINT('',(-0.12,-6.93889390390723E-18,0.043));
#1957=CARTESIAN_POINT('',(0.,0.,0.044));
#1958=CARTESIAN_POINT('',(0.,0.,0.044));
#1959=CARTESIAN_POINT('',(-0.06,0.,0.044));
#1960=CARTESIAN_POINT('',(-0.12,-6.93889390390723E-18,0.044));
#1961=CARTESIAN_POINT('',(-0.12,-6.93889390390723E-18,0.044));
#1962=CARTESIAN_POINT('',(0.,0.07,0.044));
#1963=CARTESIAN_POINT('',(0.,0.07,0.043));
#1964=CARTESIAN_POINT('',(-2.77555756156289E-17,0.14,0.043));
#1965=CARTESIAN_POINT('',(-2.77555756156289E-17,0.14,0.044));
#1966=CARTESIAN_POINT('',(-2.77555756156289E-17,0.14,0.044));
#1967=CARTESIAN_POINT('',(0.,0.07,0.044));
#1968=CARTESIAN_POINT('',(-0.06,0.14,0.044));
#1969=CARTESIAN_POINT('',(-0.06,0.14,0.043));
#1970=CARTESIAN_POINT('',(-0.12,0.14,0.043));
#1971=CARTESIAN_POINT('',(-0.12,0.14,0.044));
#1972=CARTESIAN_POINT('',(-0.12,0.14,0.044));
#1973=CARTESIAN_POINT('',(-0.06,0.14,0.044));
#1974=CARTESIAN_POINT('',(-0.12,0.07,0.044));
#1975=CARTESIAN_POINT('',(-0.12,0.07,0.043));
#1976=CARTESIAN_POINT('',(-0.12,0.07,0.044));
#1977=CARTESIAN_POINT('',(-0.06,0.07,0.044));
#1978=CARTESIAN_POINT('',(-0.11795,0.00205,0.044));
#1979=CARTESIAN_POINT('',(-0.1169,0.00205,0.044));
#1980=CARTESIAN_POINT('',(-0.00205,0.00205,0.044));
#1981=CARTESIAN_POINT('',(-0.001,0.00205,0.044));
#1982=CARTESIAN_POINT('',(-0.00205,0.13795,0.044));
#1983=CARTESIAN_POINT('',(-0.001,0.13795,0.044));
#1984=CARTESIAN_POINT('',(-0.11795,0.13795,0.044));
#1985=CARTESIAN_POINT('',(-0.1169,0.13795,0.044));
#1986=CARTESIAN_POINT('',(-0.06,0.07,0.043));
#1987=CARTESIAN_POINT('',(-0.11795,0.00205,0.043));
#1988=CARTESIAN_POINT('',(-0.1169,0.00205,0.043));
#1989=CARTESIAN_POINT('',(-0.00205,0.00205,0.043));
#1990=CARTESIAN_POINT('',(-0.001,0.00205,0.043));
#1991=CARTESIAN_POINT('',(-0.00205,0.13795,0.043));
#1992=CARTESIAN_POINT('',(-0.001,0.13795,0.043));
#1993=CARTESIAN_POINT('',(-0.11795,0.13795,0.043));
#1994=CARTESIAN_POINT('',(-0.1169,0.13795,0.043));
#1995=CARTESIAN_POINT('',(-0.11795,0.13795,0.043));
#1996=CARTESIAN_POINT('',(-0.00205,0.13795,0.043));
#1997=CARTESIAN_POINT('',(-0.00205,0.00205,0.043));
#1998=CARTESIAN_POINT('',(-0.11795,0.00205,0.043));
#1999=MECHANICAL_DESIGN_GEOMETRIC_PRESENTATION_REPRESENTATION('',(#1214),
#2002);
#2000=MECHANICAL_DESIGN_GEOMETRIC_PRESENTATION_REPRESENTATION('',(#1215),
#2003);
#2001=MECHANICAL_DESIGN_GEOMETRIC_PRESENTATION_REPRESENTATION('',(#1216),
#2004);
#2002=(
GEOMETRIC_REPRESENTATION_CONTEXT(3)
GLOBAL_UNCERTAINTY_ASSIGNED_CONTEXT((#2005))
GLOBAL_UNIT_ASSIGNED_CONTEXT((#2014,#2011,#2008))
REPRESENTATION_CONTEXT('Surface 1','TOP_LEVEL_ASSEMBLY_PART')
);
#2003=(
GEOMETRIC_REPRESENTATION_CONTEXT(3)
GLOBAL_UNCERTAINTY_ASSIGNED_CONTEXT((#2006))
GLOBAL_UNIT_ASSIGNED_CONTEXT((#2015,#2012,#2009))
REPRESENTATION_CONTEXT('Part 1','TOP_LEVEL_ASSEMBLY_PART')
);
#2004=(
GEOMETRIC_REPRESENTATION_CONTEXT(3)
GLOBAL_UNCERTAINTY_ASSIGNED_CONTEXT((#2007))
GLOBAL_UNIT_ASSIGNED_CONTEXT((#2016,#2013,#2010))
REPRESENTATION_CONTEXT('Part 2','TOP_LEVEL_ASSEMBLY_PART')
);
#2005=UNCERTAINTY_MEASURE_WITH_UNIT(LENGTH_MEASURE(1.E-8),#2014,
'DISTANCE_ACCURACY_VALUE','Maximum Tolerance applied to model');
#2006=UNCERTAINTY_MEASURE_WITH_UNIT(LENGTH_MEASURE(1.E-8),#2015,
'DISTANCE_ACCURACY_VALUE','Maximum Tolerance applied to model');
#2007=UNCERTAINTY_MEASURE_WITH_UNIT(LENGTH_MEASURE(1.E-8),#2016,
'DISTANCE_ACCURACY_VALUE','Maximum Tolerance applied to model');
#2008=(
NAMED_UNIT(*)
SI_UNIT($,.STERADIAN.)
SOLID_ANGLE_UNIT()
);
#2009=(
NAMED_UNIT(*)
SI_UNIT($,.STERADIAN.)
SOLID_ANGLE_UNIT()
);
#2010=(
NAMED_UNIT(*)
SI_UNIT($,.STERADIAN.)
SOLID_ANGLE_UNIT()
);
#2011=(
NAMED_UNIT(*)
PLANE_ANGLE_UNIT()
SI_UNIT($,.RADIAN.)
);
#2012=(
NAMED_UNIT(*)
PLANE_ANGLE_UNIT()
SI_UNIT($,.RADIAN.)
);
#2013=(
NAMED_UNIT(*)
PLANE_ANGLE_UNIT()
SI_UNIT($,.RADIAN.)
);
#2014=(
LENGTH_UNIT()
NAMED_UNIT(*)
SI_UNIT($,.METRE.)
);
#2015=(
LENGTH_UNIT()
NAMED_UNIT(*)
SI_UNIT($,.METRE.)
);
#2016=(
LENGTH_UNIT()
NAMED_UNIT(*)
SI_UNIT($,.METRE.)
);
#2017=PRODUCT_DEFINITION_SHAPE('','',#2020);
#2018=PRODUCT_DEFINITION_SHAPE('','',#2021);
#2019=PRODUCT_DEFINITION_SHAPE('','',#2022);
#2020=PRODUCT_DEFINITION('','',#2026,#2023);
#2021=PRODUCT_DEFINITION('','',#2027,#2024);
#2022=PRODUCT_DEFINITION('','',#2028,#2025);
#2023=PRODUCT_DEFINITION_CONTEXT('',#2044,'design');
#2024=PRODUCT_DEFINITION_CONTEXT('',#2045,'design');
#2025=PRODUCT_DEFINITION_CONTEXT('',#2046,'design');
#2026=PRODUCT_DEFINITION_FORMATION_WITH_SPECIFIED_SOURCE('','',#2032,
 .NOT_KNOWN.);
#2027=PRODUCT_DEFINITION_FORMATION_WITH_SPECIFIED_SOURCE('','',#2033,
 .NOT_KNOWN.);
#2028=PRODUCT_DEFINITION_FORMATION_WITH_SPECIFIED_SOURCE('','',#2034,
 .NOT_KNOWN.);
#2029=PRODUCT_RELATED_PRODUCT_CATEGORY('','',(#2032));
#2030=PRODUCT_RELATED_PRODUCT_CATEGORY('','',(#2033));
#2031=PRODUCT_RELATED_PRODUCT_CATEGORY('','',(#2034));
#2032=PRODUCT('Surface 1','Surface 1','Surface 1',(#2038));
#2033=PRODUCT('Part 1','Part 1','Part 1',(#2039));
#2034=PRODUCT('Part 2','Part 2','Part 2',(#2040));
#2035=PRODUCT_CATEGORY('','');
#2036=PRODUCT_CATEGORY('','');
#2037=PRODUCT_CATEGORY('','');
#2038=PRODUCT_CONTEXT('',#2044,'mechanical');
#2039=PRODUCT_CONTEXT('',#2045,'mechanical');
#2040=PRODUCT_CONTEXT('',#2046,'mechanical');
#2041=APPLICATION_PROTOCOL_DEFINITION('international standard',
'ap242_managed_model_based_3d_engineering',2020,#2044);
#2042=APPLICATION_PROTOCOL_DEFINITION('international standard',
'ap242_managed_model_based_3d_engineering',2020,#2045);
#2043=APPLICATION_PROTOCOL_DEFINITION('international standard',
'ap242_managed_model_based_3d_engineering',2020,#2046);
#2044=APPLICATION_CONTEXT('managed model based 3d engineering');
#2045=APPLICATION_CONTEXT('managed model based 3d engineering');
#2046=APPLICATION_CONTEXT('managed model based 3d engineering');
ENDSEC;
END-ISO-10303-21;
